solid OpenSCAD_Model
  facet normal 0 -1 0
    outer loop
      vertex 8 10 0
      vertex 16 10 2
      vertex 8 10 2
    endloop
  endfacet
  facet normal 0 -1 -0
    outer loop
      vertex 16 10 2
      vertex 8 10 0
      vertex 16 10 0
    endloop
  endfacet
  facet normal 0 1 -0
    outer loop
      vertex 16 6 0
      vertex 8 6 2
      vertex 16 6 2
    endloop
  endfacet
  facet normal 0 1 0
    outer loop
      vertex 8 6 2
      vertex 16 6 0
      vertex 8 6 0
    endloop
  endfacet
  facet normal 0.130527 -0.991445 0
    outer loop
      vertex 7.48236 9.93185 0
      vertex 8 10 2
      vertex 7.48236 9.93185 2
    endloop
  endfacet
  facet normal 0.130527 -0.991445 0
    outer loop
      vertex 8 10 2
      vertex 7.48236 9.93185 0
      vertex 8 10 0
    endloop
  endfacet
  facet normal 0.793354 -0.608761 0
    outer loop
      vertex 6.26795 9 2
      vertex 6.58579 9.41421 0
      vertex 6.58579 9.41421 2
    endloop
  endfacet
  facet normal 0.793354 -0.608761 0
    outer loop
      vertex 6.58579 9.41421 0
      vertex 6.26795 9 2
      vertex 6.26795 9 0
    endloop
  endfacet
  facet normal 0.923879 -0.382684 0
    outer loop
      vertex 6.06815 8.51764 2
      vertex 6.26795 9 0
      vertex 6.26795 9 2
    endloop
  endfacet
  facet normal 0.923879 -0.382684 0
    outer loop
      vertex 6.26795 9 0
      vertex 6.06815 8.51764 2
      vertex 6.06815 8.51764 0
    endloop
  endfacet
  facet normal 0.60876 -0.793354 0
    outer loop
      vertex 6.58579 9.41421 0
      vertex 7 9.73205 2
      vertex 6.58579 9.41421 2
    endloop
  endfacet
  facet normal 0.60876 -0.793354 0
    outer loop
      vertex 7 9.73205 2
      vertex 6.58579 9.41421 0
      vertex 7 9.73205 0
    endloop
  endfacet
  facet normal 0.382684 0.923879 -0
    outer loop
      vertex 7.48236 6.06815 0
      vertex 7 6.26795 2
      vertex 7.48236 6.06815 2
    endloop
  endfacet
  facet normal 0.382684 0.923879 0
    outer loop
      vertex 7 6.26795 2
      vertex 7.48236 6.06815 0
      vertex 7 6.26795 0
    endloop
  endfacet
  facet normal 0.991445 -0.130525 0
    outer loop
      vertex 6 8 2
      vertex 6.06815 8.51764 0
      vertex 6.06815 8.51764 2
    endloop
  endfacet
  facet normal 0.991445 -0.130525 0
    outer loop
      vertex 6.06815 8.51764 0
      vertex 6 8 2
      vertex 6 8 0
    endloop
  endfacet
  facet normal 0.382684 -0.923879 0
    outer loop
      vertex 7 9.73205 0
      vertex 7.48236 9.93185 2
      vertex 7 9.73205 2
    endloop
  endfacet
  facet normal 0.382684 -0.923879 0
    outer loop
      vertex 7.48236 9.93185 2
      vertex 7 9.73205 0
      vertex 7.48236 9.93185 0
    endloop
  endfacet
  facet normal 0.130525 0.991445 -0
    outer loop
      vertex 8 6 0
      vertex 7.48236 6.06815 2
      vertex 8 6 2
    endloop
  endfacet
  facet normal 0.130525 0.991445 0
    outer loop
      vertex 7.48236 6.06815 2
      vertex 8 6 0
      vertex 7.48236 6.06815 0
    endloop
  endfacet
  facet normal 0.608761 0.793354 -0
    outer loop
      vertex 7 6.26795 0
      vertex 6.58579 6.58579 2
      vertex 7 6.26795 2
    endloop
  endfacet
  facet normal 0.608761 0.793354 0
    outer loop
      vertex 6.58579 6.58579 2
      vertex 7 6.26795 0
      vertex 6.58579 6.58579 0
    endloop
  endfacet
  facet normal 0.923879 0.382684 0
    outer loop
      vertex 6.26795 7 2
      vertex 6.06815 7.48236 0
      vertex 6.06815 7.48236 2
    endloop
  endfacet
  facet normal 0.923879 0.382684 0
    outer loop
      vertex 6.06815 7.48236 0
      vertex 6.26795 7 2
      vertex 6.26795 7 0
    endloop
  endfacet
  facet normal 0.991445 0.130525 0
    outer loop
      vertex 6.06815 7.48236 2
      vertex 6 8 0
      vertex 6 8 2
    endloop
  endfacet
  facet normal 0.991445 0.130525 0
    outer loop
      vertex 6 8 0
      vertex 6.06815 7.48236 2
      vertex 6.06815 7.48236 0
    endloop
  endfacet
  facet normal 0.793354 0.60876 0
    outer loop
      vertex 6.58579 6.58579 2
      vertex 6.26795 7 0
      vertex 6.26795 7 2
    endloop
  endfacet
  facet normal 0.793354 0.60876 0
    outer loop
      vertex 6.26795 7 0
      vertex 6.58579 6.58579 2
      vertex 6.58579 6.58579 0
    endloop
  endfacet
  facet normal -0.991445 -0.130529 0
    outer loop
      vertex 18 8 0
      vertex 17.9319 8.51764 2
      vertex 17.9319 8.51764 0
    endloop
  endfacet
  facet normal -0.991445 -0.130529 0
    outer loop
      vertex 17.9319 8.51764 2
      vertex 18 8 0
      vertex 18 8 2
    endloop
  endfacet
  facet normal -0.130525 0.991445 0
    outer loop
      vertex 16.5176 6.06815 0
      vertex 16 6 2
      vertex 16.5176 6.06815 2
    endloop
  endfacet
  facet normal -0.130525 0.991445 0
    outer loop
      vertex 16 6 2
      vertex 16.5176 6.06815 0
      vertex 16 6 0
    endloop
  endfacet
  facet normal -0.608761 -0.793354 0
    outer loop
      vertex 17 9.73205 0
      vertex 17.4142 9.41421 2
      vertex 17 9.73205 2
    endloop
  endfacet
  facet normal -0.608761 -0.793354 -0
    outer loop
      vertex 17.4142 9.41421 2
      vertex 17 9.73205 0
      vertex 17.4142 9.41421 0
    endloop
  endfacet
  facet normal -0.793354 0.608761 0
    outer loop
      vertex 17.4142 6.58579 0
      vertex 17.732 7 2
      vertex 17.732 7 0
    endloop
  endfacet
  facet normal -0.793354 0.608761 0
    outer loop
      vertex 17.732 7 2
      vertex 17.4142 6.58579 0
      vertex 17.4142 6.58579 2
    endloop
  endfacet
  facet normal -0.793354 -0.608761 0
    outer loop
      vertex 17.732 9 0
      vertex 17.4142 9.41421 2
      vertex 17.4142 9.41421 0
    endloop
  endfacet
  facet normal -0.793354 -0.608761 0
    outer loop
      vertex 17.4142 9.41421 2
      vertex 17.732 9 0
      vertex 17.732 9 2
    endloop
  endfacet
  facet normal -0.92388 -0.382682 0
    outer loop
      vertex 17.9319 8.51764 0
      vertex 17.732 9 2
      vertex 17.732 9 0
    endloop
  endfacet
  facet normal -0.92388 -0.382682 0
    outer loop
      vertex 17.732 9 2
      vertex 17.9319 8.51764 0
      vertex 17.9319 8.51764 2
    endloop
  endfacet
  facet normal -0.130527 -0.991445 0
    outer loop
      vertex 16 10 0
      vertex 16.5176 9.93185 2
      vertex 16 10 2
    endloop
  endfacet
  facet normal -0.130527 -0.991445 -0
    outer loop
      vertex 16.5176 9.93185 2
      vertex 16 10 0
      vertex 16.5176 9.93185 0
    endloop
  endfacet
  facet normal -0.382684 -0.923879 0
    outer loop
      vertex 16.5176 9.93185 0
      vertex 17 9.73205 2
      vertex 16.5176 9.93185 2
    endloop
  endfacet
  facet normal -0.382684 -0.923879 -0
    outer loop
      vertex 17 9.73205 2
      vertex 16.5176 9.93185 0
      vertex 17 9.73205 0
    endloop
  endfacet
  facet normal -0.382684 0.923879 0
    outer loop
      vertex 17 6.26795 0
      vertex 16.5176 6.06815 2
      vertex 17 6.26795 2
    endloop
  endfacet
  facet normal -0.382684 0.923879 0
    outer loop
      vertex 16.5176 6.06815 2
      vertex 17 6.26795 0
      vertex 16.5176 6.06815 0
    endloop
  endfacet
  facet normal -0.92388 0.382682 0
    outer loop
      vertex 17.732 7 0
      vertex 17.9319 7.48236 2
      vertex 17.9319 7.48236 0
    endloop
  endfacet
  facet normal -0.92388 0.382682 0
    outer loop
      vertex 17.9319 7.48236 2
      vertex 17.732 7 0
      vertex 17.732 7 2
    endloop
  endfacet
  facet normal -0.608761 0.793354 0
    outer loop
      vertex 17.4142 6.58579 0
      vertex 17 6.26795 2
      vertex 17.4142 6.58579 2
    endloop
  endfacet
  facet normal -0.608761 0.793354 0
    outer loop
      vertex 17 6.26795 2
      vertex 17.4142 6.58579 0
      vertex 17 6.26795 0
    endloop
  endfacet
  facet normal -0.991445 0.130528 0
    outer loop
      vertex 17.9319 7.48236 0
      vertex 18 8 2
      vertex 18 8 0
    endloop
  endfacet
  facet normal -0.991445 0.130528 0
    outer loop
      vertex 18 8 2
      vertex 17.9319 7.48236 0
      vertex 17.9319 7.48236 2
    endloop
  endfacet
  facet normal -1 0 0
    outer loop
      vertex 0 0 0
      vertex 0 16 2
      vertex 0 16 0
    endloop
  endfacet
  facet normal -1 -0 0
    outer loop
      vertex 0 16 2
      vertex 0 0 0
      vertex 0 0 2
    endloop
  endfacet
  facet normal 0 0 1
    outer loop
      vertex 21.9998 14 2
      vertex 18 8 2
      vertex 21.9998 2 2
    endloop
  endfacet
  facet normal 0 0 1
    outer loop
      vertex 21.9998 14 2
      vertex 17.9319 8.51764 2
      vertex 18 8 2
    endloop
  endfacet
  facet normal 0 0 1
    outer loop
      vertex 21.9998 14 2
      vertex 17.732 9 2
      vertex 17.9319 8.51764 2
    endloop
  endfacet
  facet normal 0 0 1
    outer loop
      vertex 21.9998 14 2
      vertex 17.4142 9.41421 2
      vertex 17.732 9 2
    endloop
  endfacet
  facet normal 0 0 1
    outer loop
      vertex 21.9998 14 2
      vertex 17 9.73205 2
      vertex 17.4142 9.41421 2
    endloop
  endfacet
  facet normal 0 0 1
    outer loop
      vertex 21.9998 14 2
      vertex 16.5176 9.93185 2
      vertex 17 9.73205 2
    endloop
  endfacet
  facet normal 0 0 1
    outer loop
      vertex 21.9998 14 2
      vertex 16 10 2
      vertex 16.5176 9.93185 2
    endloop
  endfacet
  facet normal 0 0 1
    outer loop
      vertex 21.9998 14 2
      vertex 8 10 2
      vertex 16 10 2
    endloop
  endfacet
  facet normal -0 0 1
    outer loop
      vertex 2 14 2
      vertex 8 10 2
      vertex 21.9998 14 2
    endloop
  endfacet
  facet normal 0 0 1
    outer loop
      vertex 6.06815 8.51764 2
      vertex 2 14 2
      vertex 6 8 2
    endloop
  endfacet
  facet normal 0 0 1
    outer loop
      vertex 6.26795 9 2
      vertex 2 14 2
      vertex 6.06815 8.51764 2
    endloop
  endfacet
  facet normal 0 0 1
    outer loop
      vertex 6.58579 9.41421 2
      vertex 2 14 2
      vertex 6.26795 9 2
    endloop
  endfacet
  facet normal 0 0 1
    outer loop
      vertex 7 9.73205 2
      vertex 2 14 2
      vertex 6.58579 9.41421 2
    endloop
  endfacet
  facet normal 0 0 1
    outer loop
      vertex 7.48236 9.93185 2
      vertex 2 14 2
      vertex 7 9.73205 2
    endloop
  endfacet
  facet normal 0 0 1
    outer loop
      vertex 8 10 2
      vertex 2 14 2
      vertex 7.48236 9.93185 2
    endloop
  endfacet
  facet normal 0 0 1
    outer loop
      vertex 21.9998 14 2
      vertex 22 16 2
      vertex 21.9998 16 2
    endloop
  endfacet
  facet normal 0 0 1
    outer loop
      vertex 22 16 2
      vertex 21.9998 14 2
      vertex 22 0 2
    endloop
  endfacet
  facet normal -0 0 1
    outer loop
      vertex 21.9998 2 2
      vertex 22 0 2
      vertex 21.9998 14 2
    endloop
  endfacet
  facet normal 0 0 1
    outer loop
      vertex 22 0 2
      vertex 21.9998 2 2
      vertex 21.9998 0 2
    endloop
  endfacet
  facet normal -0 0 1
    outer loop
      vertex 17.9319 7.48236 2
      vertex 21.9998 2 2
      vertex 18 8 2
    endloop
  endfacet
  facet normal -0 0 1
    outer loop
      vertex 17.732 7 2
      vertex 21.9998 2 2
      vertex 17.9319 7.48236 2
    endloop
  endfacet
  facet normal -0 0 1
    outer loop
      vertex 17.4142 6.58579 2
      vertex 21.9998 2 2
      vertex 17.732 7 2
    endloop
  endfacet
  facet normal -0 0 1
    outer loop
      vertex 17 6.26795 2
      vertex 21.9998 2 2
      vertex 17.4142 6.58579 2
    endloop
  endfacet
  facet normal -0 0 1
    outer loop
      vertex 16.5176 6.06815 2
      vertex 21.9998 2 2
      vertex 17 6.26795 2
    endloop
  endfacet
  facet normal -0 0 1
    outer loop
      vertex 16 6 2
      vertex 21.9998 2 2
      vertex 16.5176 6.06815 2
    endloop
  endfacet
  facet normal -0 0 1
    outer loop
      vertex 8 6 2
      vertex 21.9998 2 2
      vertex 16 6 2
    endloop
  endfacet
  facet normal 0 0 1
    outer loop
      vertex 2 2 2
      vertex 8 6 2
      vertex 7.48236 6.06815 2
    endloop
  endfacet
  facet normal 0 0 1
    outer loop
      vertex 2 2 2
      vertex 6 8 2
      vertex 2 14 2
    endloop
  endfacet
  facet normal 0 0 1
    outer loop
      vertex 6 8 2
      vertex 2 2 2
      vertex 6.06815 7.48236 2
    endloop
  endfacet
  facet normal 0 0 1
    outer loop
      vertex 8 6 2
      vertex 2 2 2
      vertex 21.9998 2 2
    endloop
  endfacet
  facet normal 0 0 1
    outer loop
      vertex 7 6.26795 2
      vertex 2 2 2
      vertex 7.48236 6.06815 2
    endloop
  endfacet
  facet normal 0 0 1
    outer loop
      vertex 6.58579 6.58579 2
      vertex 2 2 2
      vertex 7 6.26795 2
    endloop
  endfacet
  facet normal 0 0 1
    outer loop
      vertex 6.26795 7 2
      vertex 2 2 2
      vertex 6.58579 6.58579 2
    endloop
  endfacet
  facet normal 0 0 1
    outer loop
      vertex 6.06815 7.48236 2
      vertex 2 2 2
      vertex 6.26795 7 2
    endloop
  endfacet
  facet normal -0 0 1
    outer loop
      vertex 0 16 2
      vertex 4.44089e-16 0 2
      vertex 4.44089e-16 16 2
    endloop
  endfacet
  facet normal 0 0 1
    outer loop
      vertex 4.44089e-16 0 2
      vertex 0 16 2
      vertex 0 0 2
    endloop
  endfacet
  facet normal 1 -0 0
    outer loop
      vertex 22 0 2
      vertex 22 16 0
      vertex 22 16 2
    endloop
  endfacet
  facet normal 1 0 0
    outer loop
      vertex 22 16 0
      vertex 22 0 2
      vertex 22 0 0
    endloop
  endfacet
  facet normal 0 1 -0
    outer loop
      vertex 22 16 0
      vertex 21.9998 16 2
      vertex 22 16 2
    endloop
  endfacet
  facet normal 0 1 0
    outer loop
      vertex 21.9998 16 2
      vertex 22 16 0
      vertex 4.44089e-16 16 2
    endloop
  endfacet
  facet normal 0 1 0
    outer loop
      vertex 0 16 0
      vertex 4.44089e-16 16 2
      vertex 22 16 0
    endloop
  endfacet
  facet normal 0 1 0
    outer loop
      vertex 4.44089e-16 16 2
      vertex 0 16 0
      vertex 0 16 2
    endloop
  endfacet
  facet normal 0 1 -0
    outer loop
      vertex 2 16 31.9998
      vertex 7.10543e-15 16 32
      vertex 2 16 32
    endloop
  endfacet
  facet normal 0 1 0
    outer loop
      vertex 4.44089e-16 16 2
      vertex 2 16 31.9998
      vertex 21.9998 16 2
    endloop
  endfacet
  facet normal 0 1 0
    outer loop
      vertex 2 16 31.9998
      vertex 4.44089e-16 16 2
      vertex 7.10543e-15 16 32
    endloop
  endfacet
  facet normal 0 0 -1
    outer loop
      vertex 22 0 0
      vertex 18 8 0
      vertex 22 16 0
    endloop
  endfacet
  facet normal 0 0 -1
    outer loop
      vertex 22 0 0
      vertex 17.9319 7.48236 0
      vertex 18 8 0
    endloop
  endfacet
  facet normal 0 0 -1
    outer loop
      vertex 22 0 0
      vertex 17.732 7 0
      vertex 17.9319 7.48236 0
    endloop
  endfacet
  facet normal 0 0 -1
    outer loop
      vertex 22 0 0
      vertex 17.4142 6.58579 0
      vertex 17.732 7 0
    endloop
  endfacet
  facet normal 0 0 -1
    outer loop
      vertex 22 0 0
      vertex 17 6.26795 0
      vertex 17.4142 6.58579 0
    endloop
  endfacet
  facet normal 0 0 -1
    outer loop
      vertex 22 0 0
      vertex 16.5176 6.06815 0
      vertex 17 6.26795 0
    endloop
  endfacet
  facet normal 0 0 -1
    outer loop
      vertex 22 0 0
      vertex 16 6 0
      vertex 16.5176 6.06815 0
    endloop
  endfacet
  facet normal 0 0 -1
    outer loop
      vertex 22 0 0
      vertex 8 6 0
      vertex 16 6 0
    endloop
  endfacet
  facet normal 0 0 -1
    outer loop
      vertex 0 0 0
      vertex 8 6 0
      vertex 22 0 0
    endloop
  endfacet
  facet normal -0 0 -1
    outer loop
      vertex 8 6 0
      vertex 0 0 0
      vertex 7.48236 6.06815 0
    endloop
  endfacet
  facet normal -0 0 -1
    outer loop
      vertex 6.06815 7.48236 0
      vertex 0 0 0
      vertex 6 8 0
    endloop
  endfacet
  facet normal -0 0 -1
    outer loop
      vertex 6.26795 7 0
      vertex 0 0 0
      vertex 6.06815 7.48236 0
    endloop
  endfacet
  facet normal -0 0 -1
    outer loop
      vertex 6.58579 6.58579 0
      vertex 0 0 0
      vertex 6.26795 7 0
    endloop
  endfacet
  facet normal -0 0 -1
    outer loop
      vertex 7 6.26795 0
      vertex 0 0 0
      vertex 6.58579 6.58579 0
    endloop
  endfacet
  facet normal -0 0 -1
    outer loop
      vertex 7.48236 6.06815 0
      vertex 0 0 0
      vertex 7 6.26795 0
    endloop
  endfacet
  facet normal 0 0 -1
    outer loop
      vertex 17.9319 8.51764 0
      vertex 22 16 0
      vertex 18 8 0
    endloop
  endfacet
  facet normal 0 0 -1
    outer loop
      vertex 17.732 9 0
      vertex 22 16 0
      vertex 17.9319 8.51764 0
    endloop
  endfacet
  facet normal 0 0 -1
    outer loop
      vertex 17.4142 9.41421 0
      vertex 22 16 0
      vertex 17.732 9 0
    endloop
  endfacet
  facet normal 0 0 -1
    outer loop
      vertex 17 9.73205 0
      vertex 22 16 0
      vertex 17.4142 9.41421 0
    endloop
  endfacet
  facet normal 0 0 -1
    outer loop
      vertex 16.5176 9.93185 0
      vertex 22 16 0
      vertex 17 9.73205 0
    endloop
  endfacet
  facet normal 0 0 -1
    outer loop
      vertex 16 10 0
      vertex 22 16 0
      vertex 16.5176 9.93185 0
    endloop
  endfacet
  facet normal 0 0 -1
    outer loop
      vertex 8 10 0
      vertex 22 16 0
      vertex 16 10 0
    endloop
  endfacet
  facet normal 0 0 -1
    outer loop
      vertex 0 16 0
      vertex 8 10 0
      vertex 7.48236 9.93185 0
    endloop
  endfacet
  facet normal 0 0 -1
    outer loop
      vertex 0 16 0
      vertex 7.48236 9.93185 0
      vertex 7 9.73205 0
    endloop
  endfacet
  facet normal 0 0 -1
    outer loop
      vertex 0 16 0
      vertex 6 8 0
      vertex 0 0 0
    endloop
  endfacet
  facet normal 0 0 -1
    outer loop
      vertex 6 8 0
      vertex 0 16 0
      vertex 6.06815 8.51764 0
    endloop
  endfacet
  facet normal 0 0 -1
    outer loop
      vertex 8 10 0
      vertex 0 16 0
      vertex 22 16 0
    endloop
  endfacet
  facet normal 0 0 -1
    outer loop
      vertex 6.58579 9.41421 0
      vertex 0 16 0
      vertex 7 9.73205 0
    endloop
  endfacet
  facet normal 0 0 -1
    outer loop
      vertex 6.26795 9 0
      vertex 0 16 0
      vertex 6.58579 9.41421 0
    endloop
  endfacet
  facet normal 0 0 -1
    outer loop
      vertex 6.06815 8.51764 0
      vertex 0 16 0
      vertex 6.26795 9 0
    endloop
  endfacet
  facet normal 0 -1 0
    outer loop
      vertex 0 0 0
      vertex 4.44089e-16 0 2
      vertex 0 0 2
    endloop
  endfacet
  facet normal 0 -1 -0
    outer loop
      vertex 4.44089e-16 0 2
      vertex 0 0 0
      vertex 21.9998 0 2
    endloop
  endfacet
  facet normal 0 -1 0
    outer loop
      vertex 22 0 0
      vertex 21.9998 0 2
      vertex 0 0 0
    endloop
  endfacet
  facet normal 0 -1 0
    outer loop
      vertex 21.9998 0 2
      vertex 22 0 0
      vertex 22 0 2
    endloop
  endfacet
  facet normal 0 -1 0
    outer loop
      vertex 7.10543e-15 0 32
      vertex 2 0 31.9998
      vertex 2 0 32
    endloop
  endfacet
  facet normal 0 -1 0
    outer loop
      vertex 4.44089e-16 0 2
      vertex 2 0 31.9998
      vertex 7.10543e-15 0 32
    endloop
  endfacet
  facet normal 0 -1 -0
    outer loop
      vertex 2 0 31.9998
      vertex 4.44089e-16 0 2
      vertex 21.9998 0 2
    endloop
  endfacet
  facet normal 0 -1 0
    outer loop
      vertex 1.77636e-15 10 8
      vertex 2 10 26
      vertex 5.77316e-15 10 26
    endloop
  endfacet
  facet normal 0 -1 -0
    outer loop
      vertex 2 10 26
      vertex 1.77636e-15 10 8
      vertex 2 10 8
    endloop
  endfacet
  facet normal 0 1 -0
    outer loop
      vertex 2 6 8
      vertex 5.77316e-15 6 26
      vertex 2 6 26
    endloop
  endfacet
  facet normal 0 1 0
    outer loop
      vertex 5.77316e-15 6 26
      vertex 2 6 8
      vertex 1.77636e-15 6 8
    endloop
  endfacet
  facet normal 0 -0.991445 0.130527
    outer loop
      vertex 1.66142e-15 9.93185 7.48236
      vertex 2 10 8
      vertex 1.77636e-15 10 8
    endloop
  endfacet
  facet normal 0 -0.991445 0.130527
    outer loop
      vertex 2 10 8
      vertex 1.66142e-15 9.93185 7.48236
      vertex 2 9.93185 7.48236
    endloop
  endfacet
  facet normal 0 -0.608761 0.793354
    outer loop
      vertex 1.46234e-15 9.41421 6.58579
      vertex 2 9 6.26795
      vertex 2 9.41421 6.58579
    endloop
  endfacet
  facet normal 0 -0.608761 0.793354
    outer loop
      vertex 2 9 6.26795
      vertex 1.46234e-15 9.41421 6.58579
      vertex 1.39176e-15 9 6.26795
    endloop
  endfacet
  facet normal 0 -0.382684 0.923879
    outer loop
      vertex 1.39176e-15 9 6.26795
      vertex 2 8.51764 6.06815
      vertex 2 9 6.26795
    endloop
  endfacet
  facet normal 0 -0.382684 0.923879
    outer loop
      vertex 2 8.51764 6.06815
      vertex 1.39176e-15 9 6.26795
      vertex 1.3474e-15 8.51764 6.06815
    endloop
  endfacet
  facet normal 0 -0.793354 0.60876
    outer loop
      vertex 1.46234e-15 9.41421 6.58579
      vertex 2 9.73205 7
      vertex 1.55431e-15 9.73205 7
    endloop
  endfacet
  facet normal 0 -0.793354 0.60876
    outer loop
      vertex 2 9.73205 7
      vertex 1.46234e-15 9.41421 6.58579
      vertex 2 9.41421 6.58579
    endloop
  endfacet
  facet normal 0 0.923879 0.382684
    outer loop
      vertex 2 6.26795 7
      vertex 1.66142e-15 6.06815 7.48236
      vertex 2 6.06815 7.48236
    endloop
  endfacet
  facet normal 0 0.923879 0.382684
    outer loop
      vertex 1.66142e-15 6.06815 7.48236
      vertex 2 6.26795 7
      vertex 1.55431e-15 6.26795 7
    endloop
  endfacet
  facet normal 0 -0.130525 0.991445
    outer loop
      vertex 1.3474e-15 8.51764 6.06815
      vertex 2 8 6
      vertex 2 8.51764 6.06815
    endloop
  endfacet
  facet normal 0 -0.130525 0.991445
    outer loop
      vertex 2 8 6
      vertex 1.3474e-15 8.51764 6.06815
      vertex 1.33227e-15 8 6
    endloop
  endfacet
  facet normal 0 -0.923879 0.382684
    outer loop
      vertex 1.55431e-15 9.73205 7
      vertex 2 9.93185 7.48236
      vertex 1.66142e-15 9.93185 7.48236
    endloop
  endfacet
  facet normal 0 -0.923879 0.382684
    outer loop
      vertex 2 9.93185 7.48236
      vertex 1.55431e-15 9.73205 7
      vertex 2 9.73205 7
    endloop
  endfacet
  facet normal 0 0.991445 0.130525
    outer loop
      vertex 2 6.06815 7.48236
      vertex 1.77636e-15 6 8
      vertex 2 6 8
    endloop
  endfacet
  facet normal 0 0.991445 0.130525
    outer loop
      vertex 1.77636e-15 6 8
      vertex 2 6.06815 7.48236
      vertex 1.66142e-15 6.06815 7.48236
    endloop
  endfacet
  facet normal 0 0.793354 0.608761
    outer loop
      vertex 2 6.58579 6.58579
      vertex 1.55431e-15 6.26795 7
      vertex 2 6.26795 7
    endloop
  endfacet
  facet normal 0 0.793354 0.608761
    outer loop
      vertex 1.55431e-15 6.26795 7
      vertex 2 6.58579 6.58579
      vertex 1.46234e-15 6.58579 6.58579
    endloop
  endfacet
  facet normal 0 0.382684 0.923879
    outer loop
      vertex 2 7.48236 6.06815
      vertex 1.39176e-15 7 6.26795
      vertex 2 7 6.26795
    endloop
  endfacet
  facet normal 0 0.382684 0.923879
    outer loop
      vertex 1.39176e-15 7 6.26795
      vertex 2 7.48236 6.06815
      vertex 1.3474e-15 7.48236 6.06815
    endloop
  endfacet
  facet normal 0 0.130525 0.991445
    outer loop
      vertex 2 8 6
      vertex 1.3474e-15 7.48236 6.06815
      vertex 2 7.48236 6.06815
    endloop
  endfacet
  facet normal 0 0.130525 0.991445
    outer loop
      vertex 1.3474e-15 7.48236 6.06815
      vertex 2 8 6
      vertex 1.33227e-15 8 6
    endloop
  endfacet
  facet normal 0 0.60876 0.793354
    outer loop
      vertex 2 7 6.26795
      vertex 1.46234e-15 6.58579 6.58579
      vertex 2 6.58579 6.58579
    endloop
  endfacet
  facet normal 0 0.60876 0.793354
    outer loop
      vertex 1.46234e-15 6.58579 6.58579
      vertex 2 7 6.26795
      vertex 1.39176e-15 7 6.26795
    endloop
  endfacet
  facet normal 0 -0.130529 -0.991445
    outer loop
      vertex 6.21725e-15 8 28
      vertex 2 8.51764 27.9319
      vertex 2 8 28
    endloop
  endfacet
  facet normal -0 -0.130529 -0.991445
    outer loop
      vertex 2 8.51764 27.9319
      vertex 6.21725e-15 8 28
      vertex 6.20212e-15 8.51764 27.9319
    endloop
  endfacet
  facet normal 0 0.991445 -0.130525
    outer loop
      vertex 2 6 26
      vertex 5.8881e-15 6.06815 26.5176
      vertex 2 6.06815 26.5176
    endloop
  endfacet
  facet normal 0 0.991445 -0.130525
    outer loop
      vertex 5.8881e-15 6.06815 26.5176
      vertex 2 6 26
      vertex 5.77316e-15 6 26
    endloop
  endfacet
  facet normal 0 -0.793354 -0.608761
    outer loop
      vertex 5.9952e-15 9.73205 27
      vertex 2 9.41421 27.4142
      vertex 6.08718e-15 9.41421 27.4142
    endloop
  endfacet
  facet normal 0 -0.793354 -0.608761
    outer loop
      vertex 2 9.41421 27.4142
      vertex 5.9952e-15 9.73205 27
      vertex 2 9.73205 27
    endloop
  endfacet
  facet normal 0 0.608761 -0.793354
    outer loop
      vertex 2 6.58579 27.4142
      vertex 6.15775e-15 7 27.732
      vertex 2 7 27.732
    endloop
  endfacet
  facet normal 0 0.608761 -0.793354
    outer loop
      vertex 6.15775e-15 7 27.732
      vertex 2 6.58579 27.4142
      vertex 6.08718e-15 6.58579 27.4142
    endloop
  endfacet
  facet normal 0 -0.608761 -0.793354
    outer loop
      vertex 6.15775e-15 9 27.732
      vertex 2 9.41421 27.4142
      vertex 2 9 27.732
    endloop
  endfacet
  facet normal -0 -0.608761 -0.793354
    outer loop
      vertex 2 9.41421 27.4142
      vertex 6.15775e-15 9 27.732
      vertex 6.08718e-15 9.41421 27.4142
    endloop
  endfacet
  facet normal 0 -0.382682 -0.92388
    outer loop
      vertex 6.20212e-15 8.51764 27.9319
      vertex 2 9 27.732
      vertex 2 8.51764 27.9319
    endloop
  endfacet
  facet normal -0 -0.382682 -0.92388
    outer loop
      vertex 2 9 27.732
      vertex 6.20212e-15 8.51764 27.9319
      vertex 6.15775e-15 9 27.732
    endloop
  endfacet
  facet normal 0 -0.991445 -0.130527
    outer loop
      vertex 5.77316e-15 10 26
      vertex 2 9.93185 26.5176
      vertex 5.8881e-15 9.93185 26.5176
    endloop
  endfacet
  facet normal 0 -0.991445 -0.130527
    outer loop
      vertex 2 9.93185 26.5176
      vertex 5.77316e-15 10 26
      vertex 2 10 26
    endloop
  endfacet
  facet normal 0 -0.923879 -0.382684
    outer loop
      vertex 5.8881e-15 9.93185 26.5176
      vertex 2 9.73205 27
      vertex 5.9952e-15 9.73205 27
    endloop
  endfacet
  facet normal 0 -0.923879 -0.382684
    outer loop
      vertex 2 9.73205 27
      vertex 5.8881e-15 9.93185 26.5176
      vertex 2 9.93185 26.5176
    endloop
  endfacet
  facet normal 0 0.130528 -0.991445
    outer loop
      vertex 2 7.48236 27.9319
      vertex 6.21725e-15 8 28
      vertex 2 8 28
    endloop
  endfacet
  facet normal 0 0.130528 -0.991445
    outer loop
      vertex 6.21725e-15 8 28
      vertex 2 7.48236 27.9319
      vertex 6.20212e-15 7.48236 27.9319
    endloop
  endfacet
  facet normal 0 0.923879 -0.382684
    outer loop
      vertex 2 6.06815 26.5176
      vertex 5.9952e-15 6.26795 27
      vertex 2 6.26795 27
    endloop
  endfacet
  facet normal 0 0.923879 -0.382684
    outer loop
      vertex 5.9952e-15 6.26795 27
      vertex 2 6.06815 26.5176
      vertex 5.8881e-15 6.06815 26.5176
    endloop
  endfacet
  facet normal 0 0.382682 -0.92388
    outer loop
      vertex 2 7 27.732
      vertex 6.20212e-15 7.48236 27.9319
      vertex 2 7.48236 27.9319
    endloop
  endfacet
  facet normal 0 0.382682 -0.92388
    outer loop
      vertex 6.20212e-15 7.48236 27.9319
      vertex 2 7 27.732
      vertex 6.15775e-15 7 27.732
    endloop
  endfacet
  facet normal 0 0.793354 -0.608761
    outer loop
      vertex 2 6.26795 27
      vertex 6.08718e-15 6.58579 27.4142
      vertex 2 6.58579 27.4142
    endloop
  endfacet
  facet normal 0 0.793354 -0.608761
    outer loop
      vertex 6.08718e-15 6.58579 27.4142
      vertex 2 6.26795 27
      vertex 5.9952e-15 6.26795 27
    endloop
  endfacet
  facet normal -1 0 2.22045e-16
    outer loop
      vertex 4.44089e-16 16 2
      vertex 1.77636e-15 10 8
      vertex 7.10543e-15 16 32
    endloop
  endfacet
  facet normal -1 0 2.22045e-16
    outer loop
      vertex 4.44089e-16 16 2
      vertex 1.66142e-15 9.93185 7.48236
      vertex 1.77636e-15 10 8
    endloop
  endfacet
  facet normal -1 0 2.22045e-16
    outer loop
      vertex 4.44089e-16 16 2
      vertex 1.55431e-15 9.73205 7
      vertex 1.66142e-15 9.93185 7.48236
    endloop
  endfacet
  facet normal -1 0 2.22045e-16
    outer loop
      vertex 4.44089e-16 16 2
      vertex 1.46234e-15 9.41421 6.58579
      vertex 1.55431e-15 9.73205 7
    endloop
  endfacet
  facet normal -1 0 2.22045e-16
    outer loop
      vertex 4.44089e-16 16 2
      vertex 1.39176e-15 9 6.26795
      vertex 1.46234e-15 9.41421 6.58579
    endloop
  endfacet
  facet normal -1 0 2.22045e-16
    outer loop
      vertex 4.44089e-16 16 2
      vertex 1.3474e-15 8.51764 6.06815
      vertex 1.39176e-15 9 6.26795
    endloop
  endfacet
  facet normal -1 0 2.22045e-16
    outer loop
      vertex 4.44089e-16 16 2
      vertex 1.33227e-15 8 6
      vertex 1.3474e-15 8.51764 6.06815
    endloop
  endfacet
  facet normal -1 0 2.22045e-16
    outer loop
      vertex 4.44089e-16 0 2
      vertex 1.33227e-15 8 6
      vertex 4.44089e-16 16 2
    endloop
  endfacet
  facet normal -1 0 2.22045e-16
    outer loop
      vertex 1.33227e-15 8 6
      vertex 4.44089e-16 0 2
      vertex 1.3474e-15 7.48236 6.06815
    endloop
  endfacet
  facet normal -1 0 2.22045e-16
    outer loop
      vertex 1.77636e-15 6 8
      vertex 4.44089e-16 0 2
      vertex 5.77316e-15 6 26
    endloop
  endfacet
  facet normal -1 0 2.22045e-16
    outer loop
      vertex 1.66142e-15 6.06815 7.48236
      vertex 4.44089e-16 0 2
      vertex 1.77636e-15 6 8
    endloop
  endfacet
  facet normal -1 0 2.22045e-16
    outer loop
      vertex 1.55431e-15 6.26795 7
      vertex 4.44089e-16 0 2
      vertex 1.66142e-15 6.06815 7.48236
    endloop
  endfacet
  facet normal -1 0 2.22045e-16
    outer loop
      vertex 1.46234e-15 6.58579 6.58579
      vertex 4.44089e-16 0 2
      vertex 1.55431e-15 6.26795 7
    endloop
  endfacet
  facet normal -1 0 2.22045e-16
    outer loop
      vertex 1.39176e-15 7 6.26795
      vertex 4.44089e-16 0 2
      vertex 1.46234e-15 6.58579 6.58579
    endloop
  endfacet
  facet normal -1 0 2.22045e-16
    outer loop
      vertex 1.3474e-15 7.48236 6.06815
      vertex 4.44089e-16 0 2
      vertex 1.39176e-15 7 6.26795
    endloop
  endfacet
  facet normal -1 0 2.22045e-16
    outer loop
      vertex 5.77316e-15 10 26
      vertex 7.10543e-15 16 32
      vertex 1.77636e-15 10 8
    endloop
  endfacet
  facet normal -1 0 2.22045e-16
    outer loop
      vertex 5.8881e-15 9.93185 26.5176
      vertex 7.10543e-15 16 32
      vertex 5.77316e-15 10 26
    endloop
  endfacet
  facet normal -1 0 2.22045e-16
    outer loop
      vertex 5.9952e-15 9.73205 27
      vertex 7.10543e-15 16 32
      vertex 5.8881e-15 9.93185 26.5176
    endloop
  endfacet
  facet normal -1 0 2.22045e-16
    outer loop
      vertex 6.08718e-15 9.41421 27.4142
      vertex 7.10543e-15 16 32
      vertex 5.9952e-15 9.73205 27
    endloop
  endfacet
  facet normal -1 0 2.22045e-16
    outer loop
      vertex 6.15775e-15 9 27.732
      vertex 7.10543e-15 16 32
      vertex 6.08718e-15 9.41421 27.4142
    endloop
  endfacet
  facet normal -1 0 2.22045e-16
    outer loop
      vertex 6.20212e-15 8.51764 27.9319
      vertex 7.10543e-15 16 32
      vertex 6.15775e-15 9 27.732
    endloop
  endfacet
  facet normal -1 0 2.22045e-16
    outer loop
      vertex 6.21725e-15 8 28
      vertex 7.10543e-15 16 32
      vertex 6.20212e-15 8.51764 27.9319
    endloop
  endfacet
  facet normal -1 0 2.22045e-16
    outer loop
      vertex 7.10543e-15 0 32
      vertex 6.21725e-15 8 28
      vertex 6.20212e-15 7.48236 27.9319
    endloop
  endfacet
  facet normal -1 0 2.22045e-16
    outer loop
      vertex 7.10543e-15 0 32
      vertex 6.20212e-15 7.48236 27.9319
      vertex 6.15775e-15 7 27.732
    endloop
  endfacet
  facet normal -1 0 2.22045e-16
    outer loop
      vertex 7.10543e-15 0 32
      vertex 5.77316e-15 6 26
      vertex 4.44089e-16 0 2
    endloop
  endfacet
  facet normal -1 0 2.22045e-16
    outer loop
      vertex 6.21725e-15 8 28
      vertex 7.10543e-15 0 32
      vertex 7.10543e-15 16 32
    endloop
  endfacet
  facet normal -1 0 2.22045e-16
    outer loop
      vertex 6.08718e-15 6.58579 27.4142
      vertex 7.10543e-15 0 32
      vertex 6.15775e-15 7 27.732
    endloop
  endfacet
  facet normal -1 0 2.22045e-16
    outer loop
      vertex 5.9952e-15 6.26795 27
      vertex 7.10543e-15 0 32
      vertex 6.08718e-15 6.58579 27.4142
    endloop
  endfacet
  facet normal -1 0 2.22045e-16
    outer loop
      vertex 5.8881e-15 6.06815 26.5176
      vertex 7.10543e-15 0 32
      vertex 5.9952e-15 6.26795 27
    endloop
  endfacet
  facet normal -1 0 2.22045e-16
    outer loop
      vertex 5.77316e-15 6 26
      vertex 7.10543e-15 0 32
      vertex 5.8881e-15 6.06815 26.5176
    endloop
  endfacet
  facet normal -0 0 1
    outer loop
      vertex 7.10543e-15 16 32
      vertex 2 0 32
      vertex 2 16 32
    endloop
  endfacet
  facet normal 0 0 1
    outer loop
      vertex 2 0 32
      vertex 7.10543e-15 16 32
      vertex 7.10543e-15 0 32
    endloop
  endfacet
  facet normal 1 0 0
    outer loop
      vertex 2 16 32
      vertex 2 14 31.9998
      vertex 2 16 31.9998
    endloop
  endfacet
  facet normal 1 0 0
    outer loop
      vertex 2 14 31.9998
      vertex 2 10 26
      vertex 2 14 2
    endloop
  endfacet
  facet normal 1 0 0
    outer loop
      vertex 2 14 31.9998
      vertex 2 9.93185 26.5176
      vertex 2 10 26
    endloop
  endfacet
  facet normal 1 0 0
    outer loop
      vertex 2 14 31.9998
      vertex 2 9.73205 27
      vertex 2 9.93185 26.5176
    endloop
  endfacet
  facet normal 1 0 0
    outer loop
      vertex 2 14 31.9998
      vertex 2 9.41421 27.4142
      vertex 2 9.73205 27
    endloop
  endfacet
  facet normal 1 0 0
    outer loop
      vertex 2 14 31.9998
      vertex 2 9 27.732
      vertex 2 9.41421 27.4142
    endloop
  endfacet
  facet normal 1 0 0
    outer loop
      vertex 2 14 31.9998
      vertex 2 8.51764 27.9319
      vertex 2 9 27.732
    endloop
  endfacet
  facet normal 1 0 0
    outer loop
      vertex 2 14 31.9998
      vertex 2 8 28
      vertex 2 8.51764 27.9319
    endloop
  endfacet
  facet normal 1 -0 0
    outer loop
      vertex 2 2 31.9998
      vertex 2 8 28
      vertex 2 14 31.9998
    endloop
  endfacet
  facet normal 1 0 0
    outer loop
      vertex 2 8 28
      vertex 2 2 31.9998
      vertex 2 7.48236 27.9319
    endloop
  endfacet
  facet normal 1 0 0
    outer loop
      vertex 2 2 31.9998
      vertex 2 6 8
      vertex 2 6 26
    endloop
  endfacet
  facet normal 1 0 0
    outer loop
      vertex 2 2 2
      vertex 2 6 8
      vertex 2 2 31.9998
    endloop
  endfacet
  facet normal 1 0 0
    outer loop
      vertex 2 6.06815 26.5176
      vertex 2 2 31.9998
      vertex 2 6 26
    endloop
  endfacet
  facet normal 1 0 0
    outer loop
      vertex 2 6.26795 27
      vertex 2 2 31.9998
      vertex 2 6.06815 26.5176
    endloop
  endfacet
  facet normal 1 0 0
    outer loop
      vertex 2 6.58579 27.4142
      vertex 2 2 31.9998
      vertex 2 6.26795 27
    endloop
  endfacet
  facet normal 1 0 0
    outer loop
      vertex 2 7 27.732
      vertex 2 2 31.9998
      vertex 2 6.58579 27.4142
    endloop
  endfacet
  facet normal 1 0 0
    outer loop
      vertex 2 7.48236 27.9319
      vertex 2 2 31.9998
      vertex 2 7 27.732
    endloop
  endfacet
  facet normal 1 0 0
    outer loop
      vertex 2 16 32
      vertex 2 2 31.9998
      vertex 2 14 31.9998
    endloop
  endfacet
  facet normal 1 -0 0
    outer loop
      vertex 2 0 32
      vertex 2 2 31.9998
      vertex 2 16 32
    endloop
  endfacet
  facet normal 1 0 0
    outer loop
      vertex 2 2 31.9998
      vertex 2 0 32
      vertex 2 0 31.9998
    endloop
  endfacet
  facet normal 1 -0 0
    outer loop
      vertex 2 10 8
      vertex 2 14 2
      vertex 2 10 26
    endloop
  endfacet
  facet normal 1 -0 0
    outer loop
      vertex 2 9.93185 7.48236
      vertex 2 14 2
      vertex 2 10 8
    endloop
  endfacet
  facet normal 1 -0 0
    outer loop
      vertex 2 9.73205 7
      vertex 2 14 2
      vertex 2 9.93185 7.48236
    endloop
  endfacet
  facet normal 1 -0 0
    outer loop
      vertex 2 9.41421 6.58579
      vertex 2 14 2
      vertex 2 9.73205 7
    endloop
  endfacet
  facet normal 1 -0 0
    outer loop
      vertex 2 9 6.26795
      vertex 2 14 2
      vertex 2 9.41421 6.58579
    endloop
  endfacet
  facet normal 1 -0 0
    outer loop
      vertex 2 8.51764 6.06815
      vertex 2 14 2
      vertex 2 9 6.26795
    endloop
  endfacet
  facet normal 1 -0 0
    outer loop
      vertex 2 8 6
      vertex 2 14 2
      vertex 2 8.51764 6.06815
    endloop
  endfacet
  facet normal 1 0 0
    outer loop
      vertex 2 2 2
      vertex 2 8 6
      vertex 2 7.48236 6.06815
    endloop
  endfacet
  facet normal 1 0 0
    outer loop
      vertex 2 2 2
      vertex 2 7.48236 6.06815
      vertex 2 7 6.26795
    endloop
  endfacet
  facet normal 1 0 0
    outer loop
      vertex 2 8 6
      vertex 2 2 2
      vertex 2 14 2
    endloop
  endfacet
  facet normal 1 0 0
    outer loop
      vertex 2 6.58579 6.58579
      vertex 2 2 2
      vertex 2 7 6.26795
    endloop
  endfacet
  facet normal 1 0 0
    outer loop
      vertex 2 6.26795 7
      vertex 2 2 2
      vertex 2 6.58579 6.58579
    endloop
  endfacet
  facet normal 1 0 0
    outer loop
      vertex 2 6.06815 7.48236
      vertex 2 2 2
      vertex 2 6.26795 7
    endloop
  endfacet
  facet normal 1 0 0
    outer loop
      vertex 2 6 8
      vertex 2 2 2
      vertex 2 6.06815 7.48236
    endloop
  endfacet
  facet normal 0 1 0
    outer loop
      vertex 21.9998 2 2
      vertex 2 2 2
      vertex 2 2 31.9998
    endloop
  endfacet
  facet normal 0.83205 -0 0.5547
    outer loop
      vertex 2 0 31.9998
      vertex 21.9998 2 2
      vertex 2 2 31.9998
    endloop
  endfacet
  facet normal 0.83205 0 0.5547
    outer loop
      vertex 21.9998 2 2
      vertex 2 0 31.9998
      vertex 21.9998 0 2
    endloop
  endfacet
  facet normal 0.83205 -0 0.5547
    outer loop
      vertex 2 14 31.9998
      vertex 21.9998 16 2
      vertex 2 16 31.9998
    endloop
  endfacet
  facet normal 0.83205 0 0.5547
    outer loop
      vertex 21.9998 16 2
      vertex 2 14 31.9998
      vertex 21.9998 14 2
    endloop
  endfacet
  facet normal 0 -1 0
    outer loop
      vertex 2 14 31.9998
      vertex 2 14 2
      vertex 21.9998 14 2
    endloop
  endfacet
endsolid OpenSCAD_Model
