<?xml version="1.0" encoding="UTF-8" standalone="no"?>
<!-- Created with Inkscape (http://www.inkscape.org/) -->

<svg
   xmlns:dc="http://purl.org/dc/elements/1.1/"
   xmlns:cc="http://creativecommons.org/ns#"
   xmlns:rdf="http://www.w3.org/1999/02/22-rdf-syntax-ns#"
   xmlns:svg="http://www.w3.org/2000/svg"
   xmlns="http://www.w3.org/2000/svg"
   xmlns:sodipodi="http://sodipodi.sourceforge.net/DTD/sodipodi-0.dtd"
   xmlns:inkscape="http://www.inkscape.org/namespaces/inkscape"
   width="210mm"
   height="297mm"
   viewBox="0 0 210 297"
   version="1.1"
   id="svg8"
   inkscape:version="0.92.1 r"
   sodipodi:docname="Left-Foot.svg">
  <defs
     id="defs2" />
  <sodipodi:namedview
     id="base"
     pagecolor="#ffffff"
     bordercolor="#666666"
     borderopacity="1.0"
     inkscape:pageopacity="0.0"
     inkscape:pageshadow="2"
     inkscape:zoom="0.98994949"
     inkscape:cx="302.10527"
     inkscape:cy="439.53207"
     inkscape:document-units="mm"
     inkscape:current-layer="layer1"
     showgrid="false"
     inkscape:window-width="3200"
     inkscape:window-height="1671"
     inkscape:window-x="0"
     inkscape:window-y="55"
     inkscape:window-maximized="1" />
  <metadata
     id="metadata5">
    <rdf:RDF>
      <cc:Work
         rdf:about="">
        <dc:format>image/svg+xml</dc:format>
        <dc:type
           rdf:resource="http://purl.org/dc/dcmitype/StillImage" />
        <dc:title></dc:title>
      </cc:Work>
    </rdf:RDF>
  </metadata>
  <g
     inkscape:label="Layer 1"
     inkscape:groupmode="layer"
     id="layer1">
    <path
       style="fill:none;stroke:#000000;stroke-width:0.26458332px;stroke-linecap:butt;stroke-linejoin:miter;stroke-opacity:1"
       d="m 46.491072,132.95833 c -7.801638,34.14193 -13.212727,56.71905 -27.970239,75.40625 -7.914917,10.02253 -15.0336814,30.45492 -10.7723213,49.32589 2.5993153,11.51079 8.0769573,22.68306 22.8675603,27.0253 23.453888,6.88562 35.198426,-5.12186 45.168153,-16.81994 4.548607,-5.33715 8.394203,-11.69244 10.772322,-17.76488 7.443403,-19.00646 17.021283,-37.95372 29.482143,-54.42857 12.66549,-16.7454 24.88083,-32.43439 35.52976,-52.3497 3.84096,-7.18324 9.29154,-14.00093 14.38602,-20.71041 5.42287,-7.14195 10.65596,-14.27699 13.39523,-23.701794 1.86948,-6.432177 6.73528,-11.587298 10.39435,-17.197917 1.97625,-3.030271 4.44818,-5.737656 6.2366,-8.88244 7.44881,-13.09809 7.99216,-20.915539 8.50447,-23.8125 3.95017,-22.336944 -15.04073,-24.283085 -19.50966,-22.511529 -7.03926,2.790474 -10.41198,2.011412 -16.67583,-2.312729 -8.14256,-5.621081 -6.55411,-6.157268 -15.18292,-4.380135 -5.30219,1.092004 -6.65401,3.994021 -12.11915,0.723529 -5.18675,-3.103889 -12.81864,-2.90669 -16.26542,1.077592 -3.62379,4.18889 -8.63385,7.124096 -12.28422,9.260417 -3.28339,1.921552 -5.71422,3.204442 -7.74852,5.669642 -2.88199,3.492451 -6.710427,4.775359 -10.295099,6.213679 -10.015086,4.01847 -17.831325,10.022738 -22.3435,18.866383 -1.760933,3.451343 -1.738118,8.406321 -4.781041,12.906545 -4.768145,7.05168 -10.94564,10.997009 -12.473212,24.379465 -1.325743,11.614312 -2.363741,7.971562 -8.315476,34.017852 z"
       id="path4496"
       inkscape:connector-curvature="0"
       sodipodi:nodetypes="sssssssssssssssssssssssss" />
  </g>
</svg>
