<?xml version="1.0" encoding="UTF-8" standalone="no"?>
<!-- Created with Inkscape (http://www.inkscape.org/) -->

<svg
   xmlns:dc="http://purl.org/dc/elements/1.1/"
   xmlns:cc="http://creativecommons.org/ns#"
   xmlns:rdf="http://www.w3.org/1999/02/22-rdf-syntax-ns#"
   xmlns:svg="http://www.w3.org/2000/svg"
   xmlns="http://www.w3.org/2000/svg"
   xmlns:sodipodi="http://sodipodi.sourceforge.net/DTD/sodipodi-0.dtd"
   xmlns:inkscape="http://www.inkscape.org/namespaces/inkscape"
   width="210mm"
   height="297mm"
   viewBox="0 0 210 297"
   version="1.1"
   id="svg4542"
   inkscape:version="0.92.1 r"
   sodipodi:docname="Right-Foot.svg">
  <defs
     id="defs4536" />
  <sodipodi:namedview
     id="base"
     pagecolor="#ffffff"
     bordercolor="#666666"
     borderopacity="1.0"
     inkscape:pageopacity="0.0"
     inkscape:pageshadow="2"
     inkscape:zoom="0.98994949"
     inkscape:cx="73.534749"
     inkscape:cy="583.86649"
     inkscape:document-units="mm"
     inkscape:current-layer="layer1"
     showgrid="false"
     inkscape:window-width="3200"
     inkscape:window-height="1671"
     inkscape:window-x="0"
     inkscape:window-y="55"
     inkscape:window-maximized="1" />
  <metadata
     id="metadata4539">
    <rdf:RDF>
      <cc:Work
         rdf:about="">
        <dc:format>image/svg+xml</dc:format>
        <dc:type
           rdf:resource="http://purl.org/dc/dcmitype/StillImage" />
        <dc:title></dc:title>
      </cc:Work>
    </rdf:RDF>
  </metadata>
  <g
     inkscape:label="Layer 1"
     inkscape:groupmode="layer"
     id="layer1">
    <path
       style="fill:none;stroke:#000000;stroke-width:0.26458332px;stroke-linecap:butt;stroke-linejoin:miter;stroke-opacity:1"
       d="m 160.21465,139.10044 c 2.33991,18.29085 4.33982,27.91229 14.07961,43.3964 3.07149,4.88299 10.14552,18.03571 14.64658,24.26134 8.38555,11.59848 11.11498,23.86 7.72489,39.49851 -9.41077,43.41198 -66.15193,31.619 -73.65811,-0.21261 -2.86767,-12.16098 -5.47623,-23.27081 -15.04818,-34.84468 -2.77543,-3.35589 -6.28201,-10.41358 -13.347277,-24.68657 -9.446356,-19.08317 -22.140502,-34.19295 -36.285712,-50.08184 -2.74879,-3.08763 -4.078299,-4.65023 -7.72489,-9.80376 C 46.68569,121.09314 42.447885,115.54043 37.844865,110.56324 30.800655,102.94642 28.6631,98.955683 25.938616,90.624999 22.746448,80.864273 21.573978,79.306521 15.213541,67.662946 8.9055525,56.115385 3.0304159,60.158763 2.8820684,36.385415 2.7519805,15.538244 18.335164,19.212729 19.702009,19.565476 c 9.703633,2.504258 11.220337,-1.746829 15.308036,-6.260232 9.49389,-10.4826094 14.196902,-5.0224882 16.276597,-3.5435257 6.914306,4.9170657 11.042413,3.9575327 15.473403,0.2598587 4.743045,-3.9580842 8.530366,-2.4764386 12.000743,0.188988 3.833157,2.94406 4.987045,6.314816 11.811756,8.40997 4.572517,1.403741 8.961218,5.542898 10.810966,10.11234 1.36288,3.366726 3.8339,5.581162 8.08784,6.613106 4.75022,1.152333 16.79114,9.296172 17.25327,18.860161 0.21985,4.550159 3.95029,8.423471 6.69237,12.156815 12.96679,17.654291 12.65159,25.35061 16.37466,35.068753 2.74626,7.16843 9.67203,31.79847 10.423,37.66873 z"
       id="path5098"
       inkscape:connector-curvature="0"
       sodipodi:nodetypes="sssssssssssssssssssssssss" />
  </g>
</svg>
