solid OpenSCAD_Model
  facet normal 0.612346 0.353537 -0.707137
    outer loop
      vertex 13.0481 -35.4 0
      vertex 6.52406 -24.1 0
      vertex 13.6255 -35.4 0.5
    endloop
  endfacet
  facet normal -0.612346 -0.353537 -0.707137
    outer loop
      vertex -6.52406 -46.7 0
      vertex -13.6255 -35.4 0.5
      vertex -13.0481 -35.4 0
    endloop
  endfacet
  facet normal -0.612374 0.353556 -0.707104
    outer loop
      vertex -6.52406 -24.1 0
      vertex -13.6255 -35.4 0.5
      vertex -6.81273 -23.6 0.5
    endloop
  endfacet
  facet normal -0.612374 -0.353556 -0.707104
    outer loop
      vertex -6.81273 -47.2 0.5
      vertex -13.6255 -35.4 0.5
      vertex -6.52406 -46.7 0
    endloop
  endfacet
  facet normal 0.612374 0.353556 -0.707104
    outer loop
      vertex 13.6255 -35.4 0.5
      vertex 6.52406 -24.1 0
      vertex 6.81273 -23.6 0.5
    endloop
  endfacet
  facet normal 0.612346 -0.353537 -0.707137
    outer loop
      vertex 13.6255 -35.4 0.5
      vertex 6.52406 -46.7 0
      vertex 13.0481 -35.4 0
    endloop
  endfacet
  facet normal 0.612374 -0.353556 -0.707104
    outer loop
      vertex 6.81273 -47.2 0.5
      vertex 6.52406 -46.7 0
      vertex 13.6255 -35.4 0.5
    endloop
  endfacet
  facet normal -0.612346 0.353537 -0.707137
    outer loop
      vertex -13.0481 -35.4 0
      vertex -13.6255 -35.4 0.5
      vertex -6.52406 -24.1 0
    endloop
  endfacet
  facet normal 0 0.707107 -0.707107
    outer loop
      vertex 6.52406 -24.1 0
      vertex -6.81273 -23.6 0.5
      vertex 6.81273 -23.6 0.5
    endloop
  endfacet
  facet normal 0 0.707107 -0.707107
    outer loop
      vertex -6.81273 -23.6 0.5
      vertex 6.52406 -24.1 0
      vertex -6.52406 -24.1 0
    endloop
  endfacet
  facet normal 0 0 -1
    outer loop
      vertex 6.52406 -46.7 0
      vertex 12.1244 -35.4 0
      vertex 13.0481 -35.4 0
    endloop
  endfacet
  facet normal 0 0 -1
    outer loop
      vertex 6.52406 -46.7 0
      vertex 6.06218 -45.9 0
      vertex 12.1244 -35.4 0
    endloop
  endfacet
  facet normal 0 0 -1
    outer loop
      vertex 6.52406 -46.7 0
      vertex -6.06218 -45.9 0
      vertex 6.06218 -45.9 0
    endloop
  endfacet
  facet normal 0 0 -1
    outer loop
      vertex -6.52406 -46.7 0
      vertex -6.06218 -45.9 0
      vertex 6.52406 -46.7 0
    endloop
  endfacet
  facet normal 0 0 -1
    outer loop
      vertex -6.52406 -46.7 0
      vertex -12.1244 -35.4 0
      vertex -6.06218 -45.9 0
    endloop
  endfacet
  facet normal -0 -0 -1
    outer loop
      vertex -12.1244 -35.4 0
      vertex -6.52406 -46.7 0
      vertex -13.0481 -35.4 0
    endloop
  endfacet
  facet normal 0 0 -1
    outer loop
      vertex 12.1244 -35.4 0
      vertex 6.52406 -24.1 0
      vertex 13.0481 -35.4 0
    endloop
  endfacet
  facet normal 0 0 -1
    outer loop
      vertex 6.06218 -24.9 0
      vertex 6.52406 -24.1 0
      vertex 12.1244 -35.4 0
    endloop
  endfacet
  facet normal 0 0 -1
    outer loop
      vertex -6.06218 -24.9 0
      vertex 6.52406 -24.1 0
      vertex 6.06218 -24.9 0
    endloop
  endfacet
  facet normal 0 0 -1
    outer loop
      vertex -6.06218 -24.9 0
      vertex -6.52406 -24.1 0
      vertex 6.52406 -24.1 0
    endloop
  endfacet
  facet normal 0 0 -1
    outer loop
      vertex -12.1244 -35.4 0
      vertex -6.52406 -24.1 0
      vertex -6.06218 -24.9 0
    endloop
  endfacet
  facet normal 0 0 -1
    outer loop
      vertex -6.52406 -24.1 0
      vertex -12.1244 -35.4 0
      vertex -13.0481 -35.4 0
    endloop
  endfacet
  facet normal 0 -0.707107 -0.707107
    outer loop
      vertex -6.52406 -46.7 0
      vertex 6.81273 -47.2 0.5
      vertex -6.81273 -47.2 0.5
    endloop
  endfacet
  facet normal 0 -0.707107 -0.707107
    outer loop
      vertex 6.81273 -47.2 0.5
      vertex -6.52406 -46.7 0
      vertex 6.52406 -46.7 0
    endloop
  endfacet
  facet normal 0 -1 0
    outer loop
      vertex -6.81273 -47.2 0.5
      vertex 6.81273 -47.2 8
      vertex -6.81273 -47.2 8
    endloop
  endfacet
  facet normal 0 -1 -0
    outer loop
      vertex 6.81273 -47.2 8
      vertex -6.81273 -47.2 0.5
      vertex 6.81273 -47.2 0.5
    endloop
  endfacet
  facet normal 0.866024 -0.500002 0
    outer loop
      vertex 6.81273 -47.2 8
      vertex 13.6255 -35.4 0.5
      vertex 13.6255 -35.4 8
    endloop
  endfacet
  facet normal 0.866024 -0.500002 0
    outer loop
      vertex 13.6255 -35.4 0.5
      vertex 6.81273 -47.2 8
      vertex 6.81273 -47.2 0.5
    endloop
  endfacet
  facet normal 0 1 -0
    outer loop
      vertex 6.81273 -23.6 0.5
      vertex -6.81273 -23.6 8
      vertex 6.81273 -23.6 8
    endloop
  endfacet
  facet normal 0 1 0
    outer loop
      vertex -6.81273 -23.6 8
      vertex 6.81273 -23.6 0.5
      vertex -6.81273 -23.6 0.5
    endloop
  endfacet
  facet normal 0.866024 0.500002 0
    outer loop
      vertex 13.6255 -35.4 8
      vertex 6.81273 -23.6 0.5
      vertex 6.81273 -23.6 8
    endloop
  endfacet
  facet normal 0.866024 0.500002 0
    outer loop
      vertex 6.81273 -23.6 0.5
      vertex 13.6255 -35.4 8
      vertex 13.6255 -35.4 0.5
    endloop
  endfacet
  facet normal -0.866024 0.500002 0
    outer loop
      vertex -13.6255 -35.4 0.5
      vertex -6.81273 -23.6 8
      vertex -6.81273 -23.6 0.5
    endloop
  endfacet
  facet normal -0.866024 0.500002 0
    outer loop
      vertex -6.81273 -23.6 8
      vertex -13.6255 -35.4 0.5
      vertex -13.6255 -35.4 8
    endloop
  endfacet
  facet normal -0.866024 -0.500002 0
    outer loop
      vertex -6.81273 -47.2 0.5
      vertex -13.6255 -35.4 8
      vertex -13.6255 -35.4 0.5
    endloop
  endfacet
  facet normal -0.866024 -0.500002 0
    outer loop
      vertex -13.6255 -35.4 8
      vertex -6.81273 -47.2 0.5
      vertex -6.81273 -47.2 8
    endloop
  endfacet
  facet normal 0 0 1
    outer loop
      vertex 6.81273 -23.6 8
      vertex 12.7017 -35.4 8
      vertex 13.6255 -35.4 8
    endloop
  endfacet
  facet normal 0 0 1
    outer loop
      vertex 6.81273 -23.6 8
      vertex 6.35085 -24.4 8
      vertex 12.7017 -35.4 8
    endloop
  endfacet
  facet normal 0 0 1
    outer loop
      vertex 6.81273 -23.6 8
      vertex -6.35085 -24.4 8
      vertex 6.35085 -24.4 8
    endloop
  endfacet
  facet normal -0 0 1
    outer loop
      vertex -6.81273 -23.6 8
      vertex -6.35085 -24.4 8
      vertex 6.81273 -23.6 8
    endloop
  endfacet
  facet normal 0 0 1
    outer loop
      vertex -6.81273 -23.6 8
      vertex -12.7017 -35.4 8
      vertex -6.35085 -24.4 8
    endloop
  endfacet
  facet normal 0 -0 1
    outer loop
      vertex -12.7017 -35.4 8
      vertex -6.81273 -23.6 8
      vertex -13.6255 -35.4 8
    endloop
  endfacet
  facet normal -0 0 1
    outer loop
      vertex 12.7017 -35.4 8
      vertex 6.81273 -47.2 8
      vertex 13.6255 -35.4 8
    endloop
  endfacet
  facet normal -0 0 1
    outer loop
      vertex 6.35085 -46.4 8
      vertex 6.81273 -47.2 8
      vertex 12.7017 -35.4 8
    endloop
  endfacet
  facet normal -0 0 1
    outer loop
      vertex -6.35085 -46.4 8
      vertex 6.81273 -47.2 8
      vertex 6.35085 -46.4 8
    endloop
  endfacet
  facet normal 0 0 1
    outer loop
      vertex -6.35085 -46.4 8
      vertex -6.81273 -47.2 8
      vertex 6.81273 -47.2 8
    endloop
  endfacet
  facet normal 0 0 1
    outer loop
      vertex -12.7017 -35.4 8
      vertex -6.81273 -47.2 8
      vertex -6.35085 -46.4 8
    endloop
  endfacet
  facet normal 0 0 1
    outer loop
      vertex -6.81273 -47.2 8
      vertex -12.7017 -35.4 8
      vertex -13.6255 -35.4 8
    endloop
  endfacet
  facet normal 0.612346 -0.353538 -0.707137
    outer loop
      vertex -5.7735 -25.4 0.5
      vertex -11.547 -35.4 0.5
      vertex -12.1244 -35.4 0
    endloop
  endfacet
  facet normal -0.612346 -0.353538 -0.707137
    outer loop
      vertex 12.1244 -35.4 0
      vertex 11.547 -35.4 0.5
      vertex 5.7735 -25.4 0.5
    endloop
  endfacet
  facet normal -0.612368 -0.353553 -0.70711
    outer loop
      vertex 6.06218 -24.9 0
      vertex 12.1244 -35.4 0
      vertex 5.7735 -25.4 0.5
    endloop
  endfacet
  facet normal 0.612368 -0.353553 -0.70711
    outer loop
      vertex -6.06218 -24.9 0
      vertex -5.7735 -25.4 0.5
      vertex -12.1244 -35.4 0
    endloop
  endfacet
  facet normal 0.612368 0.353553 -0.70711
    outer loop
      vertex -5.7735 -45.4 0.5
      vertex -6.06218 -45.9 0
      vertex -12.1244 -35.4 0
    endloop
  endfacet
  facet normal 0 -0.707107 -0.707107
    outer loop
      vertex -6.06218 -24.9 0
      vertex 5.7735 -25.4 0.5
      vertex -5.7735 -25.4 0.5
    endloop
  endfacet
  facet normal 0 -0.707107 -0.707107
    outer loop
      vertex 5.7735 -25.4 0.5
      vertex -6.06218 -24.9 0
      vertex 6.06218 -24.9 0
    endloop
  endfacet
  facet normal 0.612346 0.353538 -0.707137
    outer loop
      vertex -11.547 -35.4 0.5
      vertex -5.7735 -45.4 0.5
      vertex -12.1244 -35.4 0
    endloop
  endfacet
  facet normal 0 0.707107 -0.707107
    outer loop
      vertex 6.06218 -45.9 0
      vertex -5.7735 -45.4 0.5
      vertex 5.7735 -45.4 0.5
    endloop
  endfacet
  facet normal 0 0.707107 -0.707107
    outer loop
      vertex -5.7735 -45.4 0.5
      vertex 6.06218 -45.9 0
      vertex -6.06218 -45.9 0
    endloop
  endfacet
  facet normal -0.612368 0.353553 -0.70711
    outer loop
      vertex 12.1244 -35.4 0
      vertex 6.06218 -45.9 0
      vertex 5.7735 -45.4 0.5
    endloop
  endfacet
  facet normal -0.612346 0.353538 -0.707137
    outer loop
      vertex 11.547 -35.4 0.5
      vertex 12.1244 -35.4 0
      vertex 5.7735 -45.4 0.5
    endloop
  endfacet
  facet normal 0 1 -0
    outer loop
      vertex 5.7735 -45.4 0.5
      vertex -5.7735 -45.4 5.1
      vertex 5.7735 -45.4 5.1
    endloop
  endfacet
  facet normal 0 1 0
    outer loop
      vertex -5.7735 -45.4 5.1
      vertex 5.7735 -45.4 0.5
      vertex -5.7735 -45.4 0.5
    endloop
  endfacet
  facet normal -0.866026 0.5 0
    outer loop
      vertex 5.7735 -45.4 0.5
      vertex 11.547 -35.4 5.1
      vertex 11.547 -35.4 0.5
    endloop
  endfacet
  facet normal -0.866026 0.5 0
    outer loop
      vertex 11.547 -35.4 5.1
      vertex 5.7735 -45.4 0.5
      vertex 5.7735 -45.4 5.1
    endloop
  endfacet
  facet normal 0 -1 0
    outer loop
      vertex -5.7735 -25.4 0.5
      vertex 5.7735 -25.4 5.1
      vertex -5.7735 -25.4 5.1
    endloop
  endfacet
  facet normal 0 -1 -0
    outer loop
      vertex 5.7735 -25.4 5.1
      vertex -5.7735 -25.4 0.5
      vertex 5.7735 -25.4 0.5
    endloop
  endfacet
  facet normal -0.866026 -0.5 0
    outer loop
      vertex 11.547 -35.4 0.5
      vertex 5.7735 -25.4 5.1
      vertex 5.7735 -25.4 0.5
    endloop
  endfacet
  facet normal -0.866026 -0.5 0
    outer loop
      vertex 5.7735 -25.4 5.1
      vertex 11.547 -35.4 0.5
      vertex 11.547 -35.4 5.1
    endloop
  endfacet
  facet normal 0.866026 -0.5 0
    outer loop
      vertex -11.547 -35.4 5.1
      vertex -5.7735 -25.4 0.5
      vertex -5.7735 -25.4 5.1
    endloop
  endfacet
  facet normal 0.866026 -0.5 0
    outer loop
      vertex -5.7735 -25.4 0.5
      vertex -11.547 -35.4 5.1
      vertex -11.547 -35.4 0.5
    endloop
  endfacet
  facet normal 0.866026 0.5 0
    outer loop
      vertex -5.7735 -45.4 5.1
      vertex -11.547 -35.4 0.5
      vertex -11.547 -35.4 5.1
    endloop
  endfacet
  facet normal 0.866026 0.5 0
    outer loop
      vertex -11.547 -35.4 0.5
      vertex -5.7735 -45.4 5.1
      vertex -5.7735 -45.4 0.5
    endloop
  endfacet
  facet normal -0.579341 -0.334482 0.743294
    outer loop
      vertex 11.547 -35.4 5.1
      vertex 12.7017 -35.4 6
      vertex 5.7735 -25.4 5.1
    endloop
  endfacet
  facet normal -0.579341 0.334482 0.743294
    outer loop
      vertex 12.7017 -35.4 6
      vertex 11.547 -35.4 5.1
      vertex 5.7735 -45.4 5.1
    endloop
  endfacet
  facet normal 0.579341 0.334482 0.743294
    outer loop
      vertex -6.35085 -46.4 6
      vertex -5.7735 -45.4 5.1
      vertex -12.7017 -35.4 6
    endloop
  endfacet
  facet normal 0.579341 -0.334482 0.743294
    outer loop
      vertex -5.7735 -25.4 5.1
      vertex -6.35085 -24.4 6
      vertex -12.7017 -35.4 6
    endloop
  endfacet
  facet normal -0.579341 -0.334482 0.743294
    outer loop
      vertex 12.7017 -35.4 6
      vertex 6.35085 -24.4 6
      vertex 5.7735 -25.4 5.1
    endloop
  endfacet
  facet normal -0.579341 0.334482 0.743294
    outer loop
      vertex 6.35085 -46.4 6
      vertex 12.7017 -35.4 6
      vertex 5.7735 -45.4 5.1
    endloop
  endfacet
  facet normal -0 0.668965 0.743294
    outer loop
      vertex -5.7735 -45.4 5.1
      vertex 6.35085 -46.4 6
      vertex 5.7735 -45.4 5.1
    endloop
  endfacet
  facet normal 0 0.668965 0.743294
    outer loop
      vertex 6.35085 -46.4 6
      vertex -5.7735 -45.4 5.1
      vertex -6.35085 -46.4 6
    endloop
  endfacet
  facet normal 0.579341 0.334482 0.743294
    outer loop
      vertex -5.7735 -45.4 5.1
      vertex -11.547 -35.4 5.1
      vertex -12.7017 -35.4 6
    endloop
  endfacet
  facet normal 0.579341 -0.334482 0.743294
    outer loop
      vertex -11.547 -35.4 5.1
      vertex -5.7735 -25.4 5.1
      vertex -12.7017 -35.4 6
    endloop
  endfacet
  facet normal 0 -0.668965 0.743294
    outer loop
      vertex 6.35085 -24.4 6
      vertex -5.7735 -25.4 5.1
      vertex 5.7735 -25.4 5.1
    endloop
  endfacet
  facet normal 0 -0.668965 0.743294
    outer loop
      vertex -5.7735 -25.4 5.1
      vertex 6.35085 -24.4 6
      vertex -6.35085 -24.4 6
    endloop
  endfacet
  facet normal 0 1 -0
    outer loop
      vertex 6.35085 -46.4 6
      vertex -6.35085 -46.4 8
      vertex 6.35085 -46.4 8
    endloop
  endfacet
  facet normal 0 1 0
    outer loop
      vertex -6.35085 -46.4 8
      vertex 6.35085 -46.4 6
      vertex -6.35085 -46.4 6
    endloop
  endfacet
  facet normal -0.866026 0.5 0
    outer loop
      vertex 6.35085 -46.4 6
      vertex 12.7017 -35.4 8
      vertex 12.7017 -35.4 6
    endloop
  endfacet
  facet normal -0.866026 0.5 0
    outer loop
      vertex 12.7017 -35.4 8
      vertex 6.35085 -46.4 6
      vertex 6.35085 -46.4 8
    endloop
  endfacet
  facet normal 0 -1 0
    outer loop
      vertex -6.35085 -24.4 6
      vertex 6.35085 -24.4 8
      vertex -6.35085 -24.4 8
    endloop
  endfacet
  facet normal 0 -1 -0
    outer loop
      vertex 6.35085 -24.4 8
      vertex -6.35085 -24.4 6
      vertex 6.35085 -24.4 6
    endloop
  endfacet
  facet normal -0.866026 -0.5 0
    outer loop
      vertex 12.7017 -35.4 6
      vertex 6.35085 -24.4 8
      vertex 6.35085 -24.4 6
    endloop
  endfacet
  facet normal -0.866026 -0.5 0
    outer loop
      vertex 6.35085 -24.4 8
      vertex 12.7017 -35.4 6
      vertex 12.7017 -35.4 8
    endloop
  endfacet
  facet normal 0.866026 -0.5 0
    outer loop
      vertex -12.7017 -35.4 8
      vertex -6.35085 -24.4 6
      vertex -6.35085 -24.4 8
    endloop
  endfacet
  facet normal 0.866026 -0.5 0
    outer loop
      vertex -6.35085 -24.4 6
      vertex -12.7017 -35.4 8
      vertex -12.7017 -35.4 6
    endloop
  endfacet
  facet normal 0.866026 0.5 0
    outer loop
      vertex -6.35085 -46.4 8
      vertex -12.7017 -35.4 6
      vertex -12.7017 -35.4 8
    endloop
  endfacet
  facet normal 0.866026 0.5 0
    outer loop
      vertex -12.7017 -35.4 6
      vertex -6.35085 -46.4 8
      vertex -6.35085 -46.4 6
    endloop
  endfacet
  facet normal 0.612346 0.353537 -0.707137
    outer loop
      vertex 13.0481 -11.8 0
      vertex 6.52406 -0.500001 0
      vertex 13.6255 -11.8 0.5
    endloop
  endfacet
  facet normal -0.612346 -0.353537 -0.707137
    outer loop
      vertex -6.52406 -23.1 0
      vertex -13.6255 -11.8 0.5
      vertex -13.0481 -11.8 0
    endloop
  endfacet
  facet normal -0.612374 0.353556 -0.707104
    outer loop
      vertex -6.52406 -0.500001 0
      vertex -13.6255 -11.8 0.5
      vertex -6.81273 -7.62939e-07 0.5
    endloop
  endfacet
  facet normal -0.612374 -0.353556 -0.707104
    outer loop
      vertex -6.81273 -23.6 0.5
      vertex -13.6255 -11.8 0.5
      vertex -6.52406 -23.1 0
    endloop
  endfacet
  facet normal 0.612374 0.353556 -0.707104
    outer loop
      vertex 13.6255 -11.8 0.5
      vertex 6.52406 -0.500001 0
      vertex 6.81273 -7.62939e-07 0.5
    endloop
  endfacet
  facet normal 0.612346 -0.353537 -0.707137
    outer loop
      vertex 13.6255 -11.8 0.5
      vertex 6.52406 -23.1 0
      vertex 13.0481 -11.8 0
    endloop
  endfacet
  facet normal 0.612374 -0.353556 -0.707104
    outer loop
      vertex 6.81273 -23.6 0.5
      vertex 6.52406 -23.1 0
      vertex 13.6255 -11.8 0.5
    endloop
  endfacet
  facet normal -0.612346 0.353537 -0.707137
    outer loop
      vertex -13.0481 -11.8 0
      vertex -13.6255 -11.8 0.5
      vertex -6.52406 -0.500001 0
    endloop
  endfacet
  facet normal 0 0.707107 -0.707107
    outer loop
      vertex 6.52406 -0.500001 0
      vertex -6.81273 -7.62939e-07 0.5
      vertex 6.81273 -7.62939e-07 0.5
    endloop
  endfacet
  facet normal 0 0.707107 -0.707107
    outer loop
      vertex -6.81273 -7.62939e-07 0.5
      vertex 6.52406 -0.500001 0
      vertex -6.52406 -0.500001 0
    endloop
  endfacet
  facet normal 0 0 -1
    outer loop
      vertex 6.52406 -23.1 0
      vertex 12.1244 -11.8 0
      vertex 13.0481 -11.8 0
    endloop
  endfacet
  facet normal 0 0 -1
    outer loop
      vertex 6.52406 -23.1 0
      vertex 6.06218 -22.3 0
      vertex 12.1244 -11.8 0
    endloop
  endfacet
  facet normal 0 0 -1
    outer loop
      vertex 6.52406 -23.1 0
      vertex -6.06218 -22.3 0
      vertex 6.06218 -22.3 0
    endloop
  endfacet
  facet normal 0 0 -1
    outer loop
      vertex -6.52406 -23.1 0
      vertex -6.06218 -22.3 0
      vertex 6.52406 -23.1 0
    endloop
  endfacet
  facet normal 0 0 -1
    outer loop
      vertex -6.52406 -23.1 0
      vertex -12.1244 -11.8 0
      vertex -6.06218 -22.3 0
    endloop
  endfacet
  facet normal -0 -0 -1
    outer loop
      vertex -12.1244 -11.8 0
      vertex -6.52406 -23.1 0
      vertex -13.0481 -11.8 0
    endloop
  endfacet
  facet normal 0 0 -1
    outer loop
      vertex 12.1244 -11.8 0
      vertex 6.52406 -0.500001 0
      vertex 13.0481 -11.8 0
    endloop
  endfacet
  facet normal 0 0 -1
    outer loop
      vertex 6.06218 -1.3 0
      vertex 6.52406 -0.500001 0
      vertex 12.1244 -11.8 0
    endloop
  endfacet
  facet normal 0 0 -1
    outer loop
      vertex -6.06218 -1.3 0
      vertex 6.52406 -0.500001 0
      vertex 6.06218 -1.3 0
    endloop
  endfacet
  facet normal 0 0 -1
    outer loop
      vertex -6.06218 -1.3 0
      vertex -6.52406 -0.500001 0
      vertex 6.52406 -0.500001 0
    endloop
  endfacet
  facet normal 0 0 -1
    outer loop
      vertex -12.1244 -11.8 0
      vertex -6.52406 -0.500001 0
      vertex -6.06218 -1.3 0
    endloop
  endfacet
  facet normal 0 0 -1
    outer loop
      vertex -6.52406 -0.500001 0
      vertex -12.1244 -11.8 0
      vertex -13.0481 -11.8 0
    endloop
  endfacet
  facet normal 0 -0.707107 -0.707107
    outer loop
      vertex -6.52406 -23.1 0
      vertex 6.81273 -23.6 0.5
      vertex -6.81273 -23.6 0.5
    endloop
  endfacet
  facet normal 0 -0.707107 -0.707107
    outer loop
      vertex 6.81273 -23.6 0.5
      vertex -6.52406 -23.1 0
      vertex 6.52406 -23.1 0
    endloop
  endfacet
  facet normal 0 -1 0
    outer loop
      vertex -6.81273 -23.6 0.5
      vertex 6.81273 -23.6 8
      vertex -6.81273 -23.6 8
    endloop
  endfacet
  facet normal 0 -1 -0
    outer loop
      vertex 6.81273 -23.6 8
      vertex -6.81273 -23.6 0.5
      vertex 6.81273 -23.6 0.5
    endloop
  endfacet
  facet normal 0.866024 -0.500002 0
    outer loop
      vertex 6.81273 -23.6 8
      vertex 13.6255 -11.8 0.5
      vertex 13.6255 -11.8 8
    endloop
  endfacet
  facet normal 0.866024 -0.500002 0
    outer loop
      vertex 13.6255 -11.8 0.5
      vertex 6.81273 -23.6 8
      vertex 6.81273 -23.6 0.5
    endloop
  endfacet
  facet normal 0 1 -0
    outer loop
      vertex 6.81273 -7.62939e-07 0.5
      vertex -6.81273 -7.62939e-07 8
      vertex 6.81273 -7.62939e-07 8
    endloop
  endfacet
  facet normal 0 1 0
    outer loop
      vertex -6.81273 -7.62939e-07 8
      vertex 6.81273 -7.62939e-07 0.5
      vertex -6.81273 -7.62939e-07 0.5
    endloop
  endfacet
  facet normal 0.866024 0.500002 0
    outer loop
      vertex 13.6255 -11.8 8
      vertex 6.81273 -7.62939e-07 0.5
      vertex 6.81273 -7.62939e-07 8
    endloop
  endfacet
  facet normal 0.866024 0.500002 0
    outer loop
      vertex 6.81273 -7.62939e-07 0.5
      vertex 13.6255 -11.8 8
      vertex 13.6255 -11.8 0.5
    endloop
  endfacet
  facet normal -0.866024 0.500002 0
    outer loop
      vertex -13.6255 -11.8 0.5
      vertex -6.81273 -7.62939e-07 8
      vertex -6.81273 -7.62939e-07 0.5
    endloop
  endfacet
  facet normal -0.866024 0.500002 0
    outer loop
      vertex -6.81273 -7.62939e-07 8
      vertex -13.6255 -11.8 0.5
      vertex -13.6255 -11.8 8
    endloop
  endfacet
  facet normal -0.866024 -0.500002 0
    outer loop
      vertex -6.81273 -23.6 0.5
      vertex -13.6255 -11.8 8
      vertex -13.6255 -11.8 0.5
    endloop
  endfacet
  facet normal -0.866024 -0.500002 0
    outer loop
      vertex -13.6255 -11.8 8
      vertex -6.81273 -23.6 0.5
      vertex -6.81273 -23.6 8
    endloop
  endfacet
  facet normal 0 0 1
    outer loop
      vertex 6.81273 -7.62939e-07 8
      vertex 12.7017 -11.8 8
      vertex 13.6255 -11.8 8
    endloop
  endfacet
  facet normal 0 0 1
    outer loop
      vertex 6.81273 -7.62939e-07 8
      vertex 6.35085 -0.8 8
      vertex 12.7017 -11.8 8
    endloop
  endfacet
  facet normal 0 0 1
    outer loop
      vertex 6.81273 -7.62939e-07 8
      vertex -6.35085 -0.8 8
      vertex 6.35085 -0.8 8
    endloop
  endfacet
  facet normal -0 0 1
    outer loop
      vertex -6.81273 -7.62939e-07 8
      vertex -6.35085 -0.8 8
      vertex 6.81273 -7.62939e-07 8
    endloop
  endfacet
  facet normal 0 0 1
    outer loop
      vertex -6.81273 -7.62939e-07 8
      vertex -12.7017 -11.8 8
      vertex -6.35085 -0.8 8
    endloop
  endfacet
  facet normal 0 -0 1
    outer loop
      vertex -12.7017 -11.8 8
      vertex -6.81273 -7.62939e-07 8
      vertex -13.6255 -11.8 8
    endloop
  endfacet
  facet normal -0 0 1
    outer loop
      vertex 12.7017 -11.8 8
      vertex 6.81273 -23.6 8
      vertex 13.6255 -11.8 8
    endloop
  endfacet
  facet normal -0 0 1
    outer loop
      vertex 6.35085 -22.8 8
      vertex 6.81273 -23.6 8
      vertex 12.7017 -11.8 8
    endloop
  endfacet
  facet normal -0 0 1
    outer loop
      vertex -6.35085 -22.8 8
      vertex 6.81273 -23.6 8
      vertex 6.35085 -22.8 8
    endloop
  endfacet
  facet normal 0 0 1
    outer loop
      vertex -6.35085 -22.8 8
      vertex -6.81273 -23.6 8
      vertex 6.81273 -23.6 8
    endloop
  endfacet
  facet normal 0 0 1
    outer loop
      vertex -12.7017 -11.8 8
      vertex -6.81273 -23.6 8
      vertex -6.35085 -22.8 8
    endloop
  endfacet
  facet normal 0 0 1
    outer loop
      vertex -6.81273 -23.6 8
      vertex -12.7017 -11.8 8
      vertex -13.6255 -11.8 8
    endloop
  endfacet
  facet normal 0.612346 -0.353538 -0.707137
    outer loop
      vertex -5.7735 -1.8 0.5
      vertex -11.547 -11.8 0.5
      vertex -12.1244 -11.8 0
    endloop
  endfacet
  facet normal -0.612346 -0.353538 -0.707137
    outer loop
      vertex 12.1244 -11.8 0
      vertex 11.547 -11.8 0.5
      vertex 5.7735 -1.8 0.5
    endloop
  endfacet
  facet normal -0.612368 -0.353553 -0.70711
    outer loop
      vertex 6.06218 -1.3 0
      vertex 12.1244 -11.8 0
      vertex 5.7735 -1.8 0.5
    endloop
  endfacet
  facet normal 0.612368 -0.353553 -0.70711
    outer loop
      vertex -6.06218 -1.3 0
      vertex -5.7735 -1.8 0.5
      vertex -12.1244 -11.8 0
    endloop
  endfacet
  facet normal 0.612368 0.353553 -0.70711
    outer loop
      vertex -5.7735 -21.8 0.5
      vertex -6.06218 -22.3 0
      vertex -12.1244 -11.8 0
    endloop
  endfacet
  facet normal 0 -0.707107 -0.707107
    outer loop
      vertex -6.06218 -1.3 0
      vertex 5.7735 -1.8 0.5
      vertex -5.7735 -1.8 0.5
    endloop
  endfacet
  facet normal 0 -0.707107 -0.707107
    outer loop
      vertex 5.7735 -1.8 0.5
      vertex -6.06218 -1.3 0
      vertex 6.06218 -1.3 0
    endloop
  endfacet
  facet normal 0.612346 0.353538 -0.707137
    outer loop
      vertex -11.547 -11.8 0.5
      vertex -5.7735 -21.8 0.5
      vertex -12.1244 -11.8 0
    endloop
  endfacet
  facet normal 0 0.707107 -0.707107
    outer loop
      vertex 6.06218 -22.3 0
      vertex -5.7735 -21.8 0.5
      vertex 5.7735 -21.8 0.5
    endloop
  endfacet
  facet normal 0 0.707107 -0.707107
    outer loop
      vertex -5.7735 -21.8 0.5
      vertex 6.06218 -22.3 0
      vertex -6.06218 -22.3 0
    endloop
  endfacet
  facet normal -0.612368 0.353553 -0.70711
    outer loop
      vertex 12.1244 -11.8 0
      vertex 6.06218 -22.3 0
      vertex 5.7735 -21.8 0.5
    endloop
  endfacet
  facet normal -0.612346 0.353538 -0.707137
    outer loop
      vertex 11.547 -11.8 0.5
      vertex 12.1244 -11.8 0
      vertex 5.7735 -21.8 0.5
    endloop
  endfacet
  facet normal 0 1 -0
    outer loop
      vertex 5.7735 -21.8 0.5
      vertex -5.7735 -21.8 5.1
      vertex 5.7735 -21.8 5.1
    endloop
  endfacet
  facet normal 0 1 0
    outer loop
      vertex -5.7735 -21.8 5.1
      vertex 5.7735 -21.8 0.5
      vertex -5.7735 -21.8 0.5
    endloop
  endfacet
  facet normal -0.866026 0.5 0
    outer loop
      vertex 5.7735 -21.8 0.5
      vertex 11.547 -11.8 5.1
      vertex 11.547 -11.8 0.5
    endloop
  endfacet
  facet normal -0.866026 0.5 0
    outer loop
      vertex 11.547 -11.8 5.1
      vertex 5.7735 -21.8 0.5
      vertex 5.7735 -21.8 5.1
    endloop
  endfacet
  facet normal 0 -1 0
    outer loop
      vertex -5.7735 -1.8 0.5
      vertex 5.7735 -1.8 5.1
      vertex -5.7735 -1.8 5.1
    endloop
  endfacet
  facet normal 0 -1 -0
    outer loop
      vertex 5.7735 -1.8 5.1
      vertex -5.7735 -1.8 0.5
      vertex 5.7735 -1.8 0.5
    endloop
  endfacet
  facet normal -0.866026 -0.5 0
    outer loop
      vertex 11.547 -11.8 0.5
      vertex 5.7735 -1.8 5.1
      vertex 5.7735 -1.8 0.5
    endloop
  endfacet
  facet normal -0.866026 -0.5 0
    outer loop
      vertex 5.7735 -1.8 5.1
      vertex 11.547 -11.8 0.5
      vertex 11.547 -11.8 5.1
    endloop
  endfacet
  facet normal 0.866026 -0.5 0
    outer loop
      vertex -11.547 -11.8 5.1
      vertex -5.7735 -1.8 0.5
      vertex -5.7735 -1.8 5.1
    endloop
  endfacet
  facet normal 0.866026 -0.5 0
    outer loop
      vertex -5.7735 -1.8 0.5
      vertex -11.547 -11.8 5.1
      vertex -11.547 -11.8 0.5
    endloop
  endfacet
  facet normal 0.866026 0.5 0
    outer loop
      vertex -5.7735 -21.8 5.1
      vertex -11.547 -11.8 0.5
      vertex -11.547 -11.8 5.1
    endloop
  endfacet
  facet normal 0.866026 0.5 0
    outer loop
      vertex -11.547 -11.8 0.5
      vertex -5.7735 -21.8 5.1
      vertex -5.7735 -21.8 0.5
    endloop
  endfacet
  facet normal -0.579341 -0.334482 0.743294
    outer loop
      vertex 11.547 -11.8 5.1
      vertex 12.7017 -11.8 6
      vertex 5.7735 -1.8 5.1
    endloop
  endfacet
  facet normal -0.579341 0.334482 0.743294
    outer loop
      vertex 12.7017 -11.8 6
      vertex 11.547 -11.8 5.1
      vertex 5.7735 -21.8 5.1
    endloop
  endfacet
  facet normal 0.579341 0.334482 0.743294
    outer loop
      vertex -6.35085 -22.8 6
      vertex -5.7735 -21.8 5.1
      vertex -12.7017 -11.8 6
    endloop
  endfacet
  facet normal 0.579341 -0.334482 0.743294
    outer loop
      vertex -5.7735 -1.8 5.1
      vertex -6.35085 -0.8 6
      vertex -12.7017 -11.8 6
    endloop
  endfacet
  facet normal -0.579341 -0.334482 0.743294
    outer loop
      vertex 12.7017 -11.8 6
      vertex 6.35085 -0.8 6
      vertex 5.7735 -1.8 5.1
    endloop
  endfacet
  facet normal -0.579341 0.334482 0.743294
    outer loop
      vertex 6.35085 -22.8 6
      vertex 12.7017 -11.8 6
      vertex 5.7735 -21.8 5.1
    endloop
  endfacet
  facet normal -0 0.668965 0.743294
    outer loop
      vertex -5.7735 -21.8 5.1
      vertex 6.35085 -22.8 6
      vertex 5.7735 -21.8 5.1
    endloop
  endfacet
  facet normal 0 0.668965 0.743294
    outer loop
      vertex 6.35085 -22.8 6
      vertex -5.7735 -21.8 5.1
      vertex -6.35085 -22.8 6
    endloop
  endfacet
  facet normal 0.579341 0.334482 0.743294
    outer loop
      vertex -5.7735 -21.8 5.1
      vertex -11.547 -11.8 5.1
      vertex -12.7017 -11.8 6
    endloop
  endfacet
  facet normal 0.579341 -0.334482 0.743294
    outer loop
      vertex -11.547 -11.8 5.1
      vertex -5.7735 -1.8 5.1
      vertex -12.7017 -11.8 6
    endloop
  endfacet
  facet normal 0 -0.668965 0.743294
    outer loop
      vertex 6.35085 -0.8 6
      vertex -5.7735 -1.8 5.1
      vertex 5.7735 -1.8 5.1
    endloop
  endfacet
  facet normal 0 -0.668965 0.743294
    outer loop
      vertex -5.7735 -1.8 5.1
      vertex 6.35085 -0.8 6
      vertex -6.35085 -0.8 6
    endloop
  endfacet
  facet normal 0 1 -0
    outer loop
      vertex 6.35085 -22.8 6
      vertex -6.35085 -22.8 8
      vertex 6.35085 -22.8 8
    endloop
  endfacet
  facet normal 0 1 0
    outer loop
      vertex -6.35085 -22.8 8
      vertex 6.35085 -22.8 6
      vertex -6.35085 -22.8 6
    endloop
  endfacet
  facet normal -0.866026 0.5 0
    outer loop
      vertex 6.35085 -22.8 6
      vertex 12.7017 -11.8 8
      vertex 12.7017 -11.8 6
    endloop
  endfacet
  facet normal -0.866026 0.5 0
    outer loop
      vertex 12.7017 -11.8 8
      vertex 6.35085 -22.8 6
      vertex 6.35085 -22.8 8
    endloop
  endfacet
  facet normal 0 -1 0
    outer loop
      vertex -6.35085 -0.8 6
      vertex 6.35085 -0.8 8
      vertex -6.35085 -0.8 8
    endloop
  endfacet
  facet normal 0 -1 -0
    outer loop
      vertex 6.35085 -0.8 8
      vertex -6.35085 -0.8 6
      vertex 6.35085 -0.8 6
    endloop
  endfacet
  facet normal -0.866026 -0.5 0
    outer loop
      vertex 12.7017 -11.8 6
      vertex 6.35085 -0.8 8
      vertex 6.35085 -0.8 6
    endloop
  endfacet
  facet normal -0.866026 -0.5 0
    outer loop
      vertex 6.35085 -0.8 8
      vertex 12.7017 -11.8 6
      vertex 12.7017 -11.8 8
    endloop
  endfacet
  facet normal 0.866026 -0.5 0
    outer loop
      vertex -12.7017 -11.8 8
      vertex -6.35085 -0.8 6
      vertex -6.35085 -0.8 8
    endloop
  endfacet
  facet normal 0.866026 -0.5 0
    outer loop
      vertex -6.35085 -0.8 6
      vertex -12.7017 -11.8 8
      vertex -12.7017 -11.8 6
    endloop
  endfacet
  facet normal 0.866026 0.5 0
    outer loop
      vertex -6.35085 -22.8 8
      vertex -12.7017 -11.8 6
      vertex -12.7017 -11.8 8
    endloop
  endfacet
  facet normal 0.866026 0.5 0
    outer loop
      vertex -12.7017 -11.8 6
      vertex -6.35085 -22.8 8
      vertex -6.35085 -22.8 6
    endloop
  endfacet
  facet normal 0.612346 0.353537 -0.707137
    outer loop
      vertex 13.0481 11.8 0
      vertex 6.52406 23.1 0
      vertex 13.6255 11.8 0.5
    endloop
  endfacet
  facet normal -0.612346 -0.353537 -0.707137
    outer loop
      vertex -6.52406 0.500001 0
      vertex -13.6255 11.8 0.5
      vertex -13.0481 11.8 0
    endloop
  endfacet
  facet normal -0.612374 0.353556 -0.707104
    outer loop
      vertex -6.52406 23.1 0
      vertex -13.6255 11.8 0.5
      vertex -6.81273 23.6 0.5
    endloop
  endfacet
  facet normal -0.612374 -0.353556 -0.707104
    outer loop
      vertex -6.81273 7.62939e-07 0.5
      vertex -13.6255 11.8 0.5
      vertex -6.52406 0.500001 0
    endloop
  endfacet
  facet normal 0.612374 0.353556 -0.707104
    outer loop
      vertex 13.6255 11.8 0.5
      vertex 6.52406 23.1 0
      vertex 6.81273 23.6 0.5
    endloop
  endfacet
  facet normal 0.612346 -0.353537 -0.707137
    outer loop
      vertex 13.6255 11.8 0.5
      vertex 6.52406 0.500001 0
      vertex 13.0481 11.8 0
    endloop
  endfacet
  facet normal 0.612374 -0.353556 -0.707104
    outer loop
      vertex 6.81273 7.62939e-07 0.5
      vertex 6.52406 0.500001 0
      vertex 13.6255 11.8 0.5
    endloop
  endfacet
  facet normal -0.612346 0.353537 -0.707137
    outer loop
      vertex -13.0481 11.8 0
      vertex -13.6255 11.8 0.5
      vertex -6.52406 23.1 0
    endloop
  endfacet
  facet normal 0 0.707107 -0.707107
    outer loop
      vertex 6.52406 23.1 0
      vertex -6.81273 23.6 0.5
      vertex 6.81273 23.6 0.5
    endloop
  endfacet
  facet normal 0 0.707107 -0.707107
    outer loop
      vertex -6.81273 23.6 0.5
      vertex 6.52406 23.1 0
      vertex -6.52406 23.1 0
    endloop
  endfacet
  facet normal 0 0 -1
    outer loop
      vertex 6.52406 0.500001 0
      vertex 12.1244 11.8 0
      vertex 13.0481 11.8 0
    endloop
  endfacet
  facet normal 0 0 -1
    outer loop
      vertex 6.52406 0.500001 0
      vertex 6.06218 1.3 0
      vertex 12.1244 11.8 0
    endloop
  endfacet
  facet normal 0 0 -1
    outer loop
      vertex 6.52406 0.500001 0
      vertex -6.06218 1.3 0
      vertex 6.06218 1.3 0
    endloop
  endfacet
  facet normal 0 0 -1
    outer loop
      vertex -6.52406 0.500001 0
      vertex -6.06218 1.3 0
      vertex 6.52406 0.500001 0
    endloop
  endfacet
  facet normal 0 0 -1
    outer loop
      vertex -6.52406 0.500001 0
      vertex -12.1244 11.8 0
      vertex -6.06218 1.3 0
    endloop
  endfacet
  facet normal -0 -0 -1
    outer loop
      vertex -12.1244 11.8 0
      vertex -6.52406 0.500001 0
      vertex -13.0481 11.8 0
    endloop
  endfacet
  facet normal 0 0 -1
    outer loop
      vertex 12.1244 11.8 0
      vertex 6.52406 23.1 0
      vertex 13.0481 11.8 0
    endloop
  endfacet
  facet normal 0 0 -1
    outer loop
      vertex 6.06218 22.3 0
      vertex 6.52406 23.1 0
      vertex 12.1244 11.8 0
    endloop
  endfacet
  facet normal 0 0 -1
    outer loop
      vertex -6.06218 22.3 0
      vertex 6.52406 23.1 0
      vertex 6.06218 22.3 0
    endloop
  endfacet
  facet normal 0 0 -1
    outer loop
      vertex -6.06218 22.3 0
      vertex -6.52406 23.1 0
      vertex 6.52406 23.1 0
    endloop
  endfacet
  facet normal 0 0 -1
    outer loop
      vertex -12.1244 11.8 0
      vertex -6.52406 23.1 0
      vertex -6.06218 22.3 0
    endloop
  endfacet
  facet normal 0 0 -1
    outer loop
      vertex -6.52406 23.1 0
      vertex -12.1244 11.8 0
      vertex -13.0481 11.8 0
    endloop
  endfacet
  facet normal 0 -0.707107 -0.707107
    outer loop
      vertex -6.52406 0.500001 0
      vertex 6.81273 7.62939e-07 0.5
      vertex -6.81273 7.62939e-07 0.5
    endloop
  endfacet
  facet normal 0 -0.707107 -0.707107
    outer loop
      vertex 6.81273 7.62939e-07 0.5
      vertex -6.52406 0.500001 0
      vertex 6.52406 0.500001 0
    endloop
  endfacet
  facet normal 0 -1 0
    outer loop
      vertex -6.81273 7.62939e-07 0.5
      vertex 6.81273 7.62939e-07 8
      vertex -6.81273 7.62939e-07 8
    endloop
  endfacet
  facet normal 0 -1 -0
    outer loop
      vertex 6.81273 7.62939e-07 8
      vertex -6.81273 7.62939e-07 0.5
      vertex 6.81273 7.62939e-07 0.5
    endloop
  endfacet
  facet normal 0.866024 -0.500002 0
    outer loop
      vertex 6.81273 7.62939e-07 8
      vertex 13.6255 11.8 0.5
      vertex 13.6255 11.8 8
    endloop
  endfacet
  facet normal 0.866024 -0.500002 0
    outer loop
      vertex 13.6255 11.8 0.5
      vertex 6.81273 7.62939e-07 8
      vertex 6.81273 7.62939e-07 0.5
    endloop
  endfacet
  facet normal 0 1 -0
    outer loop
      vertex 6.81273 23.6 0.5
      vertex -6.81273 23.6 8
      vertex 6.81273 23.6 8
    endloop
  endfacet
  facet normal 0 1 0
    outer loop
      vertex -6.81273 23.6 8
      vertex 6.81273 23.6 0.5
      vertex -6.81273 23.6 0.5
    endloop
  endfacet
  facet normal 0.866024 0.500002 0
    outer loop
      vertex 13.6255 11.8 8
      vertex 6.81273 23.6 0.5
      vertex 6.81273 23.6 8
    endloop
  endfacet
  facet normal 0.866024 0.500002 0
    outer loop
      vertex 6.81273 23.6 0.5
      vertex 13.6255 11.8 8
      vertex 13.6255 11.8 0.5
    endloop
  endfacet
  facet normal -0.866024 0.500002 0
    outer loop
      vertex -13.6255 11.8 0.5
      vertex -6.81273 23.6 8
      vertex -6.81273 23.6 0.5
    endloop
  endfacet
  facet normal -0.866024 0.500002 0
    outer loop
      vertex -6.81273 23.6 8
      vertex -13.6255 11.8 0.5
      vertex -13.6255 11.8 8
    endloop
  endfacet
  facet normal -0.866024 -0.500002 0
    outer loop
      vertex -6.81273 7.62939e-07 0.5
      vertex -13.6255 11.8 8
      vertex -13.6255 11.8 0.5
    endloop
  endfacet
  facet normal -0.866024 -0.500002 0
    outer loop
      vertex -13.6255 11.8 8
      vertex -6.81273 7.62939e-07 0.5
      vertex -6.81273 7.62939e-07 8
    endloop
  endfacet
  facet normal 0 0 1
    outer loop
      vertex 6.81273 23.6 8
      vertex 12.7017 11.8 8
      vertex 13.6255 11.8 8
    endloop
  endfacet
  facet normal 0 0 1
    outer loop
      vertex 6.81273 23.6 8
      vertex 6.35085 22.8 8
      vertex 12.7017 11.8 8
    endloop
  endfacet
  facet normal 0 0 1
    outer loop
      vertex 6.81273 23.6 8
      vertex -6.35085 22.8 8
      vertex 6.35085 22.8 8
    endloop
  endfacet
  facet normal -0 0 1
    outer loop
      vertex -6.81273 23.6 8
      vertex -6.35085 22.8 8
      vertex 6.81273 23.6 8
    endloop
  endfacet
  facet normal 0 0 1
    outer loop
      vertex -6.81273 23.6 8
      vertex -12.7017 11.8 8
      vertex -6.35085 22.8 8
    endloop
  endfacet
  facet normal 0 -0 1
    outer loop
      vertex -12.7017 11.8 8
      vertex -6.81273 23.6 8
      vertex -13.6255 11.8 8
    endloop
  endfacet
  facet normal -0 0 1
    outer loop
      vertex 12.7017 11.8 8
      vertex 6.81273 7.62939e-07 8
      vertex 13.6255 11.8 8
    endloop
  endfacet
  facet normal -0 0 1
    outer loop
      vertex 6.35085 0.8 8
      vertex 6.81273 7.62939e-07 8
      vertex 12.7017 11.8 8
    endloop
  endfacet
  facet normal -0 0 1
    outer loop
      vertex -6.35085 0.8 8
      vertex 6.81273 7.62939e-07 8
      vertex 6.35085 0.8 8
    endloop
  endfacet
  facet normal 0 0 1
    outer loop
      vertex -6.35085 0.8 8
      vertex -6.81273 7.62939e-07 8
      vertex 6.81273 7.62939e-07 8
    endloop
  endfacet
  facet normal 0 0 1
    outer loop
      vertex -12.7017 11.8 8
      vertex -6.81273 7.62939e-07 8
      vertex -6.35085 0.8 8
    endloop
  endfacet
  facet normal 0 0 1
    outer loop
      vertex -6.81273 7.62939e-07 8
      vertex -12.7017 11.8 8
      vertex -13.6255 11.8 8
    endloop
  endfacet
  facet normal 0.612346 -0.353538 -0.707137
    outer loop
      vertex -5.7735 21.8 0.5
      vertex -11.547 11.8 0.5
      vertex -12.1244 11.8 0
    endloop
  endfacet
  facet normal -0.612346 -0.353538 -0.707137
    outer loop
      vertex 12.1244 11.8 0
      vertex 11.547 11.8 0.5
      vertex 5.7735 21.8 0.5
    endloop
  endfacet
  facet normal -0.612368 -0.353553 -0.70711
    outer loop
      vertex 6.06218 22.3 0
      vertex 12.1244 11.8 0
      vertex 5.7735 21.8 0.5
    endloop
  endfacet
  facet normal 0.612368 -0.353553 -0.70711
    outer loop
      vertex -6.06218 22.3 0
      vertex -5.7735 21.8 0.5
      vertex -12.1244 11.8 0
    endloop
  endfacet
  facet normal 0.612368 0.353553 -0.70711
    outer loop
      vertex -5.7735 1.8 0.5
      vertex -6.06218 1.3 0
      vertex -12.1244 11.8 0
    endloop
  endfacet
  facet normal 0 -0.707107 -0.707107
    outer loop
      vertex -6.06218 22.3 0
      vertex 5.7735 21.8 0.5
      vertex -5.7735 21.8 0.5
    endloop
  endfacet
  facet normal 0 -0.707107 -0.707107
    outer loop
      vertex 5.7735 21.8 0.5
      vertex -6.06218 22.3 0
      vertex 6.06218 22.3 0
    endloop
  endfacet
  facet normal 0.612346 0.353538 -0.707137
    outer loop
      vertex -11.547 11.8 0.5
      vertex -5.7735 1.8 0.5
      vertex -12.1244 11.8 0
    endloop
  endfacet
  facet normal 0 0.707107 -0.707107
    outer loop
      vertex 6.06218 1.3 0
      vertex -5.7735 1.8 0.5
      vertex 5.7735 1.8 0.5
    endloop
  endfacet
  facet normal 0 0.707107 -0.707107
    outer loop
      vertex -5.7735 1.8 0.5
      vertex 6.06218 1.3 0
      vertex -6.06218 1.3 0
    endloop
  endfacet
  facet normal -0.612368 0.353553 -0.70711
    outer loop
      vertex 12.1244 11.8 0
      vertex 6.06218 1.3 0
      vertex 5.7735 1.8 0.5
    endloop
  endfacet
  facet normal -0.612346 0.353538 -0.707137
    outer loop
      vertex 11.547 11.8 0.5
      vertex 12.1244 11.8 0
      vertex 5.7735 1.8 0.5
    endloop
  endfacet
  facet normal 0 1 -0
    outer loop
      vertex 5.7735 1.8 0.5
      vertex -5.7735 1.8 5.1
      vertex 5.7735 1.8 5.1
    endloop
  endfacet
  facet normal 0 1 0
    outer loop
      vertex -5.7735 1.8 5.1
      vertex 5.7735 1.8 0.5
      vertex -5.7735 1.8 0.5
    endloop
  endfacet
  facet normal -0.866026 0.5 0
    outer loop
      vertex 5.7735 1.8 0.5
      vertex 11.547 11.8 5.1
      vertex 11.547 11.8 0.5
    endloop
  endfacet
  facet normal -0.866026 0.5 0
    outer loop
      vertex 11.547 11.8 5.1
      vertex 5.7735 1.8 0.5
      vertex 5.7735 1.8 5.1
    endloop
  endfacet
  facet normal 0 -1 0
    outer loop
      vertex -5.7735 21.8 0.5
      vertex 5.7735 21.8 5.1
      vertex -5.7735 21.8 5.1
    endloop
  endfacet
  facet normal 0 -1 -0
    outer loop
      vertex 5.7735 21.8 5.1
      vertex -5.7735 21.8 0.5
      vertex 5.7735 21.8 0.5
    endloop
  endfacet
  facet normal -0.866026 -0.5 0
    outer loop
      vertex 11.547 11.8 0.5
      vertex 5.7735 21.8 5.1
      vertex 5.7735 21.8 0.5
    endloop
  endfacet
  facet normal -0.866026 -0.5 0
    outer loop
      vertex 5.7735 21.8 5.1
      vertex 11.547 11.8 0.5
      vertex 11.547 11.8 5.1
    endloop
  endfacet
  facet normal 0.866026 -0.5 0
    outer loop
      vertex -11.547 11.8 5.1
      vertex -5.7735 21.8 0.5
      vertex -5.7735 21.8 5.1
    endloop
  endfacet
  facet normal 0.866026 -0.5 0
    outer loop
      vertex -5.7735 21.8 0.5
      vertex -11.547 11.8 5.1
      vertex -11.547 11.8 0.5
    endloop
  endfacet
  facet normal 0.866026 0.5 0
    outer loop
      vertex -5.7735 1.8 5.1
      vertex -11.547 11.8 0.5
      vertex -11.547 11.8 5.1
    endloop
  endfacet
  facet normal 0.866026 0.5 0
    outer loop
      vertex -11.547 11.8 0.5
      vertex -5.7735 1.8 5.1
      vertex -5.7735 1.8 0.5
    endloop
  endfacet
  facet normal -0.579341 -0.334482 0.743294
    outer loop
      vertex 11.547 11.8 5.1
      vertex 12.7017 11.8 6
      vertex 5.7735 21.8 5.1
    endloop
  endfacet
  facet normal -0.579341 0.334482 0.743294
    outer loop
      vertex 12.7017 11.8 6
      vertex 11.547 11.8 5.1
      vertex 5.7735 1.8 5.1
    endloop
  endfacet
  facet normal 0.579341 0.334482 0.743294
    outer loop
      vertex -6.35085 0.8 6
      vertex -5.7735 1.8 5.1
      vertex -12.7017 11.8 6
    endloop
  endfacet
  facet normal 0.579341 -0.334482 0.743294
    outer loop
      vertex -5.7735 21.8 5.1
      vertex -6.35085 22.8 6
      vertex -12.7017 11.8 6
    endloop
  endfacet
  facet normal -0.579341 -0.334482 0.743294
    outer loop
      vertex 12.7017 11.8 6
      vertex 6.35085 22.8 6
      vertex 5.7735 21.8 5.1
    endloop
  endfacet
  facet normal -0.579341 0.334482 0.743294
    outer loop
      vertex 6.35085 0.8 6
      vertex 12.7017 11.8 6
      vertex 5.7735 1.8 5.1
    endloop
  endfacet
  facet normal -0 0.668965 0.743294
    outer loop
      vertex -5.7735 1.8 5.1
      vertex 6.35085 0.8 6
      vertex 5.7735 1.8 5.1
    endloop
  endfacet
  facet normal 0 0.668965 0.743294
    outer loop
      vertex 6.35085 0.8 6
      vertex -5.7735 1.8 5.1
      vertex -6.35085 0.8 6
    endloop
  endfacet
  facet normal 0.579341 0.334482 0.743294
    outer loop
      vertex -5.7735 1.8 5.1
      vertex -11.547 11.8 5.1
      vertex -12.7017 11.8 6
    endloop
  endfacet
  facet normal 0.579341 -0.334482 0.743294
    outer loop
      vertex -11.547 11.8 5.1
      vertex -5.7735 21.8 5.1
      vertex -12.7017 11.8 6
    endloop
  endfacet
  facet normal 0 -0.668965 0.743294
    outer loop
      vertex 6.35085 22.8 6
      vertex -5.7735 21.8 5.1
      vertex 5.7735 21.8 5.1
    endloop
  endfacet
  facet normal 0 -0.668965 0.743294
    outer loop
      vertex -5.7735 21.8 5.1
      vertex 6.35085 22.8 6
      vertex -6.35085 22.8 6
    endloop
  endfacet
  facet normal 0 1 -0
    outer loop
      vertex 6.35085 0.8 6
      vertex -6.35085 0.8 8
      vertex 6.35085 0.8 8
    endloop
  endfacet
  facet normal 0 1 0
    outer loop
      vertex -6.35085 0.8 8
      vertex 6.35085 0.8 6
      vertex -6.35085 0.8 6
    endloop
  endfacet
  facet normal -0.866026 0.5 0
    outer loop
      vertex 6.35085 0.8 6
      vertex 12.7017 11.8 8
      vertex 12.7017 11.8 6
    endloop
  endfacet
  facet normal -0.866026 0.5 0
    outer loop
      vertex 12.7017 11.8 8
      vertex 6.35085 0.8 6
      vertex 6.35085 0.8 8
    endloop
  endfacet
  facet normal 0 -1 0
    outer loop
      vertex -6.35085 22.8 6
      vertex 6.35085 22.8 8
      vertex -6.35085 22.8 8
    endloop
  endfacet
  facet normal 0 -1 -0
    outer loop
      vertex 6.35085 22.8 8
      vertex -6.35085 22.8 6
      vertex 6.35085 22.8 6
    endloop
  endfacet
  facet normal -0.866026 -0.5 0
    outer loop
      vertex 12.7017 11.8 6
      vertex 6.35085 22.8 8
      vertex 6.35085 22.8 6
    endloop
  endfacet
  facet normal -0.866026 -0.5 0
    outer loop
      vertex 6.35085 22.8 8
      vertex 12.7017 11.8 6
      vertex 12.7017 11.8 8
    endloop
  endfacet
  facet normal 0.866026 -0.5 0
    outer loop
      vertex -12.7017 11.8 8
      vertex -6.35085 22.8 6
      vertex -6.35085 22.8 8
    endloop
  endfacet
  facet normal 0.866026 -0.5 0
    outer loop
      vertex -6.35085 22.8 6
      vertex -12.7017 11.8 8
      vertex -12.7017 11.8 6
    endloop
  endfacet
  facet normal 0.866026 0.5 0
    outer loop
      vertex -6.35085 0.8 8
      vertex -12.7017 11.8 6
      vertex -12.7017 11.8 8
    endloop
  endfacet
  facet normal 0.866026 0.5 0
    outer loop
      vertex -12.7017 11.8 6
      vertex -6.35085 0.8 8
      vertex -6.35085 0.8 6
    endloop
  endfacet
  facet normal 0.612346 0.353537 -0.707137
    outer loop
      vertex 13.0481 35.4 0
      vertex 6.52406 46.7 0
      vertex 13.6255 35.4 0.5
    endloop
  endfacet
  facet normal -0.612346 -0.353537 -0.707137
    outer loop
      vertex -6.52406 24.1 0
      vertex -13.6255 35.4 0.5
      vertex -13.0481 35.4 0
    endloop
  endfacet
  facet normal -0.612374 0.353556 -0.707104
    outer loop
      vertex -6.52406 46.7 0
      vertex -13.6255 35.4 0.5
      vertex -6.81273 47.2 0.5
    endloop
  endfacet
  facet normal -0.612374 -0.353556 -0.707104
    outer loop
      vertex -6.81273 23.6 0.5
      vertex -13.6255 35.4 0.5
      vertex -6.52406 24.1 0
    endloop
  endfacet
  facet normal 0.612374 0.353556 -0.707104
    outer loop
      vertex 13.6255 35.4 0.5
      vertex 6.52406 46.7 0
      vertex 6.81273 47.2 0.5
    endloop
  endfacet
  facet normal 0.612346 -0.353537 -0.707137
    outer loop
      vertex 13.6255 35.4 0.5
      vertex 6.52406 24.1 0
      vertex 13.0481 35.4 0
    endloop
  endfacet
  facet normal 0.612374 -0.353556 -0.707104
    outer loop
      vertex 6.81273 23.6 0.5
      vertex 6.52406 24.1 0
      vertex 13.6255 35.4 0.5
    endloop
  endfacet
  facet normal -0.612346 0.353537 -0.707137
    outer loop
      vertex -13.0481 35.4 0
      vertex -13.6255 35.4 0.5
      vertex -6.52406 46.7 0
    endloop
  endfacet
  facet normal 0 0.707107 -0.707107
    outer loop
      vertex 6.52406 46.7 0
      vertex -6.81273 47.2 0.5
      vertex 6.81273 47.2 0.5
    endloop
  endfacet
  facet normal 0 0.707107 -0.707107
    outer loop
      vertex -6.81273 47.2 0.5
      vertex 6.52406 46.7 0
      vertex -6.52406 46.7 0
    endloop
  endfacet
  facet normal 0 0 -1
    outer loop
      vertex 6.52406 24.1 0
      vertex 12.1244 35.4 0
      vertex 13.0481 35.4 0
    endloop
  endfacet
  facet normal 0 0 -1
    outer loop
      vertex 6.52406 24.1 0
      vertex 6.06218 24.9 0
      vertex 12.1244 35.4 0
    endloop
  endfacet
  facet normal 0 0 -1
    outer loop
      vertex 6.52406 24.1 0
      vertex -6.06218 24.9 0
      vertex 6.06218 24.9 0
    endloop
  endfacet
  facet normal 0 0 -1
    outer loop
      vertex -6.52406 24.1 0
      vertex -6.06218 24.9 0
      vertex 6.52406 24.1 0
    endloop
  endfacet
  facet normal 0 0 -1
    outer loop
      vertex -6.52406 24.1 0
      vertex -12.1244 35.4 0
      vertex -6.06218 24.9 0
    endloop
  endfacet
  facet normal -0 -0 -1
    outer loop
      vertex -12.1244 35.4 0
      vertex -6.52406 24.1 0
      vertex -13.0481 35.4 0
    endloop
  endfacet
  facet normal 0 0 -1
    outer loop
      vertex 12.1244 35.4 0
      vertex 6.52406 46.7 0
      vertex 13.0481 35.4 0
    endloop
  endfacet
  facet normal 0 0 -1
    outer loop
      vertex 6.06218 45.9 0
      vertex 6.52406 46.7 0
      vertex 12.1244 35.4 0
    endloop
  endfacet
  facet normal 0 0 -1
    outer loop
      vertex -6.06218 45.9 0
      vertex 6.52406 46.7 0
      vertex 6.06218 45.9 0
    endloop
  endfacet
  facet normal 0 0 -1
    outer loop
      vertex -6.06218 45.9 0
      vertex -6.52406 46.7 0
      vertex 6.52406 46.7 0
    endloop
  endfacet
  facet normal 0 0 -1
    outer loop
      vertex -12.1244 35.4 0
      vertex -6.52406 46.7 0
      vertex -6.06218 45.9 0
    endloop
  endfacet
  facet normal 0 0 -1
    outer loop
      vertex -6.52406 46.7 0
      vertex -12.1244 35.4 0
      vertex -13.0481 35.4 0
    endloop
  endfacet
  facet normal 0 -0.707107 -0.707107
    outer loop
      vertex -6.52406 24.1 0
      vertex 6.81273 23.6 0.5
      vertex -6.81273 23.6 0.5
    endloop
  endfacet
  facet normal 0 -0.707107 -0.707107
    outer loop
      vertex 6.81273 23.6 0.5
      vertex -6.52406 24.1 0
      vertex 6.52406 24.1 0
    endloop
  endfacet
  facet normal 0 -1 0
    outer loop
      vertex -6.81273 23.6 0.5
      vertex 6.81273 23.6 8
      vertex -6.81273 23.6 8
    endloop
  endfacet
  facet normal 0 -1 -0
    outer loop
      vertex 6.81273 23.6 8
      vertex -6.81273 23.6 0.5
      vertex 6.81273 23.6 0.5
    endloop
  endfacet
  facet normal 0.866024 -0.500002 0
    outer loop
      vertex 6.81273 23.6 8
      vertex 13.6255 35.4 0.5
      vertex 13.6255 35.4 8
    endloop
  endfacet
  facet normal 0.866024 -0.500002 0
    outer loop
      vertex 13.6255 35.4 0.5
      vertex 6.81273 23.6 8
      vertex 6.81273 23.6 0.5
    endloop
  endfacet
  facet normal 0 1 -0
    outer loop
      vertex 6.81273 47.2 0.5
      vertex -6.81273 47.2 8
      vertex 6.81273 47.2 8
    endloop
  endfacet
  facet normal 0 1 0
    outer loop
      vertex -6.81273 47.2 8
      vertex 6.81273 47.2 0.5
      vertex -6.81273 47.2 0.5
    endloop
  endfacet
  facet normal 0.866024 0.500002 0
    outer loop
      vertex 13.6255 35.4 8
      vertex 6.81273 47.2 0.5
      vertex 6.81273 47.2 8
    endloop
  endfacet
  facet normal 0.866024 0.500002 0
    outer loop
      vertex 6.81273 47.2 0.5
      vertex 13.6255 35.4 8
      vertex 13.6255 35.4 0.5
    endloop
  endfacet
  facet normal -0.866024 0.500002 0
    outer loop
      vertex -13.6255 35.4 0.5
      vertex -6.81273 47.2 8
      vertex -6.81273 47.2 0.5
    endloop
  endfacet
  facet normal -0.866024 0.500002 0
    outer loop
      vertex -6.81273 47.2 8
      vertex -13.6255 35.4 0.5
      vertex -13.6255 35.4 8
    endloop
  endfacet
  facet normal -0.866024 -0.500002 0
    outer loop
      vertex -6.81273 23.6 0.5
      vertex -13.6255 35.4 8
      vertex -13.6255 35.4 0.5
    endloop
  endfacet
  facet normal -0.866024 -0.500002 0
    outer loop
      vertex -13.6255 35.4 8
      vertex -6.81273 23.6 0.5
      vertex -6.81273 23.6 8
    endloop
  endfacet
  facet normal 0 0 1
    outer loop
      vertex 6.81273 47.2 8
      vertex 12.7017 35.4 8
      vertex 13.6255 35.4 8
    endloop
  endfacet
  facet normal 0 0 1
    outer loop
      vertex 6.81273 47.2 8
      vertex 6.35085 46.4 8
      vertex 12.7017 35.4 8
    endloop
  endfacet
  facet normal 0 0 1
    outer loop
      vertex 6.81273 47.2 8
      vertex -6.35085 46.4 8
      vertex 6.35085 46.4 8
    endloop
  endfacet
  facet normal -0 0 1
    outer loop
      vertex -6.81273 47.2 8
      vertex -6.35085 46.4 8
      vertex 6.81273 47.2 8
    endloop
  endfacet
  facet normal 0 0 1
    outer loop
      vertex -6.81273 47.2 8
      vertex -12.7017 35.4 8
      vertex -6.35085 46.4 8
    endloop
  endfacet
  facet normal 0 -0 1
    outer loop
      vertex -12.7017 35.4 8
      vertex -6.81273 47.2 8
      vertex -13.6255 35.4 8
    endloop
  endfacet
  facet normal -0 0 1
    outer loop
      vertex 12.7017 35.4 8
      vertex 6.81273 23.6 8
      vertex 13.6255 35.4 8
    endloop
  endfacet
  facet normal -0 0 1
    outer loop
      vertex 6.35085 24.4 8
      vertex 6.81273 23.6 8
      vertex 12.7017 35.4 8
    endloop
  endfacet
  facet normal -0 0 1
    outer loop
      vertex -6.35085 24.4 8
      vertex 6.81273 23.6 8
      vertex 6.35085 24.4 8
    endloop
  endfacet
  facet normal 0 0 1
    outer loop
      vertex -6.35085 24.4 8
      vertex -6.81273 23.6 8
      vertex 6.81273 23.6 8
    endloop
  endfacet
  facet normal 0 0 1
    outer loop
      vertex -12.7017 35.4 8
      vertex -6.81273 23.6 8
      vertex -6.35085 24.4 8
    endloop
  endfacet
  facet normal 0 0 1
    outer loop
      vertex -6.81273 23.6 8
      vertex -12.7017 35.4 8
      vertex -13.6255 35.4 8
    endloop
  endfacet
  facet normal 0.612346 -0.353538 -0.707137
    outer loop
      vertex -5.7735 45.4 0.5
      vertex -11.547 35.4 0.5
      vertex -12.1244 35.4 0
    endloop
  endfacet
  facet normal -0.612346 -0.353538 -0.707137
    outer loop
      vertex 12.1244 35.4 0
      vertex 11.547 35.4 0.5
      vertex 5.7735 45.4 0.5
    endloop
  endfacet
  facet normal -0.612368 -0.353553 -0.70711
    outer loop
      vertex 6.06218 45.9 0
      vertex 12.1244 35.4 0
      vertex 5.7735 45.4 0.5
    endloop
  endfacet
  facet normal 0.612368 -0.353553 -0.70711
    outer loop
      vertex -6.06218 45.9 0
      vertex -5.7735 45.4 0.5
      vertex -12.1244 35.4 0
    endloop
  endfacet
  facet normal 0.612368 0.353553 -0.70711
    outer loop
      vertex -5.7735 25.4 0.5
      vertex -6.06218 24.9 0
      vertex -12.1244 35.4 0
    endloop
  endfacet
  facet normal 0 -0.707107 -0.707107
    outer loop
      vertex -6.06218 45.9 0
      vertex 5.7735 45.4 0.5
      vertex -5.7735 45.4 0.5
    endloop
  endfacet
  facet normal 0 -0.707107 -0.707107
    outer loop
      vertex 5.7735 45.4 0.5
      vertex -6.06218 45.9 0
      vertex 6.06218 45.9 0
    endloop
  endfacet
  facet normal 0.612346 0.353538 -0.707137
    outer loop
      vertex -11.547 35.4 0.5
      vertex -5.7735 25.4 0.5
      vertex -12.1244 35.4 0
    endloop
  endfacet
  facet normal 0 0.707107 -0.707107
    outer loop
      vertex 6.06218 24.9 0
      vertex -5.7735 25.4 0.5
      vertex 5.7735 25.4 0.5
    endloop
  endfacet
  facet normal 0 0.707107 -0.707107
    outer loop
      vertex -5.7735 25.4 0.5
      vertex 6.06218 24.9 0
      vertex -6.06218 24.9 0
    endloop
  endfacet
  facet normal -0.612368 0.353553 -0.70711
    outer loop
      vertex 12.1244 35.4 0
      vertex 6.06218 24.9 0
      vertex 5.7735 25.4 0.5
    endloop
  endfacet
  facet normal -0.612346 0.353538 -0.707137
    outer loop
      vertex 11.547 35.4 0.5
      vertex 12.1244 35.4 0
      vertex 5.7735 25.4 0.5
    endloop
  endfacet
  facet normal 0 1 -0
    outer loop
      vertex 5.7735 25.4 0.5
      vertex -5.7735 25.4 5.1
      vertex 5.7735 25.4 5.1
    endloop
  endfacet
  facet normal 0 1 0
    outer loop
      vertex -5.7735 25.4 5.1
      vertex 5.7735 25.4 0.5
      vertex -5.7735 25.4 0.5
    endloop
  endfacet
  facet normal -0.866026 0.5 0
    outer loop
      vertex 5.7735 25.4 0.5
      vertex 11.547 35.4 5.1
      vertex 11.547 35.4 0.5
    endloop
  endfacet
  facet normal -0.866026 0.5 0
    outer loop
      vertex 11.547 35.4 5.1
      vertex 5.7735 25.4 0.5
      vertex 5.7735 25.4 5.1
    endloop
  endfacet
  facet normal 0 -1 0
    outer loop
      vertex -5.7735 45.4 0.5
      vertex 5.7735 45.4 5.1
      vertex -5.7735 45.4 5.1
    endloop
  endfacet
  facet normal 0 -1 -0
    outer loop
      vertex 5.7735 45.4 5.1
      vertex -5.7735 45.4 0.5
      vertex 5.7735 45.4 0.5
    endloop
  endfacet
  facet normal -0.866026 -0.5 0
    outer loop
      vertex 11.547 35.4 0.5
      vertex 5.7735 45.4 5.1
      vertex 5.7735 45.4 0.5
    endloop
  endfacet
  facet normal -0.866026 -0.5 0
    outer loop
      vertex 5.7735 45.4 5.1
      vertex 11.547 35.4 0.5
      vertex 11.547 35.4 5.1
    endloop
  endfacet
  facet normal 0.866026 -0.5 0
    outer loop
      vertex -11.547 35.4 5.1
      vertex -5.7735 45.4 0.5
      vertex -5.7735 45.4 5.1
    endloop
  endfacet
  facet normal 0.866026 -0.5 0
    outer loop
      vertex -5.7735 45.4 0.5
      vertex -11.547 35.4 5.1
      vertex -11.547 35.4 0.5
    endloop
  endfacet
  facet normal 0.866026 0.5 0
    outer loop
      vertex -5.7735 25.4 5.1
      vertex -11.547 35.4 0.5
      vertex -11.547 35.4 5.1
    endloop
  endfacet
  facet normal 0.866026 0.5 0
    outer loop
      vertex -11.547 35.4 0.5
      vertex -5.7735 25.4 5.1
      vertex -5.7735 25.4 0.5
    endloop
  endfacet
  facet normal -0.579341 -0.334482 0.743294
    outer loop
      vertex 11.547 35.4 5.1
      vertex 12.7017 35.4 6
      vertex 5.7735 45.4 5.1
    endloop
  endfacet
  facet normal -0.579341 0.334482 0.743294
    outer loop
      vertex 12.7017 35.4 6
      vertex 11.547 35.4 5.1
      vertex 5.7735 25.4 5.1
    endloop
  endfacet
  facet normal 0.579341 0.334482 0.743294
    outer loop
      vertex -6.35085 24.4 6
      vertex -5.7735 25.4 5.1
      vertex -12.7017 35.4 6
    endloop
  endfacet
  facet normal 0.579341 -0.334482 0.743294
    outer loop
      vertex -5.7735 45.4 5.1
      vertex -6.35085 46.4 6
      vertex -12.7017 35.4 6
    endloop
  endfacet
  facet normal -0.579341 -0.334482 0.743294
    outer loop
      vertex 12.7017 35.4 6
      vertex 6.35085 46.4 6
      vertex 5.7735 45.4 5.1
    endloop
  endfacet
  facet normal -0.579341 0.334482 0.743294
    outer loop
      vertex 6.35085 24.4 6
      vertex 12.7017 35.4 6
      vertex 5.7735 25.4 5.1
    endloop
  endfacet
  facet normal -0 0.668965 0.743294
    outer loop
      vertex -5.7735 25.4 5.1
      vertex 6.35085 24.4 6
      vertex 5.7735 25.4 5.1
    endloop
  endfacet
  facet normal 0 0.668965 0.743294
    outer loop
      vertex 6.35085 24.4 6
      vertex -5.7735 25.4 5.1
      vertex -6.35085 24.4 6
    endloop
  endfacet
  facet normal 0.579341 0.334482 0.743294
    outer loop
      vertex -5.7735 25.4 5.1
      vertex -11.547 35.4 5.1
      vertex -12.7017 35.4 6
    endloop
  endfacet
  facet normal 0.579341 -0.334482 0.743294
    outer loop
      vertex -11.547 35.4 5.1
      vertex -5.7735 45.4 5.1
      vertex -12.7017 35.4 6
    endloop
  endfacet
  facet normal 0 -0.668965 0.743294
    outer loop
      vertex 6.35085 46.4 6
      vertex -5.7735 45.4 5.1
      vertex 5.7735 45.4 5.1
    endloop
  endfacet
  facet normal 0 -0.668965 0.743294
    outer loop
      vertex -5.7735 45.4 5.1
      vertex 6.35085 46.4 6
      vertex -6.35085 46.4 6
    endloop
  endfacet
  facet normal 0 1 -0
    outer loop
      vertex 6.35085 24.4 6
      vertex -6.35085 24.4 8
      vertex 6.35085 24.4 8
    endloop
  endfacet
  facet normal 0 1 0
    outer loop
      vertex -6.35085 24.4 8
      vertex 6.35085 24.4 6
      vertex -6.35085 24.4 6
    endloop
  endfacet
  facet normal -0.866026 0.5 0
    outer loop
      vertex 6.35085 24.4 6
      vertex 12.7017 35.4 8
      vertex 12.7017 35.4 6
    endloop
  endfacet
  facet normal -0.866026 0.5 0
    outer loop
      vertex 12.7017 35.4 8
      vertex 6.35085 24.4 6
      vertex 6.35085 24.4 8
    endloop
  endfacet
  facet normal 0 -1 0
    outer loop
      vertex -6.35085 46.4 6
      vertex 6.35085 46.4 8
      vertex -6.35085 46.4 8
    endloop
  endfacet
  facet normal 0 -1 -0
    outer loop
      vertex 6.35085 46.4 8
      vertex -6.35085 46.4 6
      vertex 6.35085 46.4 6
    endloop
  endfacet
  facet normal -0.866026 -0.5 0
    outer loop
      vertex 12.7017 35.4 6
      vertex 6.35085 46.4 8
      vertex 6.35085 46.4 6
    endloop
  endfacet
  facet normal -0.866026 -0.5 0
    outer loop
      vertex 6.35085 46.4 8
      vertex 12.7017 35.4 6
      vertex 12.7017 35.4 8
    endloop
  endfacet
  facet normal 0.866026 -0.5 0
    outer loop
      vertex -12.7017 35.4 8
      vertex -6.35085 46.4 6
      vertex -6.35085 46.4 8
    endloop
  endfacet
  facet normal 0.866026 -0.5 0
    outer loop
      vertex -6.35085 46.4 6
      vertex -12.7017 35.4 8
      vertex -12.7017 35.4 6
    endloop
  endfacet
  facet normal 0.866026 0.5 0
    outer loop
      vertex -6.35085 24.4 8
      vertex -12.7017 35.4 6
      vertex -12.7017 35.4 8
    endloop
  endfacet
  facet normal 0.866026 0.5 0
    outer loop
      vertex -12.7017 35.4 6
      vertex -6.35085 24.4 8
      vertex -6.35085 24.4 6
    endloop
  endfacet
endsolid OpenSCAD_Model
