solid OpenSCAD_Model
  facet normal 0.612346 0.353537 -0.707137
    outer loop
      vertex 13.0481 -47.2 0
      vertex 6.52406 -35.9 0
      vertex 13.6255 -47.2 0.5
    endloop
  endfacet
  facet normal -0.612346 -0.353537 -0.707137
    outer loop
      vertex -6.52406 -58.5 0
      vertex -13.6255 -47.2 0.5
      vertex -13.0481 -47.2 0
    endloop
  endfacet
  facet normal -0.612374 0.353556 -0.707104
    outer loop
      vertex -6.52406 -35.9 0
      vertex -13.6255 -47.2 0.5
      vertex -6.81273 -35.4 0.5
    endloop
  endfacet
  facet normal -0.612374 -0.353556 -0.707104
    outer loop
      vertex -6.81273 -59 0.5
      vertex -13.6255 -47.2 0.5
      vertex -6.52406 -58.5 0
    endloop
  endfacet
  facet normal 0.612374 0.353556 -0.707104
    outer loop
      vertex 13.6255 -47.2 0.5
      vertex 6.52406 -35.9 0
      vertex 6.81273 -35.4 0.5
    endloop
  endfacet
  facet normal 0.612346 -0.353537 -0.707137
    outer loop
      vertex 13.6255 -47.2 0.5
      vertex 6.52406 -58.5 0
      vertex 13.0481 -47.2 0
    endloop
  endfacet
  facet normal 0.612374 -0.353556 -0.707104
    outer loop
      vertex 6.81273 -59 0.5
      vertex 6.52406 -58.5 0
      vertex 13.6255 -47.2 0.5
    endloop
  endfacet
  facet normal -0.612346 0.353537 -0.707137
    outer loop
      vertex -13.0481 -47.2 0
      vertex -13.6255 -47.2 0.5
      vertex -6.52406 -35.9 0
    endloop
  endfacet
  facet normal 0 0.707107 -0.707107
    outer loop
      vertex 6.52406 -35.9 0
      vertex -6.81273 -35.4 0.5
      vertex 6.81273 -35.4 0.5
    endloop
  endfacet
  facet normal 0 0.707107 -0.707107
    outer loop
      vertex -6.81273 -35.4 0.5
      vertex 6.52406 -35.9 0
      vertex -6.52406 -35.9 0
    endloop
  endfacet
  facet normal 0 0 -1
    outer loop
      vertex 6.52406 -58.5 0
      vertex 12.1244 -47.2 0
      vertex 13.0481 -47.2 0
    endloop
  endfacet
  facet normal 0 0 -1
    outer loop
      vertex 6.52406 -58.5 0
      vertex 6.06218 -57.7 0
      vertex 12.1244 -47.2 0
    endloop
  endfacet
  facet normal 0 0 -1
    outer loop
      vertex 6.52406 -58.5 0
      vertex -6.06218 -57.7 0
      vertex 6.06218 -57.7 0
    endloop
  endfacet
  facet normal 0 0 -1
    outer loop
      vertex -6.52406 -58.5 0
      vertex -6.06218 -57.7 0
      vertex 6.52406 -58.5 0
    endloop
  endfacet
  facet normal 0 0 -1
    outer loop
      vertex -6.52406 -58.5 0
      vertex -12.1244 -47.2 0
      vertex -6.06218 -57.7 0
    endloop
  endfacet
  facet normal -0 -0 -1
    outer loop
      vertex -12.1244 -47.2 0
      vertex -6.52406 -58.5 0
      vertex -13.0481 -47.2 0
    endloop
  endfacet
  facet normal 0 0 -1
    outer loop
      vertex 12.1244 -47.2 0
      vertex 6.52406 -35.9 0
      vertex 13.0481 -47.2 0
    endloop
  endfacet
  facet normal 0 0 -1
    outer loop
      vertex 6.06218 -36.7 0
      vertex 6.52406 -35.9 0
      vertex 12.1244 -47.2 0
    endloop
  endfacet
  facet normal 0 0 -1
    outer loop
      vertex -6.06218 -36.7 0
      vertex 6.52406 -35.9 0
      vertex 6.06218 -36.7 0
    endloop
  endfacet
  facet normal 0 0 -1
    outer loop
      vertex -6.06218 -36.7 0
      vertex -6.52406 -35.9 0
      vertex 6.52406 -35.9 0
    endloop
  endfacet
  facet normal 0 0 -1
    outer loop
      vertex -12.1244 -47.2 0
      vertex -6.52406 -35.9 0
      vertex -6.06218 -36.7 0
    endloop
  endfacet
  facet normal 0 0 -1
    outer loop
      vertex -6.52406 -35.9 0
      vertex -12.1244 -47.2 0
      vertex -13.0481 -47.2 0
    endloop
  endfacet
  facet normal 0 -0.707107 -0.707107
    outer loop
      vertex -6.52406 -58.5 0
      vertex 6.81273 -59 0.5
      vertex -6.81273 -59 0.5
    endloop
  endfacet
  facet normal 0 -0.707107 -0.707107
    outer loop
      vertex 6.81273 -59 0.5
      vertex -6.52406 -58.5 0
      vertex 6.52406 -58.5 0
    endloop
  endfacet
  facet normal 0 -1 0
    outer loop
      vertex -6.81273 -59 0.5
      vertex 6.81273 -59 8
      vertex -6.81273 -59 8
    endloop
  endfacet
  facet normal 0 -1 -0
    outer loop
      vertex 6.81273 -59 8
      vertex -6.81273 -59 0.5
      vertex 6.81273 -59 0.5
    endloop
  endfacet
  facet normal 0.866024 -0.500002 0
    outer loop
      vertex 6.81273 -59 8
      vertex 13.6255 -47.2 0.5
      vertex 13.6255 -47.2 8
    endloop
  endfacet
  facet normal 0.866024 -0.500002 0
    outer loop
      vertex 13.6255 -47.2 0.5
      vertex 6.81273 -59 8
      vertex 6.81273 -59 0.5
    endloop
  endfacet
  facet normal 0 1 -0
    outer loop
      vertex 6.81273 -35.4 0.5
      vertex -6.81273 -35.4 8
      vertex 6.81273 -35.4 8
    endloop
  endfacet
  facet normal 0 1 0
    outer loop
      vertex -6.81273 -35.4 8
      vertex 6.81273 -35.4 0.5
      vertex -6.81273 -35.4 0.5
    endloop
  endfacet
  facet normal 0.866024 0.500002 0
    outer loop
      vertex 13.6255 -47.2 8
      vertex 6.81273 -35.4 0.5
      vertex 6.81273 -35.4 8
    endloop
  endfacet
  facet normal 0.866024 0.500002 0
    outer loop
      vertex 6.81273 -35.4 0.5
      vertex 13.6255 -47.2 8
      vertex 13.6255 -47.2 0.5
    endloop
  endfacet
  facet normal -0.866024 0.500002 0
    outer loop
      vertex -13.6255 -47.2 0.5
      vertex -6.81273 -35.4 8
      vertex -6.81273 -35.4 0.5
    endloop
  endfacet
  facet normal -0.866024 0.500002 0
    outer loop
      vertex -6.81273 -35.4 8
      vertex -13.6255 -47.2 0.5
      vertex -13.6255 -47.2 8
    endloop
  endfacet
  facet normal -0.866024 -0.500002 0
    outer loop
      vertex -6.81273 -59 0.5
      vertex -13.6255 -47.2 8
      vertex -13.6255 -47.2 0.5
    endloop
  endfacet
  facet normal -0.866024 -0.500002 0
    outer loop
      vertex -13.6255 -47.2 8
      vertex -6.81273 -59 0.5
      vertex -6.81273 -59 8
    endloop
  endfacet
  facet normal 0 0 1
    outer loop
      vertex 6.81273 -35.4 8
      vertex 12.7017 -47.2 8
      vertex 13.6255 -47.2 8
    endloop
  endfacet
  facet normal 0 0 1
    outer loop
      vertex 6.81273 -35.4 8
      vertex 6.35085 -36.2 8
      vertex 12.7017 -47.2 8
    endloop
  endfacet
  facet normal 0 0 1
    outer loop
      vertex 6.81273 -35.4 8
      vertex -6.35085 -36.2 8
      vertex 6.35085 -36.2 8
    endloop
  endfacet
  facet normal -0 0 1
    outer loop
      vertex -6.81273 -35.4 8
      vertex -6.35085 -36.2 8
      vertex 6.81273 -35.4 8
    endloop
  endfacet
  facet normal 0 0 1
    outer loop
      vertex -6.81273 -35.4 8
      vertex -12.7017 -47.2 8
      vertex -6.35085 -36.2 8
    endloop
  endfacet
  facet normal 0 -0 1
    outer loop
      vertex -12.7017 -47.2 8
      vertex -6.81273 -35.4 8
      vertex -13.6255 -47.2 8
    endloop
  endfacet
  facet normal -0 0 1
    outer loop
      vertex 12.7017 -47.2 8
      vertex 6.81273 -59 8
      vertex 13.6255 -47.2 8
    endloop
  endfacet
  facet normal -0 0 1
    outer loop
      vertex 6.35085 -58.2 8
      vertex 6.81273 -59 8
      vertex 12.7017 -47.2 8
    endloop
  endfacet
  facet normal -0 0 1
    outer loop
      vertex -6.35085 -58.2 8
      vertex 6.81273 -59 8
      vertex 6.35085 -58.2 8
    endloop
  endfacet
  facet normal 0 0 1
    outer loop
      vertex -6.35085 -58.2 8
      vertex -6.81273 -59 8
      vertex 6.81273 -59 8
    endloop
  endfacet
  facet normal 0 0 1
    outer loop
      vertex -12.7017 -47.2 8
      vertex -6.81273 -59 8
      vertex -6.35085 -58.2 8
    endloop
  endfacet
  facet normal 0 0 1
    outer loop
      vertex -6.81273 -59 8
      vertex -12.7017 -47.2 8
      vertex -13.6255 -47.2 8
    endloop
  endfacet
  facet normal 0.612346 -0.353538 -0.707137
    outer loop
      vertex -5.7735 -37.2 0.5
      vertex -11.547 -47.2 0.5
      vertex -12.1244 -47.2 0
    endloop
  endfacet
  facet normal -0.612346 -0.353538 -0.707137
    outer loop
      vertex 12.1244 -47.2 0
      vertex 11.547 -47.2 0.5
      vertex 5.7735 -37.2 0.5
    endloop
  endfacet
  facet normal -0.612368 -0.353553 -0.70711
    outer loop
      vertex 6.06218 -36.7 0
      vertex 12.1244 -47.2 0
      vertex 5.7735 -37.2 0.5
    endloop
  endfacet
  facet normal 0.612368 -0.353553 -0.70711
    outer loop
      vertex -6.06218 -36.7 0
      vertex -5.7735 -37.2 0.5
      vertex -12.1244 -47.2 0
    endloop
  endfacet
  facet normal 0.612368 0.353553 -0.70711
    outer loop
      vertex -5.7735 -57.2 0.5
      vertex -6.06218 -57.7 0
      vertex -12.1244 -47.2 0
    endloop
  endfacet
  facet normal 0 -0.707107 -0.707107
    outer loop
      vertex -6.06218 -36.7 0
      vertex 5.7735 -37.2 0.5
      vertex -5.7735 -37.2 0.5
    endloop
  endfacet
  facet normal 0 -0.707107 -0.707107
    outer loop
      vertex 5.7735 -37.2 0.5
      vertex -6.06218 -36.7 0
      vertex 6.06218 -36.7 0
    endloop
  endfacet
  facet normal 0.612346 0.353538 -0.707137
    outer loop
      vertex -11.547 -47.2 0.5
      vertex -5.7735 -57.2 0.5
      vertex -12.1244 -47.2 0
    endloop
  endfacet
  facet normal 0 0.707107 -0.707107
    outer loop
      vertex 6.06218 -57.7 0
      vertex -5.7735 -57.2 0.5
      vertex 5.7735 -57.2 0.5
    endloop
  endfacet
  facet normal 0 0.707107 -0.707107
    outer loop
      vertex -5.7735 -57.2 0.5
      vertex 6.06218 -57.7 0
      vertex -6.06218 -57.7 0
    endloop
  endfacet
  facet normal -0.612368 0.353553 -0.70711
    outer loop
      vertex 12.1244 -47.2 0
      vertex 6.06218 -57.7 0
      vertex 5.7735 -57.2 0.5
    endloop
  endfacet
  facet normal -0.612346 0.353538 -0.707137
    outer loop
      vertex 11.547 -47.2 0.5
      vertex 12.1244 -47.2 0
      vertex 5.7735 -57.2 0.5
    endloop
  endfacet
  facet normal 0 1 -0
    outer loop
      vertex 5.7735 -57.2 0.5
      vertex -5.7735 -57.2 5.1
      vertex 5.7735 -57.2 5.1
    endloop
  endfacet
  facet normal 0 1 0
    outer loop
      vertex -5.7735 -57.2 5.1
      vertex 5.7735 -57.2 0.5
      vertex -5.7735 -57.2 0.5
    endloop
  endfacet
  facet normal -0.866026 0.5 0
    outer loop
      vertex 5.7735 -57.2 0.5
      vertex 11.547 -47.2 5.1
      vertex 11.547 -47.2 0.5
    endloop
  endfacet
  facet normal -0.866026 0.5 0
    outer loop
      vertex 11.547 -47.2 5.1
      vertex 5.7735 -57.2 0.5
      vertex 5.7735 -57.2 5.1
    endloop
  endfacet
  facet normal 0 -1 0
    outer loop
      vertex -5.7735 -37.2 0.5
      vertex 5.7735 -37.2 5.1
      vertex -5.7735 -37.2 5.1
    endloop
  endfacet
  facet normal 0 -1 -0
    outer loop
      vertex 5.7735 -37.2 5.1
      vertex -5.7735 -37.2 0.5
      vertex 5.7735 -37.2 0.5
    endloop
  endfacet
  facet normal -0.866026 -0.5 0
    outer loop
      vertex 11.547 -47.2 0.5
      vertex 5.7735 -37.2 5.1
      vertex 5.7735 -37.2 0.5
    endloop
  endfacet
  facet normal -0.866026 -0.5 0
    outer loop
      vertex 5.7735 -37.2 5.1
      vertex 11.547 -47.2 0.5
      vertex 11.547 -47.2 5.1
    endloop
  endfacet
  facet normal 0.866026 -0.5 0
    outer loop
      vertex -11.547 -47.2 5.1
      vertex -5.7735 -37.2 0.5
      vertex -5.7735 -37.2 5.1
    endloop
  endfacet
  facet normal 0.866026 -0.5 0
    outer loop
      vertex -5.7735 -37.2 0.5
      vertex -11.547 -47.2 5.1
      vertex -11.547 -47.2 0.5
    endloop
  endfacet
  facet normal 0.866026 0.5 0
    outer loop
      vertex -5.7735 -57.2 5.1
      vertex -11.547 -47.2 0.5
      vertex -11.547 -47.2 5.1
    endloop
  endfacet
  facet normal 0.866026 0.5 0
    outer loop
      vertex -11.547 -47.2 0.5
      vertex -5.7735 -57.2 5.1
      vertex -5.7735 -57.2 0.5
    endloop
  endfacet
  facet normal -0.579341 -0.334482 0.743294
    outer loop
      vertex 11.547 -47.2 5.1
      vertex 12.7017 -47.2 6
      vertex 5.7735 -37.2 5.1
    endloop
  endfacet
  facet normal -0.579341 0.334482 0.743294
    outer loop
      vertex 12.7017 -47.2 6
      vertex 11.547 -47.2 5.1
      vertex 5.7735 -57.2 5.1
    endloop
  endfacet
  facet normal 0.579341 0.334482 0.743294
    outer loop
      vertex -6.35085 -58.2 6
      vertex -5.7735 -57.2 5.1
      vertex -12.7017 -47.2 6
    endloop
  endfacet
  facet normal 0.579341 -0.334482 0.743294
    outer loop
      vertex -5.7735 -37.2 5.1
      vertex -6.35085 -36.2 6
      vertex -12.7017 -47.2 6
    endloop
  endfacet
  facet normal -0.579341 -0.334482 0.743294
    outer loop
      vertex 12.7017 -47.2 6
      vertex 6.35085 -36.2 6
      vertex 5.7735 -37.2 5.1
    endloop
  endfacet
  facet normal -0.579341 0.334482 0.743294
    outer loop
      vertex 6.35085 -58.2 6
      vertex 12.7017 -47.2 6
      vertex 5.7735 -57.2 5.1
    endloop
  endfacet
  facet normal -0 0.668965 0.743294
    outer loop
      vertex -5.7735 -57.2 5.1
      vertex 6.35085 -58.2 6
      vertex 5.7735 -57.2 5.1
    endloop
  endfacet
  facet normal 0 0.668965 0.743294
    outer loop
      vertex 6.35085 -58.2 6
      vertex -5.7735 -57.2 5.1
      vertex -6.35085 -58.2 6
    endloop
  endfacet
  facet normal 0.579341 0.334482 0.743294
    outer loop
      vertex -5.7735 -57.2 5.1
      vertex -11.547 -47.2 5.1
      vertex -12.7017 -47.2 6
    endloop
  endfacet
  facet normal 0.579341 -0.334482 0.743294
    outer loop
      vertex -11.547 -47.2 5.1
      vertex -5.7735 -37.2 5.1
      vertex -12.7017 -47.2 6
    endloop
  endfacet
  facet normal 0 -0.668965 0.743294
    outer loop
      vertex 6.35085 -36.2 6
      vertex -5.7735 -37.2 5.1
      vertex 5.7735 -37.2 5.1
    endloop
  endfacet
  facet normal 0 -0.668965 0.743294
    outer loop
      vertex -5.7735 -37.2 5.1
      vertex 6.35085 -36.2 6
      vertex -6.35085 -36.2 6
    endloop
  endfacet
  facet normal 0 1 -0
    outer loop
      vertex 6.35085 -58.2 6
      vertex -6.35085 -58.2 8
      vertex 6.35085 -58.2 8
    endloop
  endfacet
  facet normal 0 1 0
    outer loop
      vertex -6.35085 -58.2 8
      vertex 6.35085 -58.2 6
      vertex -6.35085 -58.2 6
    endloop
  endfacet
  facet normal -0.866026 0.5 0
    outer loop
      vertex 6.35085 -58.2 6
      vertex 12.7017 -47.2 8
      vertex 12.7017 -47.2 6
    endloop
  endfacet
  facet normal -0.866026 0.5 0
    outer loop
      vertex 12.7017 -47.2 8
      vertex 6.35085 -58.2 6
      vertex 6.35085 -58.2 8
    endloop
  endfacet
  facet normal 0 -1 0
    outer loop
      vertex -6.35085 -36.2 6
      vertex 6.35085 -36.2 8
      vertex -6.35085 -36.2 8
    endloop
  endfacet
  facet normal 0 -1 -0
    outer loop
      vertex 6.35085 -36.2 8
      vertex -6.35085 -36.2 6
      vertex 6.35085 -36.2 6
    endloop
  endfacet
  facet normal -0.866026 -0.5 0
    outer loop
      vertex 12.7017 -47.2 6
      vertex 6.35085 -36.2 8
      vertex 6.35085 -36.2 6
    endloop
  endfacet
  facet normal -0.866026 -0.5 0
    outer loop
      vertex 6.35085 -36.2 8
      vertex 12.7017 -47.2 6
      vertex 12.7017 -47.2 8
    endloop
  endfacet
  facet normal 0.866026 -0.5 0
    outer loop
      vertex -12.7017 -47.2 8
      vertex -6.35085 -36.2 6
      vertex -6.35085 -36.2 8
    endloop
  endfacet
  facet normal 0.866026 -0.5 0
    outer loop
      vertex -6.35085 -36.2 6
      vertex -12.7017 -47.2 8
      vertex -12.7017 -47.2 6
    endloop
  endfacet
  facet normal 0.866026 0.5 0
    outer loop
      vertex -6.35085 -58.2 8
      vertex -12.7017 -47.2 6
      vertex -12.7017 -47.2 8
    endloop
  endfacet
  facet normal 0.866026 0.5 0
    outer loop
      vertex -12.7017 -47.2 6
      vertex -6.35085 -58.2 8
      vertex -6.35085 -58.2 6
    endloop
  endfacet
  facet normal 0.612346 0.353537 -0.707137
    outer loop
      vertex 13.0481 -23.6 0
      vertex 6.52406 -12.3 0
      vertex 13.6255 -23.6 0.5
    endloop
  endfacet
  facet normal -0.612346 -0.353537 -0.707137
    outer loop
      vertex -6.52406 -34.9 0
      vertex -13.6255 -23.6 0.5
      vertex -13.0481 -23.6 0
    endloop
  endfacet
  facet normal -0.612374 0.353556 -0.707104
    outer loop
      vertex -6.52406 -12.3 0
      vertex -13.6255 -23.6 0.5
      vertex -6.81273 -11.8 0.5
    endloop
  endfacet
  facet normal -0.612374 -0.353556 -0.707104
    outer loop
      vertex -6.81273 -35.4 0.5
      vertex -13.6255 -23.6 0.5
      vertex -6.52406 -34.9 0
    endloop
  endfacet
  facet normal 0.612374 0.353556 -0.707104
    outer loop
      vertex 13.6255 -23.6 0.5
      vertex 6.52406 -12.3 0
      vertex 6.81273 -11.8 0.5
    endloop
  endfacet
  facet normal 0.612346 -0.353537 -0.707137
    outer loop
      vertex 13.6255 -23.6 0.5
      vertex 6.52406 -34.9 0
      vertex 13.0481 -23.6 0
    endloop
  endfacet
  facet normal 0.612374 -0.353556 -0.707104
    outer loop
      vertex 6.81273 -35.4 0.5
      vertex 6.52406 -34.9 0
      vertex 13.6255 -23.6 0.5
    endloop
  endfacet
  facet normal -0.612346 0.353537 -0.707137
    outer loop
      vertex -13.0481 -23.6 0
      vertex -13.6255 -23.6 0.5
      vertex -6.52406 -12.3 0
    endloop
  endfacet
  facet normal 0 0.707107 -0.707107
    outer loop
      vertex 6.52406 -12.3 0
      vertex -6.81273 -11.8 0.5
      vertex 6.81273 -11.8 0.5
    endloop
  endfacet
  facet normal 0 0.707107 -0.707107
    outer loop
      vertex -6.81273 -11.8 0.5
      vertex 6.52406 -12.3 0
      vertex -6.52406 -12.3 0
    endloop
  endfacet
  facet normal 0 0 -1
    outer loop
      vertex 6.52406 -34.9 0
      vertex 12.1244 -23.6 0
      vertex 13.0481 -23.6 0
    endloop
  endfacet
  facet normal 0 0 -1
    outer loop
      vertex 6.52406 -34.9 0
      vertex 6.06218 -34.1 0
      vertex 12.1244 -23.6 0
    endloop
  endfacet
  facet normal 0 0 -1
    outer loop
      vertex 6.52406 -34.9 0
      vertex -6.06218 -34.1 0
      vertex 6.06218 -34.1 0
    endloop
  endfacet
  facet normal 0 0 -1
    outer loop
      vertex -6.52406 -34.9 0
      vertex -6.06218 -34.1 0
      vertex 6.52406 -34.9 0
    endloop
  endfacet
  facet normal 0 0 -1
    outer loop
      vertex -6.52406 -34.9 0
      vertex -12.1244 -23.6 0
      vertex -6.06218 -34.1 0
    endloop
  endfacet
  facet normal -0 -0 -1
    outer loop
      vertex -12.1244 -23.6 0
      vertex -6.52406 -34.9 0
      vertex -13.0481 -23.6 0
    endloop
  endfacet
  facet normal 0 0 -1
    outer loop
      vertex 12.1244 -23.6 0
      vertex 6.52406 -12.3 0
      vertex 13.0481 -23.6 0
    endloop
  endfacet
  facet normal 0 0 -1
    outer loop
      vertex 6.06218 -13.1 0
      vertex 6.52406 -12.3 0
      vertex 12.1244 -23.6 0
    endloop
  endfacet
  facet normal 0 0 -1
    outer loop
      vertex -6.06218 -13.1 0
      vertex 6.52406 -12.3 0
      vertex 6.06218 -13.1 0
    endloop
  endfacet
  facet normal 0 0 -1
    outer loop
      vertex -6.06218 -13.1 0
      vertex -6.52406 -12.3 0
      vertex 6.52406 -12.3 0
    endloop
  endfacet
  facet normal 0 0 -1
    outer loop
      vertex -12.1244 -23.6 0
      vertex -6.52406 -12.3 0
      vertex -6.06218 -13.1 0
    endloop
  endfacet
  facet normal 0 0 -1
    outer loop
      vertex -6.52406 -12.3 0
      vertex -12.1244 -23.6 0
      vertex -13.0481 -23.6 0
    endloop
  endfacet
  facet normal 0 -0.707107 -0.707107
    outer loop
      vertex -6.52406 -34.9 0
      vertex 6.81273 -35.4 0.5
      vertex -6.81273 -35.4 0.5
    endloop
  endfacet
  facet normal 0 -0.707107 -0.707107
    outer loop
      vertex 6.81273 -35.4 0.5
      vertex -6.52406 -34.9 0
      vertex 6.52406 -34.9 0
    endloop
  endfacet
  facet normal 0 -1 0
    outer loop
      vertex -6.81273 -35.4 0.5
      vertex 6.81273 -35.4 8
      vertex -6.81273 -35.4 8
    endloop
  endfacet
  facet normal 0 -1 -0
    outer loop
      vertex 6.81273 -35.4 8
      vertex -6.81273 -35.4 0.5
      vertex 6.81273 -35.4 0.5
    endloop
  endfacet
  facet normal 0.866024 -0.500002 0
    outer loop
      vertex 6.81273 -35.4 8
      vertex 13.6255 -23.6 0.5
      vertex 13.6255 -23.6 8
    endloop
  endfacet
  facet normal 0.866024 -0.500002 0
    outer loop
      vertex 13.6255 -23.6 0.5
      vertex 6.81273 -35.4 8
      vertex 6.81273 -35.4 0.5
    endloop
  endfacet
  facet normal 0 1 -0
    outer loop
      vertex 6.81273 -11.8 0.5
      vertex -6.81273 -11.8 8
      vertex 6.81273 -11.8 8
    endloop
  endfacet
  facet normal 0 1 0
    outer loop
      vertex -6.81273 -11.8 8
      vertex 6.81273 -11.8 0.5
      vertex -6.81273 -11.8 0.5
    endloop
  endfacet
  facet normal 0.866024 0.500002 0
    outer loop
      vertex 13.6255 -23.6 8
      vertex 6.81273 -11.8 0.5
      vertex 6.81273 -11.8 8
    endloop
  endfacet
  facet normal 0.866024 0.500002 0
    outer loop
      vertex 6.81273 -11.8 0.5
      vertex 13.6255 -23.6 8
      vertex 13.6255 -23.6 0.5
    endloop
  endfacet
  facet normal -0.866024 0.500002 0
    outer loop
      vertex -13.6255 -23.6 0.5
      vertex -6.81273 -11.8 8
      vertex -6.81273 -11.8 0.5
    endloop
  endfacet
  facet normal -0.866024 0.500002 0
    outer loop
      vertex -6.81273 -11.8 8
      vertex -13.6255 -23.6 0.5
      vertex -13.6255 -23.6 8
    endloop
  endfacet
  facet normal -0.866024 -0.500002 0
    outer loop
      vertex -6.81273 -35.4 0.5
      vertex -13.6255 -23.6 8
      vertex -13.6255 -23.6 0.5
    endloop
  endfacet
  facet normal -0.866024 -0.500002 0
    outer loop
      vertex -13.6255 -23.6 8
      vertex -6.81273 -35.4 0.5
      vertex -6.81273 -35.4 8
    endloop
  endfacet
  facet normal 0 0 1
    outer loop
      vertex 6.81273 -11.8 8
      vertex 12.7017 -23.6 8
      vertex 13.6255 -23.6 8
    endloop
  endfacet
  facet normal 0 0 1
    outer loop
      vertex 6.81273 -11.8 8
      vertex 6.35085 -12.6 8
      vertex 12.7017 -23.6 8
    endloop
  endfacet
  facet normal 0 0 1
    outer loop
      vertex 6.81273 -11.8 8
      vertex -6.35085 -12.6 8
      vertex 6.35085 -12.6 8
    endloop
  endfacet
  facet normal -0 0 1
    outer loop
      vertex -6.81273 -11.8 8
      vertex -6.35085 -12.6 8
      vertex 6.81273 -11.8 8
    endloop
  endfacet
  facet normal 0 0 1
    outer loop
      vertex -6.81273 -11.8 8
      vertex -12.7017 -23.6 8
      vertex -6.35085 -12.6 8
    endloop
  endfacet
  facet normal 0 -0 1
    outer loop
      vertex -12.7017 -23.6 8
      vertex -6.81273 -11.8 8
      vertex -13.6255 -23.6 8
    endloop
  endfacet
  facet normal -0 0 1
    outer loop
      vertex 12.7017 -23.6 8
      vertex 6.81273 -35.4 8
      vertex 13.6255 -23.6 8
    endloop
  endfacet
  facet normal -0 0 1
    outer loop
      vertex 6.35085 -34.6 8
      vertex 6.81273 -35.4 8
      vertex 12.7017 -23.6 8
    endloop
  endfacet
  facet normal -0 0 1
    outer loop
      vertex -6.35085 -34.6 8
      vertex 6.81273 -35.4 8
      vertex 6.35085 -34.6 8
    endloop
  endfacet
  facet normal 0 0 1
    outer loop
      vertex -6.35085 -34.6 8
      vertex -6.81273 -35.4 8
      vertex 6.81273 -35.4 8
    endloop
  endfacet
  facet normal 0 0 1
    outer loop
      vertex -12.7017 -23.6 8
      vertex -6.81273 -35.4 8
      vertex -6.35085 -34.6 8
    endloop
  endfacet
  facet normal 0 0 1
    outer loop
      vertex -6.81273 -35.4 8
      vertex -12.7017 -23.6 8
      vertex -13.6255 -23.6 8
    endloop
  endfacet
  facet normal 0.612346 -0.353538 -0.707137
    outer loop
      vertex -5.7735 -13.6 0.5
      vertex -11.547 -23.6 0.5
      vertex -12.1244 -23.6 0
    endloop
  endfacet
  facet normal -0.612346 -0.353538 -0.707137
    outer loop
      vertex 12.1244 -23.6 0
      vertex 11.547 -23.6 0.5
      vertex 5.7735 -13.6 0.5
    endloop
  endfacet
  facet normal -0.612368 -0.353553 -0.70711
    outer loop
      vertex 6.06218 -13.1 0
      vertex 12.1244 -23.6 0
      vertex 5.7735 -13.6 0.5
    endloop
  endfacet
  facet normal 0.612368 -0.353553 -0.70711
    outer loop
      vertex -6.06218 -13.1 0
      vertex -5.7735 -13.6 0.5
      vertex -12.1244 -23.6 0
    endloop
  endfacet
  facet normal 0.612368 0.353553 -0.70711
    outer loop
      vertex -5.7735 -33.6 0.5
      vertex -6.06218 -34.1 0
      vertex -12.1244 -23.6 0
    endloop
  endfacet
  facet normal 0 -0.707107 -0.707107
    outer loop
      vertex -6.06218 -13.1 0
      vertex 5.7735 -13.6 0.5
      vertex -5.7735 -13.6 0.5
    endloop
  endfacet
  facet normal 0 -0.707107 -0.707107
    outer loop
      vertex 5.7735 -13.6 0.5
      vertex -6.06218 -13.1 0
      vertex 6.06218 -13.1 0
    endloop
  endfacet
  facet normal 0.612346 0.353538 -0.707137
    outer loop
      vertex -11.547 -23.6 0.5
      vertex -5.7735 -33.6 0.5
      vertex -12.1244 -23.6 0
    endloop
  endfacet
  facet normal 0 0.707107 -0.707107
    outer loop
      vertex 6.06218 -34.1 0
      vertex -5.7735 -33.6 0.5
      vertex 5.7735 -33.6 0.5
    endloop
  endfacet
  facet normal 0 0.707107 -0.707107
    outer loop
      vertex -5.7735 -33.6 0.5
      vertex 6.06218 -34.1 0
      vertex -6.06218 -34.1 0
    endloop
  endfacet
  facet normal -0.612368 0.353553 -0.70711
    outer loop
      vertex 12.1244 -23.6 0
      vertex 6.06218 -34.1 0
      vertex 5.7735 -33.6 0.5
    endloop
  endfacet
  facet normal -0.612346 0.353538 -0.707137
    outer loop
      vertex 11.547 -23.6 0.5
      vertex 12.1244 -23.6 0
      vertex 5.7735 -33.6 0.5
    endloop
  endfacet
  facet normal 0 1 -0
    outer loop
      vertex 5.7735 -33.6 0.5
      vertex -5.7735 -33.6 5.1
      vertex 5.7735 -33.6 5.1
    endloop
  endfacet
  facet normal 0 1 0
    outer loop
      vertex -5.7735 -33.6 5.1
      vertex 5.7735 -33.6 0.5
      vertex -5.7735 -33.6 0.5
    endloop
  endfacet
  facet normal -0.866026 0.5 0
    outer loop
      vertex 5.7735 -33.6 0.5
      vertex 11.547 -23.6 5.1
      vertex 11.547 -23.6 0.5
    endloop
  endfacet
  facet normal -0.866026 0.5 0
    outer loop
      vertex 11.547 -23.6 5.1
      vertex 5.7735 -33.6 0.5
      vertex 5.7735 -33.6 5.1
    endloop
  endfacet
  facet normal 0 -1 0
    outer loop
      vertex -5.7735 -13.6 0.5
      vertex 5.7735 -13.6 5.1
      vertex -5.7735 -13.6 5.1
    endloop
  endfacet
  facet normal 0 -1 -0
    outer loop
      vertex 5.7735 -13.6 5.1
      vertex -5.7735 -13.6 0.5
      vertex 5.7735 -13.6 0.5
    endloop
  endfacet
  facet normal -0.866026 -0.5 0
    outer loop
      vertex 11.547 -23.6 0.5
      vertex 5.7735 -13.6 5.1
      vertex 5.7735 -13.6 0.5
    endloop
  endfacet
  facet normal -0.866026 -0.5 0
    outer loop
      vertex 5.7735 -13.6 5.1
      vertex 11.547 -23.6 0.5
      vertex 11.547 -23.6 5.1
    endloop
  endfacet
  facet normal 0.866026 -0.5 0
    outer loop
      vertex -11.547 -23.6 5.1
      vertex -5.7735 -13.6 0.5
      vertex -5.7735 -13.6 5.1
    endloop
  endfacet
  facet normal 0.866026 -0.5 0
    outer loop
      vertex -5.7735 -13.6 0.5
      vertex -11.547 -23.6 5.1
      vertex -11.547 -23.6 0.5
    endloop
  endfacet
  facet normal 0.866026 0.5 0
    outer loop
      vertex -5.7735 -33.6 5.1
      vertex -11.547 -23.6 0.5
      vertex -11.547 -23.6 5.1
    endloop
  endfacet
  facet normal 0.866026 0.5 0
    outer loop
      vertex -11.547 -23.6 0.5
      vertex -5.7735 -33.6 5.1
      vertex -5.7735 -33.6 0.5
    endloop
  endfacet
  facet normal -0.579341 -0.334482 0.743294
    outer loop
      vertex 11.547 -23.6 5.1
      vertex 12.7017 -23.6 6
      vertex 5.7735 -13.6 5.1
    endloop
  endfacet
  facet normal -0.579341 0.334482 0.743294
    outer loop
      vertex 12.7017 -23.6 6
      vertex 11.547 -23.6 5.1
      vertex 5.7735 -33.6 5.1
    endloop
  endfacet
  facet normal 0.579341 0.334482 0.743294
    outer loop
      vertex -6.35085 -34.6 6
      vertex -5.7735 -33.6 5.1
      vertex -12.7017 -23.6 6
    endloop
  endfacet
  facet normal 0.579341 -0.334482 0.743294
    outer loop
      vertex -5.7735 -13.6 5.1
      vertex -6.35085 -12.6 6
      vertex -12.7017 -23.6 6
    endloop
  endfacet
  facet normal -0.579341 -0.334482 0.743294
    outer loop
      vertex 12.7017 -23.6 6
      vertex 6.35085 -12.6 6
      vertex 5.7735 -13.6 5.1
    endloop
  endfacet
  facet normal -0.579341 0.334482 0.743294
    outer loop
      vertex 6.35085 -34.6 6
      vertex 12.7017 -23.6 6
      vertex 5.7735 -33.6 5.1
    endloop
  endfacet
  facet normal -0 0.668965 0.743294
    outer loop
      vertex -5.7735 -33.6 5.1
      vertex 6.35085 -34.6 6
      vertex 5.7735 -33.6 5.1
    endloop
  endfacet
  facet normal 0 0.668965 0.743294
    outer loop
      vertex 6.35085 -34.6 6
      vertex -5.7735 -33.6 5.1
      vertex -6.35085 -34.6 6
    endloop
  endfacet
  facet normal 0.579341 0.334482 0.743294
    outer loop
      vertex -5.7735 -33.6 5.1
      vertex -11.547 -23.6 5.1
      vertex -12.7017 -23.6 6
    endloop
  endfacet
  facet normal 0.579341 -0.334482 0.743294
    outer loop
      vertex -11.547 -23.6 5.1
      vertex -5.7735 -13.6 5.1
      vertex -12.7017 -23.6 6
    endloop
  endfacet
  facet normal 0 -0.668965 0.743294
    outer loop
      vertex 6.35085 -12.6 6
      vertex -5.7735 -13.6 5.1
      vertex 5.7735 -13.6 5.1
    endloop
  endfacet
  facet normal 0 -0.668965 0.743294
    outer loop
      vertex -5.7735 -13.6 5.1
      vertex 6.35085 -12.6 6
      vertex -6.35085 -12.6 6
    endloop
  endfacet
  facet normal 0 1 -0
    outer loop
      vertex 6.35085 -34.6 6
      vertex -6.35085 -34.6 8
      vertex 6.35085 -34.6 8
    endloop
  endfacet
  facet normal 0 1 0
    outer loop
      vertex -6.35085 -34.6 8
      vertex 6.35085 -34.6 6
      vertex -6.35085 -34.6 6
    endloop
  endfacet
  facet normal -0.866026 0.5 0
    outer loop
      vertex 6.35085 -34.6 6
      vertex 12.7017 -23.6 8
      vertex 12.7017 -23.6 6
    endloop
  endfacet
  facet normal -0.866026 0.5 0
    outer loop
      vertex 12.7017 -23.6 8
      vertex 6.35085 -34.6 6
      vertex 6.35085 -34.6 8
    endloop
  endfacet
  facet normal 0 -1 0
    outer loop
      vertex -6.35085 -12.6 6
      vertex 6.35085 -12.6 8
      vertex -6.35085 -12.6 8
    endloop
  endfacet
  facet normal 0 -1 -0
    outer loop
      vertex 6.35085 -12.6 8
      vertex -6.35085 -12.6 6
      vertex 6.35085 -12.6 6
    endloop
  endfacet
  facet normal -0.866026 -0.5 0
    outer loop
      vertex 12.7017 -23.6 6
      vertex 6.35085 -12.6 8
      vertex 6.35085 -12.6 6
    endloop
  endfacet
  facet normal -0.866026 -0.5 0
    outer loop
      vertex 6.35085 -12.6 8
      vertex 12.7017 -23.6 6
      vertex 12.7017 -23.6 8
    endloop
  endfacet
  facet normal 0.866026 -0.5 0
    outer loop
      vertex -12.7017 -23.6 8
      vertex -6.35085 -12.6 6
      vertex -6.35085 -12.6 8
    endloop
  endfacet
  facet normal 0.866026 -0.5 0
    outer loop
      vertex -6.35085 -12.6 6
      vertex -12.7017 -23.6 8
      vertex -12.7017 -23.6 6
    endloop
  endfacet
  facet normal 0.866026 0.5 0
    outer loop
      vertex -6.35085 -34.6 8
      vertex -12.7017 -23.6 6
      vertex -12.7017 -23.6 8
    endloop
  endfacet
  facet normal 0.866026 0.5 0
    outer loop
      vertex -12.7017 -23.6 6
      vertex -6.35085 -34.6 8
      vertex -6.35085 -34.6 6
    endloop
  endfacet
  facet normal 0.612346 0.353537 -0.707137
    outer loop
      vertex 13.0481 0 0
      vertex 6.52406 11.3 0
      vertex 13.6255 0 0.5
    endloop
  endfacet
  facet normal -0.612346 -0.353537 -0.707137
    outer loop
      vertex -6.52406 -11.3 0
      vertex -13.6255 0 0.5
      vertex -13.0481 0 0
    endloop
  endfacet
  facet normal -0.612374 0.353556 -0.707104
    outer loop
      vertex -6.52406 11.3 0
      vertex -13.6255 0 0.5
      vertex -6.81273 11.8 0.5
    endloop
  endfacet
  facet normal -0.612374 -0.353556 -0.707104
    outer loop
      vertex -6.81273 -11.8 0.5
      vertex -13.6255 0 0.5
      vertex -6.52406 -11.3 0
    endloop
  endfacet
  facet normal 0.612374 0.353556 -0.707104
    outer loop
      vertex 13.6255 0 0.5
      vertex 6.52406 11.3 0
      vertex 6.81273 11.8 0.5
    endloop
  endfacet
  facet normal 0.612346 -0.353537 -0.707137
    outer loop
      vertex 13.6255 0 0.5
      vertex 6.52406 -11.3 0
      vertex 13.0481 0 0
    endloop
  endfacet
  facet normal 0.612374 -0.353556 -0.707104
    outer loop
      vertex 6.81273 -11.8 0.5
      vertex 6.52406 -11.3 0
      vertex 13.6255 0 0.5
    endloop
  endfacet
  facet normal -0.612346 0.353537 -0.707137
    outer loop
      vertex -13.0481 0 0
      vertex -13.6255 0 0.5
      vertex -6.52406 11.3 0
    endloop
  endfacet
  facet normal 0 0.707107 -0.707107
    outer loop
      vertex 6.52406 11.3 0
      vertex -6.81273 11.8 0.5
      vertex 6.81273 11.8 0.5
    endloop
  endfacet
  facet normal 0 0.707107 -0.707107
    outer loop
      vertex -6.81273 11.8 0.5
      vertex 6.52406 11.3 0
      vertex -6.52406 11.3 0
    endloop
  endfacet
  facet normal 0 0 -1
    outer loop
      vertex 6.52406 -11.3 0
      vertex 12.1244 0 0
      vertex 13.0481 0 0
    endloop
  endfacet
  facet normal 0 0 -1
    outer loop
      vertex 6.52406 -11.3 0
      vertex 6.06218 -10.5 0
      vertex 12.1244 0 0
    endloop
  endfacet
  facet normal 0 0 -1
    outer loop
      vertex 6.52406 -11.3 0
      vertex -6.06218 -10.5 0
      vertex 6.06218 -10.5 0
    endloop
  endfacet
  facet normal 0 0 -1
    outer loop
      vertex -6.52406 -11.3 0
      vertex -6.06218 -10.5 0
      vertex 6.52406 -11.3 0
    endloop
  endfacet
  facet normal 0 0 -1
    outer loop
      vertex -6.52406 -11.3 0
      vertex -12.1244 0 0
      vertex -6.06218 -10.5 0
    endloop
  endfacet
  facet normal -0 -0 -1
    outer loop
      vertex -12.1244 0 0
      vertex -6.52406 -11.3 0
      vertex -13.0481 0 0
    endloop
  endfacet
  facet normal 0 0 -1
    outer loop
      vertex 12.1244 0 0
      vertex 6.52406 11.3 0
      vertex 13.0481 0 0
    endloop
  endfacet
  facet normal 0 0 -1
    outer loop
      vertex 6.06218 10.5 0
      vertex 6.52406 11.3 0
      vertex 12.1244 0 0
    endloop
  endfacet
  facet normal 0 0 -1
    outer loop
      vertex -6.06218 10.5 0
      vertex 6.52406 11.3 0
      vertex 6.06218 10.5 0
    endloop
  endfacet
  facet normal 0 0 -1
    outer loop
      vertex -6.06218 10.5 0
      vertex -6.52406 11.3 0
      vertex 6.52406 11.3 0
    endloop
  endfacet
  facet normal 0 0 -1
    outer loop
      vertex -12.1244 0 0
      vertex -6.52406 11.3 0
      vertex -6.06218 10.5 0
    endloop
  endfacet
  facet normal 0 0 -1
    outer loop
      vertex -6.52406 11.3 0
      vertex -12.1244 0 0
      vertex -13.0481 0 0
    endloop
  endfacet
  facet normal 0 -0.707107 -0.707107
    outer loop
      vertex -6.52406 -11.3 0
      vertex 6.81273 -11.8 0.5
      vertex -6.81273 -11.8 0.5
    endloop
  endfacet
  facet normal 0 -0.707107 -0.707107
    outer loop
      vertex 6.81273 -11.8 0.5
      vertex -6.52406 -11.3 0
      vertex 6.52406 -11.3 0
    endloop
  endfacet
  facet normal 0 -1 0
    outer loop
      vertex -6.81273 -11.8 0.5
      vertex 6.81273 -11.8 8
      vertex -6.81273 -11.8 8
    endloop
  endfacet
  facet normal 0 -1 -0
    outer loop
      vertex 6.81273 -11.8 8
      vertex -6.81273 -11.8 0.5
      vertex 6.81273 -11.8 0.5
    endloop
  endfacet
  facet normal 0.866024 -0.500002 0
    outer loop
      vertex 6.81273 -11.8 8
      vertex 13.6255 0 0.5
      vertex 13.6255 0 8
    endloop
  endfacet
  facet normal 0.866024 -0.500002 0
    outer loop
      vertex 13.6255 0 0.5
      vertex 6.81273 -11.8 8
      vertex 6.81273 -11.8 0.5
    endloop
  endfacet
  facet normal 0 1 -0
    outer loop
      vertex 6.81273 11.8 0.5
      vertex -6.81273 11.8 8
      vertex 6.81273 11.8 8
    endloop
  endfacet
  facet normal 0 1 0
    outer loop
      vertex -6.81273 11.8 8
      vertex 6.81273 11.8 0.5
      vertex -6.81273 11.8 0.5
    endloop
  endfacet
  facet normal 0.866024 0.500002 0
    outer loop
      vertex 13.6255 0 8
      vertex 6.81273 11.8 0.5
      vertex 6.81273 11.8 8
    endloop
  endfacet
  facet normal 0.866024 0.500002 0
    outer loop
      vertex 6.81273 11.8 0.5
      vertex 13.6255 0 8
      vertex 13.6255 0 0.5
    endloop
  endfacet
  facet normal -0.866024 0.500002 0
    outer loop
      vertex -13.6255 0 0.5
      vertex -6.81273 11.8 8
      vertex -6.81273 11.8 0.5
    endloop
  endfacet
  facet normal -0.866024 0.500002 0
    outer loop
      vertex -6.81273 11.8 8
      vertex -13.6255 0 0.5
      vertex -13.6255 0 8
    endloop
  endfacet
  facet normal -0.866024 -0.500002 0
    outer loop
      vertex -6.81273 -11.8 0.5
      vertex -13.6255 0 8
      vertex -13.6255 0 0.5
    endloop
  endfacet
  facet normal -0.866024 -0.500002 0
    outer loop
      vertex -13.6255 0 8
      vertex -6.81273 -11.8 0.5
      vertex -6.81273 -11.8 8
    endloop
  endfacet
  facet normal 0 0 1
    outer loop
      vertex 6.81273 11.8 8
      vertex 12.7017 0 8
      vertex 13.6255 0 8
    endloop
  endfacet
  facet normal 0 0 1
    outer loop
      vertex 6.81273 11.8 8
      vertex 6.35085 11 8
      vertex 12.7017 0 8
    endloop
  endfacet
  facet normal 0 0 1
    outer loop
      vertex 6.81273 11.8 8
      vertex -6.35085 11 8
      vertex 6.35085 11 8
    endloop
  endfacet
  facet normal -0 0 1
    outer loop
      vertex -6.81273 11.8 8
      vertex -6.35085 11 8
      vertex 6.81273 11.8 8
    endloop
  endfacet
  facet normal 0 0 1
    outer loop
      vertex -6.81273 11.8 8
      vertex -12.7017 0 8
      vertex -6.35085 11 8
    endloop
  endfacet
  facet normal 0 -0 1
    outer loop
      vertex -12.7017 0 8
      vertex -6.81273 11.8 8
      vertex -13.6255 0 8
    endloop
  endfacet
  facet normal -0 0 1
    outer loop
      vertex 12.7017 0 8
      vertex 6.81273 -11.8 8
      vertex 13.6255 0 8
    endloop
  endfacet
  facet normal -0 0 1
    outer loop
      vertex 6.35085 -11 8
      vertex 6.81273 -11.8 8
      vertex 12.7017 0 8
    endloop
  endfacet
  facet normal -0 0 1
    outer loop
      vertex -6.35085 -11 8
      vertex 6.81273 -11.8 8
      vertex 6.35085 -11 8
    endloop
  endfacet
  facet normal 0 0 1
    outer loop
      vertex -6.35085 -11 8
      vertex -6.81273 -11.8 8
      vertex 6.81273 -11.8 8
    endloop
  endfacet
  facet normal 0 0 1
    outer loop
      vertex -12.7017 0 8
      vertex -6.81273 -11.8 8
      vertex -6.35085 -11 8
    endloop
  endfacet
  facet normal 0 0 1
    outer loop
      vertex -6.81273 -11.8 8
      vertex -12.7017 0 8
      vertex -13.6255 0 8
    endloop
  endfacet
  facet normal 0.612346 -0.353538 -0.707137
    outer loop
      vertex -5.7735 10 0.5
      vertex -11.547 0 0.5
      vertex -12.1244 0 0
    endloop
  endfacet
  facet normal -0.612346 -0.353538 -0.707137
    outer loop
      vertex 12.1244 0 0
      vertex 11.547 0 0.5
      vertex 5.7735 10 0.5
    endloop
  endfacet
  facet normal -0.612368 -0.353553 -0.70711
    outer loop
      vertex 6.06218 10.5 0
      vertex 12.1244 0 0
      vertex 5.7735 10 0.5
    endloop
  endfacet
  facet normal 0.612368 -0.353553 -0.70711
    outer loop
      vertex -6.06218 10.5 0
      vertex -5.7735 10 0.5
      vertex -12.1244 0 0
    endloop
  endfacet
  facet normal 0.612368 0.353553 -0.70711
    outer loop
      vertex -5.7735 -10 0.5
      vertex -6.06218 -10.5 0
      vertex -12.1244 0 0
    endloop
  endfacet
  facet normal 0 -0.707107 -0.707107
    outer loop
      vertex -6.06218 10.5 0
      vertex 5.7735 10 0.5
      vertex -5.7735 10 0.5
    endloop
  endfacet
  facet normal 0 -0.707107 -0.707107
    outer loop
      vertex 5.7735 10 0.5
      vertex -6.06218 10.5 0
      vertex 6.06218 10.5 0
    endloop
  endfacet
  facet normal 0.612346 0.353538 -0.707137
    outer loop
      vertex -11.547 0 0.5
      vertex -5.7735 -10 0.5
      vertex -12.1244 0 0
    endloop
  endfacet
  facet normal 0 0.707107 -0.707107
    outer loop
      vertex 6.06218 -10.5 0
      vertex -5.7735 -10 0.5
      vertex 5.7735 -10 0.5
    endloop
  endfacet
  facet normal 0 0.707107 -0.707107
    outer loop
      vertex -5.7735 -10 0.5
      vertex 6.06218 -10.5 0
      vertex -6.06218 -10.5 0
    endloop
  endfacet
  facet normal -0.612368 0.353553 -0.70711
    outer loop
      vertex 12.1244 0 0
      vertex 6.06218 -10.5 0
      vertex 5.7735 -10 0.5
    endloop
  endfacet
  facet normal -0.612346 0.353538 -0.707137
    outer loop
      vertex 11.547 0 0.5
      vertex 12.1244 0 0
      vertex 5.7735 -10 0.5
    endloop
  endfacet
  facet normal 0 1 -0
    outer loop
      vertex 5.7735 -10 0.5
      vertex -5.7735 -10 5.1
      vertex 5.7735 -10 5.1
    endloop
  endfacet
  facet normal 0 1 0
    outer loop
      vertex -5.7735 -10 5.1
      vertex 5.7735 -10 0.5
      vertex -5.7735 -10 0.5
    endloop
  endfacet
  facet normal -0.866026 0.5 0
    outer loop
      vertex 5.7735 -10 0.5
      vertex 11.547 0 5.1
      vertex 11.547 0 0.5
    endloop
  endfacet
  facet normal -0.866026 0.5 0
    outer loop
      vertex 11.547 0 5.1
      vertex 5.7735 -10 0.5
      vertex 5.7735 -10 5.1
    endloop
  endfacet
  facet normal 0 -1 0
    outer loop
      vertex -5.7735 10 0.5
      vertex 5.7735 10 5.1
      vertex -5.7735 10 5.1
    endloop
  endfacet
  facet normal 0 -1 -0
    outer loop
      vertex 5.7735 10 5.1
      vertex -5.7735 10 0.5
      vertex 5.7735 10 0.5
    endloop
  endfacet
  facet normal -0.866026 -0.5 0
    outer loop
      vertex 11.547 0 0.5
      vertex 5.7735 10 5.1
      vertex 5.7735 10 0.5
    endloop
  endfacet
  facet normal -0.866026 -0.5 0
    outer loop
      vertex 5.7735 10 5.1
      vertex 11.547 0 0.5
      vertex 11.547 0 5.1
    endloop
  endfacet
  facet normal 0.866026 -0.5 0
    outer loop
      vertex -11.547 0 5.1
      vertex -5.7735 10 0.5
      vertex -5.7735 10 5.1
    endloop
  endfacet
  facet normal 0.866026 -0.5 0
    outer loop
      vertex -5.7735 10 0.5
      vertex -11.547 0 5.1
      vertex -11.547 0 0.5
    endloop
  endfacet
  facet normal 0.866026 0.5 0
    outer loop
      vertex -5.7735 -10 5.1
      vertex -11.547 0 0.5
      vertex -11.547 0 5.1
    endloop
  endfacet
  facet normal 0.866026 0.5 0
    outer loop
      vertex -11.547 0 0.5
      vertex -5.7735 -10 5.1
      vertex -5.7735 -10 0.5
    endloop
  endfacet
  facet normal -0.579341 -0.334482 0.743294
    outer loop
      vertex 11.547 0 5.1
      vertex 12.7017 0 6
      vertex 5.7735 10 5.1
    endloop
  endfacet
  facet normal -0.579341 0.334482 0.743294
    outer loop
      vertex 12.7017 0 6
      vertex 11.547 0 5.1
      vertex 5.7735 -10 5.1
    endloop
  endfacet
  facet normal 0.579341 0.334482 0.743294
    outer loop
      vertex -6.35085 -11 6
      vertex -5.7735 -10 5.1
      vertex -12.7017 0 6
    endloop
  endfacet
  facet normal 0.579341 -0.334482 0.743294
    outer loop
      vertex -5.7735 10 5.1
      vertex -6.35085 11 6
      vertex -12.7017 0 6
    endloop
  endfacet
  facet normal -0.579341 -0.334482 0.743294
    outer loop
      vertex 12.7017 0 6
      vertex 6.35085 11 6
      vertex 5.7735 10 5.1
    endloop
  endfacet
  facet normal -0.579341 0.334482 0.743294
    outer loop
      vertex 6.35085 -11 6
      vertex 12.7017 0 6
      vertex 5.7735 -10 5.1
    endloop
  endfacet
  facet normal -0 0.668965 0.743294
    outer loop
      vertex -5.7735 -10 5.1
      vertex 6.35085 -11 6
      vertex 5.7735 -10 5.1
    endloop
  endfacet
  facet normal 0 0.668965 0.743294
    outer loop
      vertex 6.35085 -11 6
      vertex -5.7735 -10 5.1
      vertex -6.35085 -11 6
    endloop
  endfacet
  facet normal 0.579341 0.334482 0.743294
    outer loop
      vertex -5.7735 -10 5.1
      vertex -11.547 0 5.1
      vertex -12.7017 0 6
    endloop
  endfacet
  facet normal 0.579341 -0.334482 0.743294
    outer loop
      vertex -11.547 0 5.1
      vertex -5.7735 10 5.1
      vertex -12.7017 0 6
    endloop
  endfacet
  facet normal 0 -0.668965 0.743294
    outer loop
      vertex 6.35085 11 6
      vertex -5.7735 10 5.1
      vertex 5.7735 10 5.1
    endloop
  endfacet
  facet normal 0 -0.668965 0.743294
    outer loop
      vertex -5.7735 10 5.1
      vertex 6.35085 11 6
      vertex -6.35085 11 6
    endloop
  endfacet
  facet normal 0 1 -0
    outer loop
      vertex 6.35085 -11 6
      vertex -6.35085 -11 8
      vertex 6.35085 -11 8
    endloop
  endfacet
  facet normal 0 1 0
    outer loop
      vertex -6.35085 -11 8
      vertex 6.35085 -11 6
      vertex -6.35085 -11 6
    endloop
  endfacet
  facet normal -0.866026 0.5 0
    outer loop
      vertex 6.35085 -11 6
      vertex 12.7017 0 8
      vertex 12.7017 0 6
    endloop
  endfacet
  facet normal -0.866026 0.5 0
    outer loop
      vertex 12.7017 0 8
      vertex 6.35085 -11 6
      vertex 6.35085 -11 8
    endloop
  endfacet
  facet normal 0 -1 0
    outer loop
      vertex -6.35085 11 6
      vertex 6.35085 11 8
      vertex -6.35085 11 8
    endloop
  endfacet
  facet normal 0 -1 -0
    outer loop
      vertex 6.35085 11 8
      vertex -6.35085 11 6
      vertex 6.35085 11 6
    endloop
  endfacet
  facet normal -0.866026 -0.5 0
    outer loop
      vertex 12.7017 0 6
      vertex 6.35085 11 8
      vertex 6.35085 11 6
    endloop
  endfacet
  facet normal -0.866026 -0.5 0
    outer loop
      vertex 6.35085 11 8
      vertex 12.7017 0 6
      vertex 12.7017 0 8
    endloop
  endfacet
  facet normal 0.866026 -0.5 0
    outer loop
      vertex -12.7017 0 8
      vertex -6.35085 11 6
      vertex -6.35085 11 8
    endloop
  endfacet
  facet normal 0.866026 -0.5 0
    outer loop
      vertex -6.35085 11 6
      vertex -12.7017 0 8
      vertex -12.7017 0 6
    endloop
  endfacet
  facet normal 0.866026 0.5 0
    outer loop
      vertex -6.35085 -11 8
      vertex -12.7017 0 6
      vertex -12.7017 0 8
    endloop
  endfacet
  facet normal 0.866026 0.5 0
    outer loop
      vertex -12.7017 0 6
      vertex -6.35085 -11 8
      vertex -6.35085 -11 6
    endloop
  endfacet
  facet normal 0.612346 0.353537 -0.707137
    outer loop
      vertex 13.0481 23.6 0
      vertex 6.52406 34.9 0
      vertex 13.6255 23.6 0.5
    endloop
  endfacet
  facet normal -0.612346 -0.353537 -0.707137
    outer loop
      vertex -6.52406 12.3 0
      vertex -13.6255 23.6 0.5
      vertex -13.0481 23.6 0
    endloop
  endfacet
  facet normal -0.612374 0.353556 -0.707104
    outer loop
      vertex -6.52406 34.9 0
      vertex -13.6255 23.6 0.5
      vertex -6.81273 35.4 0.5
    endloop
  endfacet
  facet normal -0.612374 -0.353556 -0.707104
    outer loop
      vertex -6.81273 11.8 0.5
      vertex -13.6255 23.6 0.5
      vertex -6.52406 12.3 0
    endloop
  endfacet
  facet normal 0.612374 0.353556 -0.707104
    outer loop
      vertex 13.6255 23.6 0.5
      vertex 6.52406 34.9 0
      vertex 6.81273 35.4 0.5
    endloop
  endfacet
  facet normal 0.612346 -0.353537 -0.707137
    outer loop
      vertex 13.6255 23.6 0.5
      vertex 6.52406 12.3 0
      vertex 13.0481 23.6 0
    endloop
  endfacet
  facet normal 0.612374 -0.353556 -0.707104
    outer loop
      vertex 6.81273 11.8 0.5
      vertex 6.52406 12.3 0
      vertex 13.6255 23.6 0.5
    endloop
  endfacet
  facet normal -0.612346 0.353537 -0.707137
    outer loop
      vertex -13.0481 23.6 0
      vertex -13.6255 23.6 0.5
      vertex -6.52406 34.9 0
    endloop
  endfacet
  facet normal 0 0.707107 -0.707107
    outer loop
      vertex 6.52406 34.9 0
      vertex -6.81273 35.4 0.5
      vertex 6.81273 35.4 0.5
    endloop
  endfacet
  facet normal 0 0.707107 -0.707107
    outer loop
      vertex -6.81273 35.4 0.5
      vertex 6.52406 34.9 0
      vertex -6.52406 34.9 0
    endloop
  endfacet
  facet normal 0 0 -1
    outer loop
      vertex 6.52406 12.3 0
      vertex 12.1244 23.6 0
      vertex 13.0481 23.6 0
    endloop
  endfacet
  facet normal 0 0 -1
    outer loop
      vertex 6.52406 12.3 0
      vertex 6.06218 13.1 0
      vertex 12.1244 23.6 0
    endloop
  endfacet
  facet normal 0 0 -1
    outer loop
      vertex 6.52406 12.3 0
      vertex -6.06218 13.1 0
      vertex 6.06218 13.1 0
    endloop
  endfacet
  facet normal 0 0 -1
    outer loop
      vertex -6.52406 12.3 0
      vertex -6.06218 13.1 0
      vertex 6.52406 12.3 0
    endloop
  endfacet
  facet normal 0 0 -1
    outer loop
      vertex -6.52406 12.3 0
      vertex -12.1244 23.6 0
      vertex -6.06218 13.1 0
    endloop
  endfacet
  facet normal -0 -0 -1
    outer loop
      vertex -12.1244 23.6 0
      vertex -6.52406 12.3 0
      vertex -13.0481 23.6 0
    endloop
  endfacet
  facet normal 0 0 -1
    outer loop
      vertex 12.1244 23.6 0
      vertex 6.52406 34.9 0
      vertex 13.0481 23.6 0
    endloop
  endfacet
  facet normal 0 0 -1
    outer loop
      vertex 6.06218 34.1 0
      vertex 6.52406 34.9 0
      vertex 12.1244 23.6 0
    endloop
  endfacet
  facet normal 0 0 -1
    outer loop
      vertex -6.06218 34.1 0
      vertex 6.52406 34.9 0
      vertex 6.06218 34.1 0
    endloop
  endfacet
  facet normal 0 0 -1
    outer loop
      vertex -6.06218 34.1 0
      vertex -6.52406 34.9 0
      vertex 6.52406 34.9 0
    endloop
  endfacet
  facet normal 0 0 -1
    outer loop
      vertex -12.1244 23.6 0
      vertex -6.52406 34.9 0
      vertex -6.06218 34.1 0
    endloop
  endfacet
  facet normal 0 0 -1
    outer loop
      vertex -6.52406 34.9 0
      vertex -12.1244 23.6 0
      vertex -13.0481 23.6 0
    endloop
  endfacet
  facet normal 0 -0.707107 -0.707107
    outer loop
      vertex -6.52406 12.3 0
      vertex 6.81273 11.8 0.5
      vertex -6.81273 11.8 0.5
    endloop
  endfacet
  facet normal 0 -0.707107 -0.707107
    outer loop
      vertex 6.81273 11.8 0.5
      vertex -6.52406 12.3 0
      vertex 6.52406 12.3 0
    endloop
  endfacet
  facet normal 0 -1 0
    outer loop
      vertex -6.81273 11.8 0.5
      vertex 6.81273 11.8 8
      vertex -6.81273 11.8 8
    endloop
  endfacet
  facet normal 0 -1 -0
    outer loop
      vertex 6.81273 11.8 8
      vertex -6.81273 11.8 0.5
      vertex 6.81273 11.8 0.5
    endloop
  endfacet
  facet normal 0.866024 -0.500002 0
    outer loop
      vertex 6.81273 11.8 8
      vertex 13.6255 23.6 0.5
      vertex 13.6255 23.6 8
    endloop
  endfacet
  facet normal 0.866024 -0.500002 0
    outer loop
      vertex 13.6255 23.6 0.5
      vertex 6.81273 11.8 8
      vertex 6.81273 11.8 0.5
    endloop
  endfacet
  facet normal 0 1 -0
    outer loop
      vertex 6.81273 35.4 0.5
      vertex -6.81273 35.4 8
      vertex 6.81273 35.4 8
    endloop
  endfacet
  facet normal 0 1 0
    outer loop
      vertex -6.81273 35.4 8
      vertex 6.81273 35.4 0.5
      vertex -6.81273 35.4 0.5
    endloop
  endfacet
  facet normal 0.866024 0.500002 0
    outer loop
      vertex 13.6255 23.6 8
      vertex 6.81273 35.4 0.5
      vertex 6.81273 35.4 8
    endloop
  endfacet
  facet normal 0.866024 0.500002 0
    outer loop
      vertex 6.81273 35.4 0.5
      vertex 13.6255 23.6 8
      vertex 13.6255 23.6 0.5
    endloop
  endfacet
  facet normal -0.866024 0.500002 0
    outer loop
      vertex -13.6255 23.6 0.5
      vertex -6.81273 35.4 8
      vertex -6.81273 35.4 0.5
    endloop
  endfacet
  facet normal -0.866024 0.500002 0
    outer loop
      vertex -6.81273 35.4 8
      vertex -13.6255 23.6 0.5
      vertex -13.6255 23.6 8
    endloop
  endfacet
  facet normal -0.866024 -0.500002 0
    outer loop
      vertex -6.81273 11.8 0.5
      vertex -13.6255 23.6 8
      vertex -13.6255 23.6 0.5
    endloop
  endfacet
  facet normal -0.866024 -0.500002 0
    outer loop
      vertex -13.6255 23.6 8
      vertex -6.81273 11.8 0.5
      vertex -6.81273 11.8 8
    endloop
  endfacet
  facet normal 0 0 1
    outer loop
      vertex 6.81273 35.4 8
      vertex 12.7017 23.6 8
      vertex 13.6255 23.6 8
    endloop
  endfacet
  facet normal 0 0 1
    outer loop
      vertex 6.81273 35.4 8
      vertex 6.35085 34.6 8
      vertex 12.7017 23.6 8
    endloop
  endfacet
  facet normal 0 0 1
    outer loop
      vertex 6.81273 35.4 8
      vertex -6.35085 34.6 8
      vertex 6.35085 34.6 8
    endloop
  endfacet
  facet normal -0 0 1
    outer loop
      vertex -6.81273 35.4 8
      vertex -6.35085 34.6 8
      vertex 6.81273 35.4 8
    endloop
  endfacet
  facet normal 0 0 1
    outer loop
      vertex -6.81273 35.4 8
      vertex -12.7017 23.6 8
      vertex -6.35085 34.6 8
    endloop
  endfacet
  facet normal 0 -0 1
    outer loop
      vertex -12.7017 23.6 8
      vertex -6.81273 35.4 8
      vertex -13.6255 23.6 8
    endloop
  endfacet
  facet normal -0 0 1
    outer loop
      vertex 12.7017 23.6 8
      vertex 6.81273 11.8 8
      vertex 13.6255 23.6 8
    endloop
  endfacet
  facet normal -0 0 1
    outer loop
      vertex 6.35085 12.6 8
      vertex 6.81273 11.8 8
      vertex 12.7017 23.6 8
    endloop
  endfacet
  facet normal -0 0 1
    outer loop
      vertex -6.35085 12.6 8
      vertex 6.81273 11.8 8
      vertex 6.35085 12.6 8
    endloop
  endfacet
  facet normal 0 0 1
    outer loop
      vertex -6.35085 12.6 8
      vertex -6.81273 11.8 8
      vertex 6.81273 11.8 8
    endloop
  endfacet
  facet normal 0 0 1
    outer loop
      vertex -12.7017 23.6 8
      vertex -6.81273 11.8 8
      vertex -6.35085 12.6 8
    endloop
  endfacet
  facet normal 0 0 1
    outer loop
      vertex -6.81273 11.8 8
      vertex -12.7017 23.6 8
      vertex -13.6255 23.6 8
    endloop
  endfacet
  facet normal 0.612346 -0.353538 -0.707137
    outer loop
      vertex -5.7735 33.6 0.5
      vertex -11.547 23.6 0.5
      vertex -12.1244 23.6 0
    endloop
  endfacet
  facet normal -0.612346 -0.353538 -0.707137
    outer loop
      vertex 12.1244 23.6 0
      vertex 11.547 23.6 0.5
      vertex 5.7735 33.6 0.5
    endloop
  endfacet
  facet normal -0.612368 -0.353553 -0.70711
    outer loop
      vertex 6.06218 34.1 0
      vertex 12.1244 23.6 0
      vertex 5.7735 33.6 0.5
    endloop
  endfacet
  facet normal 0.612368 -0.353553 -0.70711
    outer loop
      vertex -6.06218 34.1 0
      vertex -5.7735 33.6 0.5
      vertex -12.1244 23.6 0
    endloop
  endfacet
  facet normal 0.612368 0.353553 -0.70711
    outer loop
      vertex -5.7735 13.6 0.5
      vertex -6.06218 13.1 0
      vertex -12.1244 23.6 0
    endloop
  endfacet
  facet normal 0 -0.707107 -0.707107
    outer loop
      vertex -6.06218 34.1 0
      vertex 5.7735 33.6 0.5
      vertex -5.7735 33.6 0.5
    endloop
  endfacet
  facet normal 0 -0.707107 -0.707107
    outer loop
      vertex 5.7735 33.6 0.5
      vertex -6.06218 34.1 0
      vertex 6.06218 34.1 0
    endloop
  endfacet
  facet normal 0.612346 0.353538 -0.707137
    outer loop
      vertex -11.547 23.6 0.5
      vertex -5.7735 13.6 0.5
      vertex -12.1244 23.6 0
    endloop
  endfacet
  facet normal 0 0.707107 -0.707107
    outer loop
      vertex 6.06218 13.1 0
      vertex -5.7735 13.6 0.5
      vertex 5.7735 13.6 0.5
    endloop
  endfacet
  facet normal 0 0.707107 -0.707107
    outer loop
      vertex -5.7735 13.6 0.5
      vertex 6.06218 13.1 0
      vertex -6.06218 13.1 0
    endloop
  endfacet
  facet normal -0.612368 0.353553 -0.70711
    outer loop
      vertex 12.1244 23.6 0
      vertex 6.06218 13.1 0
      vertex 5.7735 13.6 0.5
    endloop
  endfacet
  facet normal -0.612346 0.353538 -0.707137
    outer loop
      vertex 11.547 23.6 0.5
      vertex 12.1244 23.6 0
      vertex 5.7735 13.6 0.5
    endloop
  endfacet
  facet normal 0 1 -0
    outer loop
      vertex 5.7735 13.6 0.5
      vertex -5.7735 13.6 5.1
      vertex 5.7735 13.6 5.1
    endloop
  endfacet
  facet normal 0 1 0
    outer loop
      vertex -5.7735 13.6 5.1
      vertex 5.7735 13.6 0.5
      vertex -5.7735 13.6 0.5
    endloop
  endfacet
  facet normal -0.866026 0.5 0
    outer loop
      vertex 5.7735 13.6 0.5
      vertex 11.547 23.6 5.1
      vertex 11.547 23.6 0.5
    endloop
  endfacet
  facet normal -0.866026 0.5 0
    outer loop
      vertex 11.547 23.6 5.1
      vertex 5.7735 13.6 0.5
      vertex 5.7735 13.6 5.1
    endloop
  endfacet
  facet normal 0 -1 0
    outer loop
      vertex -5.7735 33.6 0.5
      vertex 5.7735 33.6 5.1
      vertex -5.7735 33.6 5.1
    endloop
  endfacet
  facet normal 0 -1 -0
    outer loop
      vertex 5.7735 33.6 5.1
      vertex -5.7735 33.6 0.5
      vertex 5.7735 33.6 0.5
    endloop
  endfacet
  facet normal -0.866026 -0.5 0
    outer loop
      vertex 11.547 23.6 0.5
      vertex 5.7735 33.6 5.1
      vertex 5.7735 33.6 0.5
    endloop
  endfacet
  facet normal -0.866026 -0.5 0
    outer loop
      vertex 5.7735 33.6 5.1
      vertex 11.547 23.6 0.5
      vertex 11.547 23.6 5.1
    endloop
  endfacet
  facet normal 0.866026 -0.5 0
    outer loop
      vertex -11.547 23.6 5.1
      vertex -5.7735 33.6 0.5
      vertex -5.7735 33.6 5.1
    endloop
  endfacet
  facet normal 0.866026 -0.5 0
    outer loop
      vertex -5.7735 33.6 0.5
      vertex -11.547 23.6 5.1
      vertex -11.547 23.6 0.5
    endloop
  endfacet
  facet normal 0.866026 0.5 0
    outer loop
      vertex -5.7735 13.6 5.1
      vertex -11.547 23.6 0.5
      vertex -11.547 23.6 5.1
    endloop
  endfacet
  facet normal 0.866026 0.5 0
    outer loop
      vertex -11.547 23.6 0.5
      vertex -5.7735 13.6 5.1
      vertex -5.7735 13.6 0.5
    endloop
  endfacet
  facet normal -0.579341 -0.334482 0.743294
    outer loop
      vertex 11.547 23.6 5.1
      vertex 12.7017 23.6 6
      vertex 5.7735 33.6 5.1
    endloop
  endfacet
  facet normal -0.579341 0.334482 0.743294
    outer loop
      vertex 12.7017 23.6 6
      vertex 11.547 23.6 5.1
      vertex 5.7735 13.6 5.1
    endloop
  endfacet
  facet normal 0.579341 0.334482 0.743294
    outer loop
      vertex -6.35085 12.6 6
      vertex -5.7735 13.6 5.1
      vertex -12.7017 23.6 6
    endloop
  endfacet
  facet normal 0.579341 -0.334482 0.743294
    outer loop
      vertex -5.7735 33.6 5.1
      vertex -6.35085 34.6 6
      vertex -12.7017 23.6 6
    endloop
  endfacet
  facet normal -0.579341 -0.334482 0.743294
    outer loop
      vertex 12.7017 23.6 6
      vertex 6.35085 34.6 6
      vertex 5.7735 33.6 5.1
    endloop
  endfacet
  facet normal -0.579341 0.334482 0.743294
    outer loop
      vertex 6.35085 12.6 6
      vertex 12.7017 23.6 6
      vertex 5.7735 13.6 5.1
    endloop
  endfacet
  facet normal -0 0.668965 0.743294
    outer loop
      vertex -5.7735 13.6 5.1
      vertex 6.35085 12.6 6
      vertex 5.7735 13.6 5.1
    endloop
  endfacet
  facet normal 0 0.668965 0.743294
    outer loop
      vertex 6.35085 12.6 6
      vertex -5.7735 13.6 5.1
      vertex -6.35085 12.6 6
    endloop
  endfacet
  facet normal 0.579341 0.334482 0.743294
    outer loop
      vertex -5.7735 13.6 5.1
      vertex -11.547 23.6 5.1
      vertex -12.7017 23.6 6
    endloop
  endfacet
  facet normal 0.579341 -0.334482 0.743294
    outer loop
      vertex -11.547 23.6 5.1
      vertex -5.7735 33.6 5.1
      vertex -12.7017 23.6 6
    endloop
  endfacet
  facet normal 0 -0.668965 0.743294
    outer loop
      vertex 6.35085 34.6 6
      vertex -5.7735 33.6 5.1
      vertex 5.7735 33.6 5.1
    endloop
  endfacet
  facet normal 0 -0.668965 0.743294
    outer loop
      vertex -5.7735 33.6 5.1
      vertex 6.35085 34.6 6
      vertex -6.35085 34.6 6
    endloop
  endfacet
  facet normal 0 1 -0
    outer loop
      vertex 6.35085 12.6 6
      vertex -6.35085 12.6 8
      vertex 6.35085 12.6 8
    endloop
  endfacet
  facet normal 0 1 0
    outer loop
      vertex -6.35085 12.6 8
      vertex 6.35085 12.6 6
      vertex -6.35085 12.6 6
    endloop
  endfacet
  facet normal -0.866026 0.5 0
    outer loop
      vertex 6.35085 12.6 6
      vertex 12.7017 23.6 8
      vertex 12.7017 23.6 6
    endloop
  endfacet
  facet normal -0.866026 0.5 0
    outer loop
      vertex 12.7017 23.6 8
      vertex 6.35085 12.6 6
      vertex 6.35085 12.6 8
    endloop
  endfacet
  facet normal 0 -1 0
    outer loop
      vertex -6.35085 34.6 6
      vertex 6.35085 34.6 8
      vertex -6.35085 34.6 8
    endloop
  endfacet
  facet normal 0 -1 -0
    outer loop
      vertex 6.35085 34.6 8
      vertex -6.35085 34.6 6
      vertex 6.35085 34.6 6
    endloop
  endfacet
  facet normal -0.866026 -0.5 0
    outer loop
      vertex 12.7017 23.6 6
      vertex 6.35085 34.6 8
      vertex 6.35085 34.6 6
    endloop
  endfacet
  facet normal -0.866026 -0.5 0
    outer loop
      vertex 6.35085 34.6 8
      vertex 12.7017 23.6 6
      vertex 12.7017 23.6 8
    endloop
  endfacet
  facet normal 0.866026 -0.5 0
    outer loop
      vertex -12.7017 23.6 8
      vertex -6.35085 34.6 6
      vertex -6.35085 34.6 8
    endloop
  endfacet
  facet normal 0.866026 -0.5 0
    outer loop
      vertex -6.35085 34.6 6
      vertex -12.7017 23.6 8
      vertex -12.7017 23.6 6
    endloop
  endfacet
  facet normal 0.866026 0.5 0
    outer loop
      vertex -6.35085 12.6 8
      vertex -12.7017 23.6 6
      vertex -12.7017 23.6 8
    endloop
  endfacet
  facet normal 0.866026 0.5 0
    outer loop
      vertex -12.7017 23.6 6
      vertex -6.35085 12.6 8
      vertex -6.35085 12.6 6
    endloop
  endfacet
  facet normal 0.612346 0.353537 -0.707137
    outer loop
      vertex 13.0481 47.2 0
      vertex 6.52406 58.5 0
      vertex 13.6255 47.2 0.5
    endloop
  endfacet
  facet normal -0.612346 -0.353537 -0.707137
    outer loop
      vertex -6.52406 35.9 0
      vertex -13.6255 47.2 0.5
      vertex -13.0481 47.2 0
    endloop
  endfacet
  facet normal -0.612374 0.353556 -0.707104
    outer loop
      vertex -6.52406 58.5 0
      vertex -13.6255 47.2 0.5
      vertex -6.81273 59 0.5
    endloop
  endfacet
  facet normal -0.612374 -0.353556 -0.707104
    outer loop
      vertex -6.81273 35.4 0.5
      vertex -13.6255 47.2 0.5
      vertex -6.52406 35.9 0
    endloop
  endfacet
  facet normal 0.612374 0.353556 -0.707104
    outer loop
      vertex 13.6255 47.2 0.5
      vertex 6.52406 58.5 0
      vertex 6.81273 59 0.5
    endloop
  endfacet
  facet normal 0.612346 -0.353537 -0.707137
    outer loop
      vertex 13.6255 47.2 0.5
      vertex 6.52406 35.9 0
      vertex 13.0481 47.2 0
    endloop
  endfacet
  facet normal 0.612374 -0.353556 -0.707104
    outer loop
      vertex 6.81273 35.4 0.5
      vertex 6.52406 35.9 0
      vertex 13.6255 47.2 0.5
    endloop
  endfacet
  facet normal -0.612346 0.353537 -0.707137
    outer loop
      vertex -13.0481 47.2 0
      vertex -13.6255 47.2 0.5
      vertex -6.52406 58.5 0
    endloop
  endfacet
  facet normal 0 0.707107 -0.707107
    outer loop
      vertex 6.52406 58.5 0
      vertex -6.81273 59 0.5
      vertex 6.81273 59 0.5
    endloop
  endfacet
  facet normal 0 0.707107 -0.707107
    outer loop
      vertex -6.81273 59 0.5
      vertex 6.52406 58.5 0
      vertex -6.52406 58.5 0
    endloop
  endfacet
  facet normal 0 0 -1
    outer loop
      vertex 6.52406 35.9 0
      vertex 12.1244 47.2 0
      vertex 13.0481 47.2 0
    endloop
  endfacet
  facet normal 0 0 -1
    outer loop
      vertex 6.52406 35.9 0
      vertex 6.06218 36.7 0
      vertex 12.1244 47.2 0
    endloop
  endfacet
  facet normal 0 0 -1
    outer loop
      vertex 6.52406 35.9 0
      vertex -6.06218 36.7 0
      vertex 6.06218 36.7 0
    endloop
  endfacet
  facet normal 0 0 -1
    outer loop
      vertex -6.52406 35.9 0
      vertex -6.06218 36.7 0
      vertex 6.52406 35.9 0
    endloop
  endfacet
  facet normal 0 0 -1
    outer loop
      vertex -6.52406 35.9 0
      vertex -12.1244 47.2 0
      vertex -6.06218 36.7 0
    endloop
  endfacet
  facet normal -0 -0 -1
    outer loop
      vertex -12.1244 47.2 0
      vertex -6.52406 35.9 0
      vertex -13.0481 47.2 0
    endloop
  endfacet
  facet normal 0 0 -1
    outer loop
      vertex 12.1244 47.2 0
      vertex 6.52406 58.5 0
      vertex 13.0481 47.2 0
    endloop
  endfacet
  facet normal 0 0 -1
    outer loop
      vertex 6.06218 57.7 0
      vertex 6.52406 58.5 0
      vertex 12.1244 47.2 0
    endloop
  endfacet
  facet normal 0 0 -1
    outer loop
      vertex -6.06218 57.7 0
      vertex 6.52406 58.5 0
      vertex 6.06218 57.7 0
    endloop
  endfacet
  facet normal 0 0 -1
    outer loop
      vertex -6.06218 57.7 0
      vertex -6.52406 58.5 0
      vertex 6.52406 58.5 0
    endloop
  endfacet
  facet normal 0 0 -1
    outer loop
      vertex -12.1244 47.2 0
      vertex -6.52406 58.5 0
      vertex -6.06218 57.7 0
    endloop
  endfacet
  facet normal 0 0 -1
    outer loop
      vertex -6.52406 58.5 0
      vertex -12.1244 47.2 0
      vertex -13.0481 47.2 0
    endloop
  endfacet
  facet normal 0 -0.707107 -0.707107
    outer loop
      vertex -6.52406 35.9 0
      vertex 6.81273 35.4 0.5
      vertex -6.81273 35.4 0.5
    endloop
  endfacet
  facet normal 0 -0.707107 -0.707107
    outer loop
      vertex 6.81273 35.4 0.5
      vertex -6.52406 35.9 0
      vertex 6.52406 35.9 0
    endloop
  endfacet
  facet normal 0 -1 0
    outer loop
      vertex -6.81273 35.4 0.5
      vertex 6.81273 35.4 8
      vertex -6.81273 35.4 8
    endloop
  endfacet
  facet normal 0 -1 -0
    outer loop
      vertex 6.81273 35.4 8
      vertex -6.81273 35.4 0.5
      vertex 6.81273 35.4 0.5
    endloop
  endfacet
  facet normal 0.866024 -0.500002 0
    outer loop
      vertex 6.81273 35.4 8
      vertex 13.6255 47.2 0.5
      vertex 13.6255 47.2 8
    endloop
  endfacet
  facet normal 0.866024 -0.500002 0
    outer loop
      vertex 13.6255 47.2 0.5
      vertex 6.81273 35.4 8
      vertex 6.81273 35.4 0.5
    endloop
  endfacet
  facet normal 0 1 -0
    outer loop
      vertex 6.81273 59 0.5
      vertex -6.81273 59 8
      vertex 6.81273 59 8
    endloop
  endfacet
  facet normal 0 1 0
    outer loop
      vertex -6.81273 59 8
      vertex 6.81273 59 0.5
      vertex -6.81273 59 0.5
    endloop
  endfacet
  facet normal 0.866024 0.500002 0
    outer loop
      vertex 13.6255 47.2 8
      vertex 6.81273 59 0.5
      vertex 6.81273 59 8
    endloop
  endfacet
  facet normal 0.866024 0.500002 0
    outer loop
      vertex 6.81273 59 0.5
      vertex 13.6255 47.2 8
      vertex 13.6255 47.2 0.5
    endloop
  endfacet
  facet normal -0.866024 0.500002 0
    outer loop
      vertex -13.6255 47.2 0.5
      vertex -6.81273 59 8
      vertex -6.81273 59 0.5
    endloop
  endfacet
  facet normal -0.866024 0.500002 0
    outer loop
      vertex -6.81273 59 8
      vertex -13.6255 47.2 0.5
      vertex -13.6255 47.2 8
    endloop
  endfacet
  facet normal -0.866024 -0.500002 0
    outer loop
      vertex -6.81273 35.4 0.5
      vertex -13.6255 47.2 8
      vertex -13.6255 47.2 0.5
    endloop
  endfacet
  facet normal -0.866024 -0.500002 0
    outer loop
      vertex -13.6255 47.2 8
      vertex -6.81273 35.4 0.5
      vertex -6.81273 35.4 8
    endloop
  endfacet
  facet normal 0 0 1
    outer loop
      vertex 6.81273 59 8
      vertex 12.7017 47.2 8
      vertex 13.6255 47.2 8
    endloop
  endfacet
  facet normal 0 0 1
    outer loop
      vertex 6.81273 59 8
      vertex 6.35085 58.2 8
      vertex 12.7017 47.2 8
    endloop
  endfacet
  facet normal 0 0 1
    outer loop
      vertex 6.81273 59 8
      vertex -6.35085 58.2 8
      vertex 6.35085 58.2 8
    endloop
  endfacet
  facet normal -0 0 1
    outer loop
      vertex -6.81273 59 8
      vertex -6.35085 58.2 8
      vertex 6.81273 59 8
    endloop
  endfacet
  facet normal 0 0 1
    outer loop
      vertex -6.81273 59 8
      vertex -12.7017 47.2 8
      vertex -6.35085 58.2 8
    endloop
  endfacet
  facet normal 0 -0 1
    outer loop
      vertex -12.7017 47.2 8
      vertex -6.81273 59 8
      vertex -13.6255 47.2 8
    endloop
  endfacet
  facet normal -0 0 1
    outer loop
      vertex 12.7017 47.2 8
      vertex 6.81273 35.4 8
      vertex 13.6255 47.2 8
    endloop
  endfacet
  facet normal -0 0 1
    outer loop
      vertex 6.35085 36.2 8
      vertex 6.81273 35.4 8
      vertex 12.7017 47.2 8
    endloop
  endfacet
  facet normal -0 0 1
    outer loop
      vertex -6.35085 36.2 8
      vertex 6.81273 35.4 8
      vertex 6.35085 36.2 8
    endloop
  endfacet
  facet normal 0 0 1
    outer loop
      vertex -6.35085 36.2 8
      vertex -6.81273 35.4 8
      vertex 6.81273 35.4 8
    endloop
  endfacet
  facet normal 0 0 1
    outer loop
      vertex -12.7017 47.2 8
      vertex -6.81273 35.4 8
      vertex -6.35085 36.2 8
    endloop
  endfacet
  facet normal 0 0 1
    outer loop
      vertex -6.81273 35.4 8
      vertex -12.7017 47.2 8
      vertex -13.6255 47.2 8
    endloop
  endfacet
  facet normal 0.612346 -0.353538 -0.707137
    outer loop
      vertex -5.7735 57.2 0.5
      vertex -11.547 47.2 0.5
      vertex -12.1244 47.2 0
    endloop
  endfacet
  facet normal -0.612346 -0.353538 -0.707137
    outer loop
      vertex 12.1244 47.2 0
      vertex 11.547 47.2 0.5
      vertex 5.7735 57.2 0.5
    endloop
  endfacet
  facet normal -0.612368 -0.353553 -0.70711
    outer loop
      vertex 6.06218 57.7 0
      vertex 12.1244 47.2 0
      vertex 5.7735 57.2 0.5
    endloop
  endfacet
  facet normal 0.612368 -0.353553 -0.70711
    outer loop
      vertex -6.06218 57.7 0
      vertex -5.7735 57.2 0.5
      vertex -12.1244 47.2 0
    endloop
  endfacet
  facet normal 0.612368 0.353553 -0.70711
    outer loop
      vertex -5.7735 37.2 0.5
      vertex -6.06218 36.7 0
      vertex -12.1244 47.2 0
    endloop
  endfacet
  facet normal 0 -0.707107 -0.707107
    outer loop
      vertex -6.06218 57.7 0
      vertex 5.7735 57.2 0.5
      vertex -5.7735 57.2 0.5
    endloop
  endfacet
  facet normal 0 -0.707107 -0.707107
    outer loop
      vertex 5.7735 57.2 0.5
      vertex -6.06218 57.7 0
      vertex 6.06218 57.7 0
    endloop
  endfacet
  facet normal 0.612346 0.353538 -0.707137
    outer loop
      vertex -11.547 47.2 0.5
      vertex -5.7735 37.2 0.5
      vertex -12.1244 47.2 0
    endloop
  endfacet
  facet normal 0 0.707107 -0.707107
    outer loop
      vertex 6.06218 36.7 0
      vertex -5.7735 37.2 0.5
      vertex 5.7735 37.2 0.5
    endloop
  endfacet
  facet normal 0 0.707107 -0.707107
    outer loop
      vertex -5.7735 37.2 0.5
      vertex 6.06218 36.7 0
      vertex -6.06218 36.7 0
    endloop
  endfacet
  facet normal -0.612368 0.353553 -0.70711
    outer loop
      vertex 12.1244 47.2 0
      vertex 6.06218 36.7 0
      vertex 5.7735 37.2 0.5
    endloop
  endfacet
  facet normal -0.612346 0.353538 -0.707137
    outer loop
      vertex 11.547 47.2 0.5
      vertex 12.1244 47.2 0
      vertex 5.7735 37.2 0.5
    endloop
  endfacet
  facet normal 0 1 -0
    outer loop
      vertex 5.7735 37.2 0.5
      vertex -5.7735 37.2 5.1
      vertex 5.7735 37.2 5.1
    endloop
  endfacet
  facet normal 0 1 0
    outer loop
      vertex -5.7735 37.2 5.1
      vertex 5.7735 37.2 0.5
      vertex -5.7735 37.2 0.5
    endloop
  endfacet
  facet normal -0.866026 0.5 0
    outer loop
      vertex 5.7735 37.2 0.5
      vertex 11.547 47.2 5.1
      vertex 11.547 47.2 0.5
    endloop
  endfacet
  facet normal -0.866026 0.5 0
    outer loop
      vertex 11.547 47.2 5.1
      vertex 5.7735 37.2 0.5
      vertex 5.7735 37.2 5.1
    endloop
  endfacet
  facet normal 0 -1 0
    outer loop
      vertex -5.7735 57.2 0.5
      vertex 5.7735 57.2 5.1
      vertex -5.7735 57.2 5.1
    endloop
  endfacet
  facet normal 0 -1 -0
    outer loop
      vertex 5.7735 57.2 5.1
      vertex -5.7735 57.2 0.5
      vertex 5.7735 57.2 0.5
    endloop
  endfacet
  facet normal -0.866026 -0.5 0
    outer loop
      vertex 11.547 47.2 0.5
      vertex 5.7735 57.2 5.1
      vertex 5.7735 57.2 0.5
    endloop
  endfacet
  facet normal -0.866026 -0.5 0
    outer loop
      vertex 5.7735 57.2 5.1
      vertex 11.547 47.2 0.5
      vertex 11.547 47.2 5.1
    endloop
  endfacet
  facet normal 0.866026 -0.5 0
    outer loop
      vertex -11.547 47.2 5.1
      vertex -5.7735 57.2 0.5
      vertex -5.7735 57.2 5.1
    endloop
  endfacet
  facet normal 0.866026 -0.5 0
    outer loop
      vertex -5.7735 57.2 0.5
      vertex -11.547 47.2 5.1
      vertex -11.547 47.2 0.5
    endloop
  endfacet
  facet normal 0.866026 0.5 0
    outer loop
      vertex -5.7735 37.2 5.1
      vertex -11.547 47.2 0.5
      vertex -11.547 47.2 5.1
    endloop
  endfacet
  facet normal 0.866026 0.5 0
    outer loop
      vertex -11.547 47.2 0.5
      vertex -5.7735 37.2 5.1
      vertex -5.7735 37.2 0.5
    endloop
  endfacet
  facet normal -0.579341 -0.334482 0.743294
    outer loop
      vertex 11.547 47.2 5.1
      vertex 12.7017 47.2 6
      vertex 5.7735 57.2 5.1
    endloop
  endfacet
  facet normal -0.579341 0.334482 0.743294
    outer loop
      vertex 12.7017 47.2 6
      vertex 11.547 47.2 5.1
      vertex 5.7735 37.2 5.1
    endloop
  endfacet
  facet normal 0.579341 0.334482 0.743294
    outer loop
      vertex -6.35085 36.2 6
      vertex -5.7735 37.2 5.1
      vertex -12.7017 47.2 6
    endloop
  endfacet
  facet normal 0.579341 -0.334482 0.743294
    outer loop
      vertex -5.7735 57.2 5.1
      vertex -6.35085 58.2 6
      vertex -12.7017 47.2 6
    endloop
  endfacet
  facet normal -0.579341 -0.334482 0.743294
    outer loop
      vertex 12.7017 47.2 6
      vertex 6.35085 58.2 6
      vertex 5.7735 57.2 5.1
    endloop
  endfacet
  facet normal -0.579341 0.334482 0.743294
    outer loop
      vertex 6.35085 36.2 6
      vertex 12.7017 47.2 6
      vertex 5.7735 37.2 5.1
    endloop
  endfacet
  facet normal -0 0.668965 0.743294
    outer loop
      vertex -5.7735 37.2 5.1
      vertex 6.35085 36.2 6
      vertex 5.7735 37.2 5.1
    endloop
  endfacet
  facet normal 0 0.668965 0.743294
    outer loop
      vertex 6.35085 36.2 6
      vertex -5.7735 37.2 5.1
      vertex -6.35085 36.2 6
    endloop
  endfacet
  facet normal 0.579341 0.334482 0.743294
    outer loop
      vertex -5.7735 37.2 5.1
      vertex -11.547 47.2 5.1
      vertex -12.7017 47.2 6
    endloop
  endfacet
  facet normal 0.579341 -0.334482 0.743294
    outer loop
      vertex -11.547 47.2 5.1
      vertex -5.7735 57.2 5.1
      vertex -12.7017 47.2 6
    endloop
  endfacet
  facet normal 0 -0.668965 0.743294
    outer loop
      vertex 6.35085 58.2 6
      vertex -5.7735 57.2 5.1
      vertex 5.7735 57.2 5.1
    endloop
  endfacet
  facet normal 0 -0.668965 0.743294
    outer loop
      vertex -5.7735 57.2 5.1
      vertex 6.35085 58.2 6
      vertex -6.35085 58.2 6
    endloop
  endfacet
  facet normal 0 1 -0
    outer loop
      vertex 6.35085 36.2 6
      vertex -6.35085 36.2 8
      vertex 6.35085 36.2 8
    endloop
  endfacet
  facet normal 0 1 0
    outer loop
      vertex -6.35085 36.2 8
      vertex 6.35085 36.2 6
      vertex -6.35085 36.2 6
    endloop
  endfacet
  facet normal -0.866026 0.5 0
    outer loop
      vertex 6.35085 36.2 6
      vertex 12.7017 47.2 8
      vertex 12.7017 47.2 6
    endloop
  endfacet
  facet normal -0.866026 0.5 0
    outer loop
      vertex 12.7017 47.2 8
      vertex 6.35085 36.2 6
      vertex 6.35085 36.2 8
    endloop
  endfacet
  facet normal 0 -1 0
    outer loop
      vertex -6.35085 58.2 6
      vertex 6.35085 58.2 8
      vertex -6.35085 58.2 8
    endloop
  endfacet
  facet normal 0 -1 -0
    outer loop
      vertex 6.35085 58.2 8
      vertex -6.35085 58.2 6
      vertex 6.35085 58.2 6
    endloop
  endfacet
  facet normal -0.866026 -0.5 0
    outer loop
      vertex 12.7017 47.2 6
      vertex 6.35085 58.2 8
      vertex 6.35085 58.2 6
    endloop
  endfacet
  facet normal -0.866026 -0.5 0
    outer loop
      vertex 6.35085 58.2 8
      vertex 12.7017 47.2 6
      vertex 12.7017 47.2 8
    endloop
  endfacet
  facet normal 0.866026 -0.5 0
    outer loop
      vertex -12.7017 47.2 8
      vertex -6.35085 58.2 6
      vertex -6.35085 58.2 8
    endloop
  endfacet
  facet normal 0.866026 -0.5 0
    outer loop
      vertex -6.35085 58.2 6
      vertex -12.7017 47.2 8
      vertex -12.7017 47.2 6
    endloop
  endfacet
  facet normal 0.866026 0.5 0
    outer loop
      vertex -6.35085 36.2 8
      vertex -12.7017 47.2 6
      vertex -12.7017 47.2 8
    endloop
  endfacet
  facet normal 0.866026 0.5 0
    outer loop
      vertex -12.7017 47.2 6
      vertex -6.35085 36.2 8
      vertex -6.35085 36.2 6
    endloop
  endfacet
endsolid OpenSCAD_Model
